{
.appVersion = "1342";
copyright = "© Copyright, CYBRNEON (2021). All rights reserved.";
customParameters = (
{
name = uniqueID;
value = "4210200";
}
);
date = "2021-11-04 14:17:57 +0000";
designer = CYBRNEON;
designerURL = behance.net/cybrneon;
familyName = Xenon256;
fontMaster = (
{
ascender = 923;
capHeight = 923;
descender = -285;
id = "2B49945B-6CA5-4A57-AEE9-C94C760A1D53";
xHeight = 639;
},
{
ascender = 923;
capHeight = 923;
custom = Corrupted;
descender = -285;
id = "D02270D2-0C41-4FF9-8B26-5AFAC61A3F8E";
visible = 1;
weightValue = 110;
xHeight = 639;
}
);
glyphs = (
{
glyphname = A;
lastChange = "2021-11-04 14:30:51 +0000";
layers = (
{
layerId = "2B49945B-6CA5-4A57-AEE9-C94C760A1D53";
paths = (
{
closed = 1;
nodes = (
"0 0 LINE",
"71 0 LINE",
"71 142 LINE",
"0 142 LINE"
);
},
{
closed = 1;
nodes = (
"71 142 LINE",
"142 142 LINE",
"142 284 LINE",
"71 284 LINE"
);
},
{
closed = 1;
nodes = (
"284 710 LINE",
"213 710 LINE",
"213 497 LINE",
"284 497 LINE"
);
},
{
closed = 1;
nodes = (
"497 710 LINE",
"497 852 LINE",
"426 852 LINE",
"426 710 LINE"
);
},
{
closed = 1;
nodes = (
"355 852 LINE",
"284 852 LINE",
"284 710 LINE",
"355 710 LINE"
);
},
{
closed = 1;
nodes = (
"355 923 LINE",
"355 852 LINE",
"426 852 LINE",
"426 923 LINE"
);
},
{
closed = 1;
nodes = (
"710 0 LINE",
"781 0 LINE",
"781 142 LINE",
"710 142 LINE"
);
},
{
closed = 1;
nodes = (
"639 284 LINE",
"639 142 LINE",
"710 142 LINE",
"710 284 LINE"
);
},
{
closed = 1;
nodes = (
"639 497 LINE",
"568 497 LINE",
"568 355 LINE",
"213 355 LINE",
"213 497 LINE",
"142 497 LINE",
"142 284 LINE",
"213 284 LINE",
"568 284 LINE",
"639 284 LINE"
);
},
{
closed = 1;
nodes = (
"497 497 LINE",
"568 497 LINE",
"568 710 LINE",
"497 710 LINE"
);
}
);
width = 923;
},
{
layerId = "D02270D2-0C41-4FF9-8B26-5AFAC61A3F8E";
paths = (
{
closed = 1;
nodes = (
"71 142 LINE",
"0 142 LINE",
"0 0 LINE",
"71 0 LINE"
);
},
{
closed = 1;
nodes = (
"71 213 LINE",
"71 142 LINE",
"142 142 LINE",
"142 213 LINE"
);
},
{
closed = 1;
nodes = (
"284 284 LINE",
"284 355 LINE",
"213 355 LINE",
"213 426 LINE",
"213 497 LINE",
"142 497 LINE",
"142 213 LINE",
"213 213 LINE",
"213 284 LINE"
);
},
{
closed = 1;
nodes = (
"355 213 LINE",
"355 284 LINE",
"284 284 LINE",
"284 213 LINE"
);
},
{
closed = 1;
nodes = (
"426 284 LINE",
"426 355 LINE",
"355 355 LINE",
"355 284 LINE"
);
},
{
closed = 1;
nodes = (
"426 355 LINE",
"497 355 LINE",
"497 426 LINE",
"426 426 LINE"
);
},
{
closed = 1;
nodes = (
"213 568 LINE",
"213 497 LINE",
"284 497 LINE",
"284 568 LINE"
);
},
{
closed = 1;
nodes = (
"284 639 LINE",
"284 568 LINE",
"355 568 LINE",
"355 639 LINE"
);
},
{
closed = 1;
nodes = (
"213 639 LINE",
"284 639 LINE",
"284 710 LINE",
"213 710 LINE"
);
},
{
closed = 1;
nodes = (
"355 852 LINE",
"284 852 LINE",
"284 710 LINE",
"355 710 LINE"
);
},
{
closed = 1;
nodes = (
"497 852 LINE",
"426 852 LINE",
"426 781 LINE",
"497 781 LINE"
);
},
{
closed = 1;
nodes = (
"355 923 LINE",
"355 852 LINE",
"426 852 LINE",
"426 923 LINE"
);
},
{
closed = 1;
nodes = (
"710 0 LINE",
"781 0 LINE",
"781 213 LINE",
"710 213 LINE"
);
},
{
closed = 1;
nodes = (
"710 284 LINE",
"639 284 LINE",
"639 213 LINE",
"710 213 LINE"
);
},
{
closed = 1;
nodes = (
"497 355 LINE",
"497 284 LINE",
"639 284 LINE",
"639 497 LINE",
"568 497 LINE",
"568 355 LINE"
);
},
{
closed = 1;
nodes = (
"497 497 LINE",
"568 497 LINE",
"568 781 LINE",
"497 781 LINE"
);
}
);
width = 923;
}
);
unicode = 0041;
},
{
color = 11;
glyphname = Acircumflex;
lastChange = "2021-11-04 14:30:54 +0000";
layers = (
{
layerId = "2B49945B-6CA5-4A57-AEE9-C94C760A1D53";
paths = (
{
closed = 1;
nodes = (
"568 994 LINE",
"497 994 LINE",
"497 923 LINE",
"568 923 LINE"
);
},
{
closed = 1;
nodes = (
"497 1064 LINE",
"426 1064 LINE",
"426 994 LINE",
"497 994 LINE"
);
},
{
closed = 1;
nodes = (
"355 1136 LINE",
"355 1064 LINE",
"426 1064 LINE",
"426 1136 LINE"
);
},
{
closed = 1;
nodes = (
"213 994 LINE",
"213 923 LINE",
"284 923 LINE",
"284 994 LINE"
);
},
{
closed = 1;
nodes = (
"284 1064 LINE",
"284 994 LINE",
"355 994 LINE",
"355 1064 LINE"
);
},
{
closed = 1;
nodes = (
"0 0 LINE",
"71 0 LINE",
"71 142 LINE",
"0 142 LINE"
);
},
{
closed = 1;
nodes = (
"71 142 LINE",
"142 142 LINE",
"142 284 LINE",
"71 284 LINE"
);
},
{
closed = 1;
nodes = (
"284 710 LINE",
"213 710 LINE",
"213 497 LINE",
"284 497 LINE"
);
},
{
closed = 1;
nodes = (
"497 710 LINE",
"497 852 LINE",
"426 852 LINE",
"426 710 LINE"
);
},
{
closed = 1;
nodes = (
"355 852 LINE",
"284 852 LINE",
"284 710 LINE",
"355 710 LINE"
);
},
{
closed = 1;
nodes = (
"355 923 LINE",
"355 852 LINE",
"426 852 LINE",
"426 923 LINE"
);
},
{
closed = 1;
nodes = (
"710 0 LINE",
"780 0 LINE",
"780 142 LINE",
"710 142 LINE"
);
},
{
closed = 1;
nodes = (
"639 284 LINE",
"639 142 LINE",
"710 142 LINE",
"710 284 LINE"
);
},
{
closed = 1;
nodes = (
"639 497 LINE",
"568 497 LINE",
"568 355 LINE",
"213 355 LINE",
"213 497 LINE",
"142 497 LINE",
"142 355 LINE",
"142 284 LINE",
"639 284 LINE",
"639 355 LINE"
);
},
{
closed = 1;
nodes = (
"497 497 LINE",
"568 497 LINE",
"568 710 LINE",
"497 710 LINE"
);
}
);
width = 922;
},
{
layerId = "D02270D2-0C41-4FF9-8B26-5AFAC61A3F8E";
paths = (
{
closed = 1;
nodes = (
"569 994 LINE",
"497 994 LINE",
"497 923 LINE",
"569 923 LINE"
);
},
{
closed = 1;
nodes = (
"426 994 LINE",
"497 994 LINE",
"497 1065 LINE",
"426 1065 LINE"
);
},
{
closed = 1;
nodes = (
"355 1065 LINE",
"426 1065 LINE",
"426 1136 LINE",
"355 1136 LINE"
);
},
{
closed = 1;
nodes = (
"284 923 LINE",
"284 994 LINE",
"213 994 LINE",
"213 923 LINE"
);
},
{
closed = 1;
nodes = (
"355 994 LINE",
"355 1065 LINE",
"284 1065 LINE",
"284 994 LINE"
);
},
{
closed = 1;
nodes = (
"71 142 LINE",
"0 142 LINE",
"0 0 LINE",
"71 0 LINE"
);
},
{
closed = 1;
nodes = (
"71 213 LINE",
"71 142 LINE",
"142 142 LINE",
"142 213 LINE"
);
},
{
closed = 1;
nodes = (
"284 284 LINE",
"284 355 LINE",
"213 355 LINE",
"213 497 LINE",
"142 497 LINE",
"142 213 LINE",
"213 213 LINE",
"213 284 LINE"
);
},
{
closed = 1;
nodes = (
"355 213 LINE",
"355 284 LINE",
"284 284 LINE",
"284 213 LINE"
);
},
{
closed = 1;
nodes = (
"426 284 LINE",
"426 355 LINE",
"355 355 LINE",
"355 284 LINE"
);
},
{
closed = 1;
nodes = (
"426 355 LINE",
"497 355 LINE",
"497 426 LINE",
"426 426 LINE"
);
},
{
closed = 1;
nodes = (
"213 569 LINE",
"213 497 LINE",
"284 497 LINE",
"284 569 LINE"
);
},
{
closed = 1;
nodes = (
"284 640 LINE",
"284 569 LINE",
"355 569 LINE",
"355 640 LINE"
);
},
{
closed = 1;
nodes = (
"213 640 LINE",
"284 640 LINE",
"284 710 LINE",
"213 710 LINE"
);
},
{
closed = 1;
nodes = (
"355 852 LINE",
"284 852 LINE",
"284 710 LINE",
"355 710 LINE"
);
},
{
closed = 1;
nodes = (
"497 852 LINE",
"426 852 LINE",
"426 781 LINE",
"497 781 LINE"
);
},
{
closed = 1;
nodes = (
"355 923 LINE",
"355 852 LINE",
"426 852 LINE",
"426 923 LINE"
);
},
{
closed = 1;
nodes = (
"710 0 LINE",
"781 0 LINE",
"781 213 LINE",
"710 213 LINE"
);
},
{
closed = 1;
nodes = (
"710 284 LINE",
"640 284 LINE",
"640 213 LINE",
"710 213 LINE"
);
},
{
closed = 1;
nodes = (
"497 355 LINE",
"497 284 LINE",
"640 284 LINE",
"640 497 LINE",
"569 497 LINE",
"569 355 LINE"
);
},
{
closed = 1;
nodes = (
"497 497 LINE",
"569 497 LINE",
"569 781 LINE",
"497 781 LINE"
);
}
);
width = 923;
}
);
unicode = 00C2;
},
{
color = 11;
glyphname = Adieresis;
lastChange = "2021-11-04 14:30:56 +0000";
layers = (
{
components = (
{
name = A;
}
);
layerId = "2B49945B-6CA5-4A57-AEE9-C94C760A1D53";
paths = (
{
closed = 1;
nodes = (
"496 1065 LINE",
"496 994 LINE",
"568 994 LINE",
"568 1065 LINE"
);
},
{
closed = 1;
nodes = (
"213 1065 LINE",
"213 994 LINE",
"284 994 LINE",
"284 1065 LINE"
);
},
{
closed = 1;
nodes = (
"0 0 LINE",
"71 0 LINE",
"71 142 LINE",
"0 142 LINE"
);
},
{
closed = 1;
nodes = (
"71 142 LINE",
"142 142 LINE",
"142 284 LINE",
"71 284 LINE"
);
},
{
closed = 1;
nodes = (
"284 710 LINE",
"213 710 LINE",
"213 496 LINE",
"284 496 LINE"
);
},
{
closed = 1;
nodes = (
"496 710 LINE",
"496 852 LINE",
"426 852 LINE",
"426 710 LINE"
);
},
{
closed = 1;
nodes = (
"355 852 LINE",
"284 852 LINE",
"284 710 LINE",
"355 710 LINE"
);
},
{
closed = 1;
nodes = (
"355 923 LINE",
"355 852 LINE",
"426 852 LINE",
"426 923 LINE"
);
},
{
closed = 1;
nodes = (
"710 0 LINE",
"781 0 LINE",
"781 142 LINE",
"710 142 LINE"
);
},
{
closed = 1;
nodes = (
"639 284 LINE",
"639 142 LINE",
"710 142 LINE",
"710 284 LINE"
);
},
{
closed = 1;
nodes = (
"639 496 LINE",
"568 496 LINE",
"568 355 LINE",
"213 355 LINE",
"213 496 LINE",
"142 496 LINE",
"142 355 LINE",
"142 284 LINE",
"639 284 LINE",
"639 355 LINE"
);
},
{
closed = 1;
nodes = (
"496 496 LINE",
"568 496 LINE",
"568 710 LINE",
"496 710 LINE"
);
}
);
width = 923;
},
{
layerId = "D02270D2-0C41-4FF9-8B26-5AFAC61A3F8E";
paths = (
{
closed = 1;
nodes = (
"496 1065 LINE",
"496 994 LINE",
"568 994 LINE",
"568 1065 LINE"
);
},
{
closed = 1;
nodes = (
"213 1065 LINE",
"213 994 LINE",
"284 994 LINE",
"284 1065 LINE"
);
},
{
closed = 1;
nodes = (
"71 142 LINE",
"0 142 LINE",
"0 0 LINE",
"71 0 LINE"
);
},
{
closed = 1;
nodes = (
"142 284 LINE",
"71 284 LINE",
"71 142 LINE",
"142 142 LINE"
);
},
{
closed = 1;
nodes = (
"355 284 LINE",
"355 355 LINE",
"213 355 LINE",
"213 426 LINE",
"142 426 LINE",
"142 284 LINE"
);
},
{
closed = 1;
nodes = (
"355 355 LINE",
"426 355 LINE",
"426 426 LINE",
"355 426 LINE"
);
},
{
closed = 1;
nodes = (
"284 710 LINE",
"213 710 LINE",
"213 426 LINE",
"284 426 LINE"
);
},
{
closed = 1;
nodes = (
"497 710 LINE",
"497 852 LINE",
"426 852 LINE",
"426 710 LINE"
);
},
{
closed = 1;
nodes = (
"355 852 LINE",
"284 852 LINE",
"284 710 LINE",
"355 710 LINE"
);
},
{
closed = 1;
nodes = (
"355 923 LINE",
"355 852 LINE",
"426 852 LINE",
"426 923 LINE"
);
},
{
closed = 1;
nodes = (
"781 71 LINE",
"710 71 LINE",
"710 0 LINE",
"781 0 LINE"
);
},
{
closed = 1;
nodes = (
"710 71 LINE",
"710 142 LINE",
"639 142 LINE",
"639 71 LINE"
);
},
{
closed = 1;
nodes = (
"781 213 LINE",
"710 213 LINE",
"710 142 LINE",
"781 142 LINE"
);
},
{
closed = 1;
nodes = (
"710 284 LINE",
"639 284 LINE",
"639 213 LINE",
"710 213 LINE"
);
},
{
closed = 1;
nodes = (
"568 355 LINE",
"426 355 LINE",
"426 284 LINE",
"639 284 LINE",
"639 568 LINE",
"568 568 LINE"
);
},
{
closed = 1;
nodes = (
"568 568 LINE",
"568 710 LINE",
"497 710 LINE",
"497 568 LINE"
);
}
);
width = 923;
}
);
unicode = 00C4;
},
{
color = 11;
glyphname = Agrave;
lastChange = "2021-11-04 14:30:59 +0000";
layers = (
{
components = (
{
name = A;
}
);
layerId = "2B49945B-6CA5-4A57-AEE9-C94C760A1D53";
paths = (
{
closed = 1;
nodes = (
"497 1065 LINE",
"425 1065 LINE",
"425 993 LINE",
"497 993 LINE"
);
},
{
closed = 1;
nodes = (
"425 1136 LINE",
"355 1136 LINE",
"355 1065 LINE",
"425 1065 LINE"
);
},
{
closed = 1;
nodes = (
"284 1207 LINE",
"284 1136 LINE",
"355 1136 LINE",
"355 1207 LINE"
);
},
{
closed = 1;
nodes = (
"0 0 LINE",
"71 0 LINE",
"71 141 LINE",
"0 141 LINE"
);
},
{
closed = 1;
nodes = (
"71 141 LINE",
"141 141 LINE",
"141 284 LINE",
"71 284 LINE"
);
},
{
closed = 1;
nodes = (
"284 709 LINE",
"213 709 LINE",
"213 497 LINE",
"284 497 LINE"
);
},
{
closed = 1;
nodes = (
"497 709 LINE",
"497 852 LINE",
"425 852 LINE",
"425 709 LINE"
);
},
{
closed = 1;
nodes = (
"355 852 LINE",
"284 852 LINE",
"284 709 LINE",
"355 709 LINE"
);
},
{
closed = 1;
nodes = (
"355 923 LINE",
"355 852 LINE",
"425 852 LINE",
"425 923 LINE"
);
},
{
closed = 1;
nodes = (
"709 0 LINE",
"781 0 LINE",
"781 141 LINE",
"709 141 LINE"
);
},
{
closed = 1;
nodes = (
"639 284 LINE",
"639 141 LINE",
"709 141 LINE",
"709 284 LINE"
);
},
{
closed = 1;
nodes = (
"639 497 LINE",
"568 497 LINE",
"568 355 LINE",
"213 355 LINE",
"213 497 LINE",
"141 497 LINE",
"141 355 LINE",
"141 284 LINE",
"639 284 LINE",
"639 355 LINE"
);
},
{
closed = 1;
nodes = (
"497 497 LINE",
"568 497 LINE",
"568 709 LINE",
"497 709 LINE"
);
}
);
width = 923;
},
{
layerId = "D02270D2-0C41-4FF9-8B26-5AFAC61A3F8E";
paths = (
{
closed = 1;
nodes = (
"497 1065 LINE",
"425 1065 LINE",
"425 993 LINE",
"497 993 LINE"
);
},
{
closed = 1;
nodes = (
"425 1136 LINE",
"355 1136 LINE",
"355 1065 LINE",
"425 1065 LINE"
);
},
{
closed = 1;
nodes = (
"284 1207 LINE",
"284 1136 LINE",
"355 1136 LINE",
"355 1207 LINE"
);
},
{
closed = 1;
nodes = (
"0 0 LINE",
"71 0 LINE",
"71 142 LINE",
"0 142 LINE"
);
},
{
closed = 1;
nodes = (
"71 142 LINE",
"142 142 LINE",
"142 213 LINE",
"142 284 LINE",
"71 284 LINE",
"71 213 LINE"
);
},
{
closed = 1;
nodes = (
"284 355 LINE",
"355 355 LINE",
"355 426 LINE",
"284 426 LINE"
);
},
{
closed = 1;
nodes = (
"213 497 LINE",
"142 497 LINE",
"142 284 LINE",
"284 284 LINE",
"284 355 LINE",
"213 355 LINE"
);
},
{
closed = 1;
nodes = (
"284 710 LINE",
"213 710 LINE",
"213 497 LINE",
"284 497 LINE"
);
},
{
closed = 1;
nodes = (
"355 852 LINE",
"284 852 LINE",
"284 710 LINE",
"355 710 LINE"
);
},
{
closed = 1;
nodes = (
"497 852 LINE",
"426 852 LINE",
"426 781 LINE",
"497 781 LINE"
);
},
{
closed = 1;
nodes = (
"355 923 LINE",
"355 852 LINE",
"426 852 LINE",
"426 923 LINE"
);
},
{
closed = 1;
nodes = (
"710 0 LINE",
"781 0 LINE",
"781 213 LINE",
"710 213 LINE"
);
},
{
closed = 1;
nodes = (
"639 213 LINE",
"710 213 LINE",
"710 284 LINE",
"639 284 LINE"
);
},
{
closed = 1;
nodes = (
"568 426 LINE",
"568 355 LINE",
"355 355 LINE",
"355 284 LINE",
"639 284 LINE",
"639 426 LINE"
);
},
{
closed = 1;
nodes = (
"568 426 LINE",
"568 497 LINE",
"497 497 LINE",
"497 426 LINE"
);
},
{
closed = 1;
nodes = (
"639 568 LINE",
"568 568 LINE",
"568 497 LINE",
"639 497 LINE"
);
},
{
closed = 1;
nodes = (
"497 568 LINE",
"568 568 LINE",
"568 781 LINE",
"497 781 LINE"
);
}
);
width = 923;
}
);
unicode = 00C0;
},
{
color = 11;
glyphname = AE;
lastChange = "2021-11-04 14:31:10 +0000";
layers = (
{
layerId = "2B49945B-6CA5-4A57-AEE9-C94C760A1D53";
paths = (
{
closed = 1;
nodes = (
"0 0 LINE",
"71 0 LINE",
"71 213 LINE",
"0 213 LINE"
);
},
{
closed = 1;
nodes = (
"213 639 LINE",
"142 639 LINE",
"142 426 LINE",
"213 426 LINE"
);
},
{
closed = 1;
nodes = (
"284 852 LINE",
"213 852 LINE",
"213 639 LINE",
"284 639 LINE"
);
},
{
closed = 1;
nodes = (
"284 923 LINE",
"284 852 LINE",
"355 852 LINE",
"355 355 LINE",
"142 355 LINE",
"142 426 LINE",
"71 426 LINE",
"71 213 LINE",
"142 213 LINE",
"142 284 LINE",
"355 284 LINE",
"355 0 LINE",
"426 0 LINE",
"923 0 LINE",
"923 71 LINE",
"426 71 LINE",
"426 426 LINE",
"852 426 LINE",
"852 497 LINE",
"426 497 LINE",
"426 852 LINE",
"923 852 LINE",
"923 923 LINE"
);
}
);
width = 1065;
},
{
layerId = "D02270D2-0C41-4FF9-8B26-5AFAC61A3F8E";
paths = (
{
closed = 1;
nodes = (
"0 0 LINE",
"71 0 LINE",
"71 213 LINE",
"0 213 LINE"
);
},
{
closed = 1;
nodes = (
"142 426 LINE",
"71 426 LINE",
"71 213 LINE",
"142 213 LINE",
"142 284 LINE",
"213 284 LINE",
"213 355 LINE",
"142 355 LINE"
);
},
{
closed = 1;
nodes = (
"284 213 LINE",
"284 284 LINE",
"213 284 LINE",
"213 213 LINE"
);
},
{
closed = 1;
nodes = (
"284 284 LINE",
"355 284 LINE",
"355 355 LINE",
"284 355 LINE"
);
},
{
closed = 1;
nodes = (
"142 497 LINE",
"142 426 LINE",
"213 426 LINE",
"213 497 LINE"
);
},
{
closed = 1;
nodes = (
"213 568 LINE",
"213 497 LINE",
"284 497 LINE",
"284 568 LINE"
);
},
{
closed = 1;
nodes = (
"142 568 LINE",
"213 568 LINE",
"213 639 LINE",
"142 639 LINE"
);
},
{
closed = 1;
nodes = (
"284 781 LINE",
"213 781 LINE",
"213 639 LINE",
"284 639 LINE"
);
},
{
closed = 1;
nodes = (
"781 0 LINE",
"781 71 LINE",
"497 71 LINE",
"497 0 LINE"
);
},
{
closed = 1;
nodes = (
"781 142 LINE",
"781 71 LINE",
"852 71 LINE",
"852 142 LINE"
);
},
{
closed = 1;
nodes = (
"923 71 LINE",
"852 71 LINE",
"852 0 LINE",
"923 0 LINE"
);
},
{
closed = 1;
nodes = (
"497 639 LINE",
"497 781 LINE",
"426 781 LINE",
"426 639 LINE"
);
},
{
closed = 1;
nodes = (
"355 355 LINE",
"426 355 LINE",
"426 426 LINE",
"497 426 LINE",
"497 497 LINE",
"426 497 LINE",
"426 639 LINE",
"355 639 LINE"
);
},
{
closed = 1;
nodes = (
"639 568 LINE",
"497 568 LINE",
"497 497 LINE",
"639 497 LINE"
);
},
{
closed = 1;
nodes = (
"852 426 LINE",
"852 497 LINE",
"639 497 LINE",
"639 426 LINE"
);
},
{
closed = 1;
nodes = (
"497 355 LINE",
"426 355 LINE",
"426 284 LINE",
"497 284 LINE"
);
},
{
closed = 1;
nodes = (
"355 0 LINE",
"426 0 LINE",
"426 71 LINE",
"497 71 LINE",
"497 142 LINE",
"426 142 LINE",
"426 284 LINE",
"355 284 LINE"
);
},
{
closed = 1;
nodes = (
"284 923 LINE",
"284 781 LINE",
"426 781 LINE",
"426 852 LINE",
"781 852 LINE",
"781 923 LINE"
);
},
{
closed = 1;
nodes = (
"852 781 LINE",
"852 852 LINE",
"781 852 LINE",
"781 781 LINE"
);
},
{
closed = 1;
nodes = (
"923 852 LINE",
"923 923 LINE",
"852 923 LINE",
"852 852 LINE"
);
}
);
width = 1065;
}
);
unicode = 00C6;
},
{
glyphname = B;
lastChange = "2021-11-04 14:31:14 +0000";
layers = (
{
layerId = "2B49945B-6CA5-4A57-AEE9-C94C760A1D53";
paths = (
{
closed = 1;
nodes = (
"71 71 LINE",
"71 426 LINE",
"568 426 LINE",
"568 497 LINE",
"568 568 LINE",
"497 568 LINE",
"497 497 LINE",
"71 497 LINE",
"71 852 LINE",
"497 852 LINE",
"497 923 LINE",
"0 923 LINE",
"0 0 LINE",
"568 0 LINE",
"568 71 LINE"
);
},
{
closed = 1;
nodes = (
"568 852 LINE",
"497 852 LINE",
"497 781 LINE",
"568 781 LINE"
);
},
{
closed = 1;
nodes = (
"568 568 LINE",
"639 568 LINE",
"639 781 LINE",
"568 781 LINE"
);
},
{
closed = 1;
nodes = (
"639 426 LINE",
"568 426 LINE",
"568 355 LINE",
"639 355 LINE"
);
},
{
closed = 1;
nodes = (
"639 142 LINE",
"710 142 LINE",
"710 355 LINE",
"639 355 LINE"
);
},
{
closed = 1;
nodes = (
"639 71 LINE",
"639 142 LINE",
"568 142 LINE",
"568 71 LINE"
);
}
);
width = 852;
},
{
layerId = "D02270D2-0C41-4FF9-8B26-5AFAC61A3F8E";
paths = (
{
closed = 1;
nodes = (
"355 142 LINE",
"355 71 LINE",
"497 71 LINE",
"497 142 LINE"
);
},
{
closed = 1;
nodes = (
"213 0 LINE",
"355 0 LINE",
"355 71 LINE",
"213 71 LINE"
);
},
{
closed = 1;
nodes = (
"142 71 LINE",
"71 71 LINE",
"71 355 LINE",
"0 355 LINE",
"0 0 LINE",
"142 0 LINE"
);
},
{
closed = 1;
nodes = (
"142 71 LINE",
"213 71 LINE",
"213 142 LINE",
"142 142 LINE"
);
},
{
closed = 1;
nodes = (
"568 852 LINE",
"497 852 LINE",
"497 781 LINE",
"568 781 LINE"
);
},
{
closed = 1;
nodes = (
"639 781 LINE",
"568 781 LINE",
"568 710 LINE",
"639 710 LINE"
);
},
{
closed = 1;
nodes = (
"497 852 LINE",
"497 923 LINE",
"284 923 LINE",
"284 852 LINE"
);
},
{
closed = 1;
nodes = (
"497 568 LINE",
"568 568 LINE",
"568 710 LINE",
"497 710 LINE"
);
},
{
closed = 1;
nodes = (
"355 497 LINE",
"355 426 LINE",
"568 426 LINE",
"568 497 LINE",
"497 497 LINE",
"497 568 LINE",
"426 568 LINE",
"426 497 LINE"
);
},
{
closed = 1;
nodes = (
"639 426 LINE",
"568 426 LINE",
"568 355 LINE",
"639 355 LINE"
);
},
{
closed = 1;
nodes = (
"639 142 LINE",
"710 142 LINE",
"710 355 LINE",
"639 355 LINE"
);
},
{
closed = 1;
nodes = (
"639 71 LINE",
"639 142 LINE",
"568 142 LINE",
"568 71 LINE"
);
},
{
closed = 1;
nodes = (
"568 0 LINE",
"568 71 LINE",
"497 71 LINE",
"497 0 LINE"
);
},
{
closed = 1;
nodes = (
"284 497 LINE",
"355 497 LINE",
"355 568 LINE",
"284 568 LINE"
);
},
{
closed = 1;
nodes = (
"284 426 LINE",
"213 426 LINE",
"213 355 LINE",
"284 355 LINE"
);
},
{
closed = 1;
nodes = (
"213 426 LINE",
"213 497 LINE",
"71 497 LINE",
"71 568 LINE",
"0 568 LINE",
"0 426 LINE",
"71 426 LINE",
"71 355 LINE",
"142 355 LINE",
"142 426 LINE"
);
},
{
closed = 1;
nodes = (
"284 852 LINE",
"213 852 LINE",
"213 781 LINE",
"284 781 LINE"
);
},
{
closed = 1;
nodes = (
"213 852 LINE",
"213 923 LINE",
"0 923 LINE",
"0 710 LINE",
"71 710 LINE",
"71 852 LINE"
);
},
{
closed = 1;
nodes = (
"142 710 LINE",
"71 710 LINE",
"71 568 LINE",
"142 568 LINE"
);
}
);
width = 852;
}
);
unicode = 0042;
},
{
glyphname = C;
lastChange = "2021-11-04 14:31:17 +0000";
layers = (
{
layerId = "2B49945B-6CA5-4A57-AEE9-C94C760A1D53";
paths = (
{
closed = 1;
nodes = (
"568 0 LINE",
"568 71 LINE",
"213 71 LINE",
"213 0 LINE"
);
},
{
closed = 1;
nodes = (
"568 142 LINE",
"568 71 LINE",
"639 71 LINE",
"639 142 LINE"
);
},
{
closed = 1;
nodes = (
"639 213 LINE",
"639 142 LINE",
"710 142 LINE",
"710 213 LINE"
);
},
{
closed = 1;
nodes = (
"71 781 LINE",
"71 710 LINE",
"142 710 LINE",
"142 781 LINE"
);
},
{
closed = 1;
nodes = (
"142 852 LINE",
"142 781 LINE",
"213 781 LINE",
"213 852 LINE"
);
},
{
closed = 1;
nodes = (
"71 710 LINE",
"0 710 LINE",
"0 213 LINE",
"71 213 LINE"
);
},
{
closed = 1;
nodes = (
"142 213 LINE",
"71 213 LINE",
"71 142 LINE",
"142 142 LINE"
);
},
{
closed = 1;
nodes = (
"213 142 LINE",
"142 142 LINE",
"142 71 LINE",
"213 71 LINE"
);
},
{
closed = 1;
nodes = (
"568 852 LINE",
"568 923 LINE",
"213 923 LINE",
"213 852 LINE"
);
},
{
closed = 1;
nodes = (
"639 852 LINE",
"568 852 LINE",
"568 781 LINE",
"639 781 LINE"
);
},
{
closed = 1;
nodes = (
"710 781 LINE",
"639 781 LINE",
"639 710 LINE",
"710 710 LINE"
);
}
);
width = 852;
},
{
layerId = "D02270D2-0C41-4FF9-8B26-5AFAC61A3F8E";
paths = (
{
closed = 1;
nodes = (
"568 0 LINE",
"568 71 LINE",
"213 71 LINE",
"213 0 LINE"
);
},
{
closed = 1;
nodes = (
"568 142 LINE",
"568 71 LINE",
"639 71 LINE",
"639 142 LINE"
);
},
{
closed = 1;
nodes = (
"639 213 LINE",
"639 142 LINE",
"710 142 LINE",
"710 213 LINE"
);
},
{
closed = 1;
nodes = (
"71 781 LINE",
"71 710 LINE",
"142 710 LINE",
"142 781 LINE"
);
},
{
closed = 1;
nodes = (
"0 710 LINE",
"0 568 LINE",
"71 568 LINE",
"71 710 LINE"
);
},
{
closed = 1;
nodes = (
"142 568 LINE",
"71 568 LINE",
"71 426 LINE",
"142 426 LINE"
);
},
{
closed = 1;
nodes = (
"0 355 LINE",
"71 355 LINE",
"71 426 LINE",
"0 426 LINE"
);
},
{
closed = 1;
nodes = (
"71 355 LINE",
"71 284 LINE",
"142 284 LINE",
"142 355 LINE"
);
},
{
closed = 1;
nodes = (
"0 284 LINE",
"0 213 LINE",
"71 213 LINE",
"71 284 LINE"
);
},
{
closed = 1;
nodes = (
"142 213 LINE",
"71 213 LINE",
"71 142 LINE",
"142 142 LINE"
);
},
{
closed = 1;
nodes = (
"213 142 LINE",
"142 142 LINE",
"142 71 LINE",
"213 71 LINE"
);
},
{
closed = 1;
nodes = (
"284 852 LINE",
"142 852 LINE",
"142 781 LINE",
"284 781 LINE"
);
},
{
closed = 1;
nodes = (
"284 923 LINE",
"284 852 LINE",
"355 852 LINE",
"355 923 LINE"
);
},
{
closed = 1;
nodes = (
"426 852 LINE",
"355 852 LINE",
"355 781 LINE",
"426 781 LINE"
);
},
{
closed = 1;
nodes = (
"568 923 LINE",
"426 923 LINE",
"426 852 LINE",
"568 852 LINE"
);
},
{
closed = 1;
nodes = (
"639 852 LINE",
"568 852 LINE",
"568 781 LINE",
"639 781 LINE"
);
},
{
closed = 1;
nodes = (
"710 781 LINE",
"639 781 LINE",
"639 710 LINE",
"710 710 LINE"
);
}
);
width = 852;
}
);
unicode = 0043;
},
{
color = 11;
glyphname = Ccedilla;
lastChange = "2021-11-04 14:31:20 +0000";
layers = (
{
components = (
{
name = C;
}
);
layerId = "2B49945B-6CA5-4A57-AEE9-C94C760A1D53";
paths = (
{
closed = 1;
nodes = (
"497 -70 LINE",
"426 -70 LINE",
"426 -142 LINE",
"497 -142 LINE"
);
},
{
closed = 1;
nodes = (
"282 -212 LINE",
"426 -212 LINE",
"426 -142 LINE",
"282 -142 LINE"
);
},
{
closed = 1;
nodes = (
"355 0 LINE",
"355 -70 LINE",
"426 -70 LINE",
"426 0 LINE",
"567 0 LINE",
"567 70 LINE",
"212 70 LINE",
"212 0 LINE"
);
},
{
closed = 1;
nodes = (
"567 143 LINE",
"567 70 LINE",
"638 70 LINE",
"638 143 LINE"
);
},
{
closed = 1;
nodes = (
"638 214 LINE",
"638 143 LINE",
"709 143 LINE",
"709 214 LINE"
);
},
{
closed = 1;
nodes = (
"142 711 LINE",
"142 782 LINE",
"70 782 LINE",
"70 711 LINE"
);
},
{
closed = 1;
nodes = (
"212 782 LINE",
"212 853 LINE",
"142 853 LINE",
"142 782 LINE"
);
},
{
closed = 1;
nodes = (
"0 214 LINE",
"70 214 LINE",
"70 711 LINE",
"0 711 LINE"
);
},
{
closed = 1;
nodes = (
"142 214 LINE",
"70 214 LINE",
"70 143 LINE",
"142 143 LINE"
);
},
{
closed = 1;
nodes = (
"212 143 LINE",
"142 143 LINE",
"142 70 LINE",
"212 70 LINE"
);
},
{
closed = 1;
nodes = (
"212 923 LINE",
"212 853 LINE",
"567 853 LINE",
"567 923 LINE"
);
},
{
closed = 1;
nodes = (
"567 782 LINE",
"638 782 LINE",
"638 853 LINE",
"567 853 LINE"
);
},
{
closed = 1;
nodes = (
"709 711 LINE",
"709 782 LINE",
"638 782 LINE",
"638 711 LINE"
);
}
);
width = 852;
},
{
layerId = "D02270D2-0C41-4FF9-8B26-5AFAC61A3F8E";
paths = (
{
closed = 1;
nodes = (
"425 -71 LINE",
"425 1 LINE",
"354 1 LINE",
"354 -71 LINE"
);
},
{
closed = 1;
nodes = (
"497 -71 LINE",
"425 -71 LINE",
"425 -141 LINE",
"497 -141 LINE"
);
},
{
closed = 1;
nodes = (
"284 -212 LINE",
"425 -212 LINE",
"425 -141 LINE",
"284 -141 LINE"
);
},
{
closed = 1;
nodes = (
"284 72 LINE",
"213 72 LINE",
"213 1 LINE",
"284 1 LINE"
);
},
{
closed = 1;
nodes = (
"425 142 LINE",
"284 142 LINE",
"284 72 LINE",
"425 72 LINE"
);
},
{
closed = 1;
nodes = (
"568 1 LINE",
"568 72 LINE",
"425 72 LINE",
"425 1 LINE"
);
},
{
closed = 1;
nodes = (
"568 142 LINE",
"568 72 LINE",
"638 72 LINE",
"638 142 LINE"
);
},
{
closed = 1;
nodes = (
"638 213 LINE",
"638 142 LINE",
"710 142 LINE",
"710 213 LINE"
);
},
{
closed = 1;
nodes = (
"141 710 LINE",
"141 782 LINE",
"71 782 LINE",
"71 710 LINE"
);
},
{
closed = 1;
nodes = (
"213 782 LINE",
"213 852 LINE",
"141 852 LINE",
"141 782 LINE"
);
},
{
closed = 1;
nodes = (
"71 639 LINE",
"71 710 LINE",
"0 710 LINE",
"0 639 LINE"
);
},
{
closed = 1;
nodes = (
"141 639 LINE",
"71 639 LINE",
"71 569 LINE",
"141 569 LINE"
);
},
{
closed = 1;
nodes = (
"0 426 LINE",
"71 426 LINE",
"71 569 LINE",
"0 569 LINE"
);
},
{
closed = 1;
nodes = (
"141 426 LINE",
"71 426 LINE",
"71 356 LINE",
"141 356 LINE"
);
},
{
closed = 1;
nodes = (
"0 213 LINE",
"71 213 LINE",
"71 356 LINE",
"0 356 LINE"
);
},
{
closed = 1;
nodes = (
"141 213 LINE",
"71 213 LINE",
"71 142 LINE",
"141 142 LINE"
);
},
{
closed = 1;
nodes = (
"213 142 LINE",
"141 142 LINE",
"141 72 LINE",
"213 72 LINE"
);
},
{
closed = 1;
nodes = (
"213 923 LINE",
"213 852 LINE",
"425 852 LINE",
"425 923 LINE"
);
},
{
closed = 1;
nodes = (
"497 782 LINE",
"497 852 LINE",
"425 852 LINE",
"425 782 LINE"
);
},
{
closed = 1;
nodes = (
"497 852 LINE",
"568 852 LINE",
"568 923 LINE",
"497 923 LINE"
);
},
{
closed = 1;
nodes = (
"568 782 LINE",
"638 782 LINE",
"638 852 LINE",
"568 852 LINE"
);
},
{
closed = 1;
nodes = (
"710 710 LINE",
"710 782 LINE",
"638 782 LINE",
"638 710 LINE"
);
}
);
width = 852;
}
);
unicode = 00C7;
},
{
glyphname = D;
lastChange = "2021-11-04 14:31:23 +0000";
layers = (
{
layerId = "2B49945B-6CA5-4A57-AEE9-C94C760A1D53";
paths = (
{
closed = 1;
nodes = (
"71 71 LINE",
"71 852 LINE",
"497 852 LINE",
"497 923 LINE",
"0 923 LINE",
"0 0 LINE",
"497 0 LINE",
"497 71 LINE"
);
},
{
closed = 1;
nodes = (
"639 781 LINE",
"568 781 LINE",
"568 710 LINE",
"639 710 LINE"
);
},
{
closed = 1;
nodes = (
"568 852 LINE",
"497 852 LINE",
"497 781 LINE",
"568 781 LINE"
);
},
{
closed = 1;
nodes = (
"639 213 LINE",
"710 213 LINE",
"710 710 LINE",
"639 710 LINE"
);
},
{
closed = 1;
nodes = (
"639 142 LINE",
"639 213 LINE",
"568 213 LINE",
"568 142 LINE"
);
},
{
closed = 1;
nodes = (
"568 71 LINE",
"568 142 LINE",
"497 142 LINE",
"497 71 LINE"
);
}
);
width = 852;
},
{
layerId = "D02270D2-0C41-4FF9-8B26-5AFAC61A3F8E";
paths = (
{
closed = 1;
nodes = (
"355 0 LINE",
"497 0 LINE",
"497 71 LINE",
"355 71 LINE"
);
},
{
closed = 1;
nodes = (
"284 71 LINE",
"355 71 LINE",
"355 142 LINE",
"284 142 LINE"
);
},
{
closed = 1;
nodes = (
"142 0 LINE",
"284 0 LINE",
"284 71 LINE",
"142 71 LINE"
);
},
{
closed = 1;
nodes = (
"142 71 LINE",
"142 142 LINE",
"71 142 LINE",
"71 213 LINE",
"0 213 LINE",
"0 0 LINE",
"71 0 LINE",
"71 71 LINE"
);
},
{
closed = 1;
nodes = (
"639 781 LINE",
"568 781 LINE",
"568 710 LINE",
"639 710 LINE"
);
},
{
closed = 1;
nodes = (
"568 852 LINE",
"497 852 LINE",
"497 781 LINE",
"568 781 LINE"
);
},
{
closed = 1;
nodes = (
"639 497 LINE",
"710 497 LINE",
"710 710 LINE",
"639 710 LINE"
);
},
{
closed = 1;
nodes = (
"639 426 LINE",
"639 497 LINE",
"568 497 LINE",
"568 426 LINE"
);
},
{
closed = 1;
nodes = (
"639 213 LINE",
"710 213 LINE",
"710 426 LINE",
"639 426 LINE"
);
},
{
closed = 1;
nodes = (
"639 142 LINE",
"639 213 LINE",
"568 213 LINE",
"568 142 LINE"
);
},
{
closed = 1;
nodes = (
"568 71 LINE",
"568 142 LINE",
"497 142 LINE",
"497 71 LINE"
);
},
{
closed = 1;
nodes = (
"426 923 LINE",
"426 852 LINE",
"497 852 LINE",
"497 923 LINE"
);
},
{
closed = 1;
nodes = (
"426 852 LINE",
"355 852 LINE",
"355 781 LINE",
"426 781 LINE"
);
},
{
closed = 1;
nodes = (
"355 852 LINE",
"355 923 LINE",
"0 923 LINE",
"0 781 LINE",
"71 781 LINE",
"71 852 LINE"
);
},
{
closed = 1;
nodes = (
"142 781 LINE",
"71 781 LINE",
"71 639 LINE",
"142 639 LINE"
);
},
{
closed = 1;
nodes = (
"0 639 LINE",
"0 497 LINE",
"71 497 LINE",
"71 639 LINE"
);
},
{
closed = 1;
nodes = (
"71 497 LINE",
"71 426 LINE",
"142 426 LINE",
"142 497 LINE"
);
},
{
closed = 1;
nodes = (
"0 426 LINE",
"0 284 LINE",
"71 284 LINE",
"71 426 LINE"
);
},
{
closed = 1;
nodes = (
"71 284 LINE",
"71 213 LINE",
"142 213 LINE",
"142 284 LINE"
);
}
);
width = 852;
}
);
unicode = 0044;
},
{
glyphname = E;
lastChange = "2021-11-04 14:31:26 +0000";
layers = (
{
layerId = "2B49945B-6CA5-4A57-AEE9-C94C760A1D53";
paths = (
{
closed = 1;
nodes = (
"639 0 LINE",
"639 71 LINE",
"71 71 LINE",
"71 426 LINE",
"568 426 LINE",
"568 497 LINE",
"71 497 LINE",
"71 852 LINE",
"639 852 LINE",
"639 923 LINE",
"0 923 LINE",
"0 0 LINE"
);
}
);
width = 781;
},
{
layerId = "D02270D2-0C41-4FF9-8B26-5AFAC61A3F8E";
paths = (
{
closed = 1;
nodes = (
"426 0 LINE",
"426 71 LINE",
"213 71 LINE",
"213 0 LINE"
);
},
{
closed = 1;
nodes = (
"213 71 LINE",
"213 142 LINE",
"71 142 LINE",
"71 497 LINE",
"142 497 LINE",
"142 568 LINE",
"71 568 LINE",
"71 639 LINE",
"0 639 LINE",
"0 0 LINE",
"71 0 LINE",
"71 71 LINE"
);
},
{
closed = 1;
nodes = (
"426 142 LINE",
"426 71 LINE",
"497 71 LINE",
"497 142 LINE"
);
},
{
closed = 1;
nodes = (
"639 0 LINE",
"639 71 LINE",
"497 71 LINE",
"497 0 LINE"
);
},
{
closed = 1;
nodes = (
"142 781 LINE",
"71 781 LINE",
"71 639 LINE",
"142 639 LINE"
);
},
{
closed = 1;
nodes = (
"284 426 LINE",
"284 497 LINE",
"142 497 LINE",
"142 426 LINE"
);
},
{
closed = 1;
nodes = (
"284 568 LINE",
"284 497 LINE",
"355 497 LINE",
"355 568 LINE"
);
},
{
closed = 1;
nodes = (
"426 497 LINE",
"355 497 LINE",
"355 426 LINE",
"426 426 LINE"
);
},
{
closed = 1;
nodes = (
"426 568 LINE",
"426 497 LINE",
"497 497 LINE",
"497 568 LINE"
);
},
{
closed = 1;
nodes = (
"568 497 LINE",
"497 497 LINE",
"497 426 LINE",
"568 426 LINE"
);
},
{
closed = 1;
nodes = (
"355 852 LINE",
"355 923 LINE",
"0 923 LINE",
"0 781 LINE",
"71 781 LINE",
"71 852 LINE"
);
},
{
closed = 1;
nodes = (
"426 852 LINE",
"355 852 LINE",
"355 781 LINE",
"426 781 LINE"
);
},
{
closed = 1;
nodes = (
"639 852 LINE",
"639 923 LINE",
"426 923 LINE",
"426 852 LINE"
);
}
);
width = 781;
}
);
unicode = 0045;
},
{
color = 11;
glyphname = Eacute;
lastChange = "2021-11-04 14:31:28 +0000";
layers = (
{
components = (
{
name = E;
}
);
layerId = "2B49945B-6CA5-4A57-AEE9-C94C760A1D53";
paths = (
{
closed = 1;
nodes = (
"284 994 LINE",
"284 1064 LINE",
"213 1064 LINE",
"213 994 LINE"
);
},
{
closed = 1;
nodes = (
"355 1064 LINE",
"355 1135 LINE",
"284 1135 LINE",
"284 1064 LINE"
);
},
{
closed = 1;
nodes = (
"426 1135 LINE",
"426 1206 LINE",
"355 1206 LINE",
"355 1135 LINE"
);
},
{
closed = 1;
nodes = (
"0 923 LINE",
"0 0 LINE",
"639 0 LINE",
"639 71 LINE",
"71 71 LINE",
"71 426 LINE",
"568 426 LINE",
"568 497 LINE",
"71 497 LINE",
"71 852 LINE",
"639 852 LINE",
"639 923 LINE"
);
}
);
width = 781;
},
{
layerId = "D02270D2-0C41-4FF9-8B26-5AFAC61A3F8E";
paths = (
{
closed = 1;
nodes = (
"284 994 LINE",
"284 1064 LINE",
"213 1064 LINE",
"213 994 LINE"
);
},
{
closed = 1;
nodes = (
"355 1064 LINE",
"355 1135 LINE",
"284 1135 LINE",
"284 1064 LINE"
);
},
{
closed = 1;
nodes = (
"426 1135 LINE",
"426 1206 LINE",
"355 1206 LINE",
"355 1135 LINE"
);
},
{
closed = 1;
nodes = (
"284 0 LINE",
"284 71 LINE",
"142 71 LINE",
"142 0 LINE"
);
},
{
closed = 1;
nodes = (
"426 142 LINE",
"284 142 LINE",
"284 71 LINE",
"426 71 LINE"
);
},
{
closed = 1;
nodes = (
"639 0 LINE",
"639 71 LINE",
"426 71 LINE",
"426 0 LINE"
);
},
{
closed = 1;
nodes = (
"142 710 LINE",
"71 710 LINE",
"71 639 LINE",
"142 639 LINE"
);
},
{
closed = 1;
nodes = (
"0 284 LINE",
"71 284 LINE",
"71 497 LINE",
"142 497 LINE",
"142 568 LINE",
"71 568 LINE",
"71 639 LINE",
"0 639 LINE"
);
},
{
closed = 1;
nodes = (
"284 426 LINE",
"284 497 LINE",
"142 497 LINE",
"142 426 LINE"
);
},
{
closed = 1;
nodes = (
"355 426 LINE",
"284 426 LINE",
"284 355 LINE",
"355 355 LINE"
);
},
{
closed = 1;
nodes = (
"355 497 LINE",
"355 426 LINE",
"426 426 LINE",
"426 497 LINE"
);
},
{
closed = 1;
nodes = (
"426 568 LINE",
"426 497 LINE",
"497 497 LINE",
"497 568 LINE"
);
},
{
closed = 1;
nodes = (
"568 497 LINE",
"497 497 LINE",
"497 426 LINE",
"568 426 LINE"
);
},
{
closed = 1;
nodes = (
"142 284 LINE",
"71 284 LINE",
"71 213 LINE",
"142 213 LINE"
);
},
{
closed = 1;
nodes = (
"0 0 LINE",
"71 0 LINE",
"71 71 LINE",
"142 71 LINE",
"142 142 LINE",
"71 142 LINE",
"71 213 LINE",
"0 213 LINE"
);
},
{
closed = 1;
nodes = (
"0 923 LINE",
"0 710 LINE",
"71 710 LINE",
"71 852 LINE",
"639 852 LINE",
"639 923 LINE"
);
}
);
width = 781;
}
);
unicode = 00C9;
},
{
color = 11;
glyphname = Ecircumflex;
lastChange = "2021-11-04 14:31:31 +0000";
layers = (
{
components = (
{
name = E;
}
);
layerId = "2B49945B-6CA5-4A57-AEE9-C94C760A1D53";
paths = (
{
closed = 1;
nodes = (
"497 1065 LINE",
"426 1065 LINE",
"426 994 LINE",
"497 994 LINE"
);
},
{
closed = 1;
nodes = (
"355 1065 LINE",
"426 1065 LINE",
"426 1136 LINE",
"355 1136 LINE"
);
},
{
closed = 1;
nodes = (
"284 1136 LINE",
"355 1136 LINE",
"355 1207 LINE",
"284 1207 LINE"
);
},
{
closed = 1;
nodes = (
"213 994 LINE",
"213 1065 LINE",
"142 1065 LINE",
"142 994 LINE"
);
},
{
closed = 1;
nodes = (
"284 1065 LINE",
"284 1136 LINE",
"213 1136 LINE",
"213 1065 LINE"
);
},
{
closed = 1;
nodes = (
"0 923 LINE",
"0 0 LINE",
"639 0 LINE",
"639 71 LINE",
"71 71 LINE",
"71 426 LINE",
"568 426 LINE",
"568 497 LINE",
"71 497 LINE",
"71 852 LINE",
"639 852 LINE",
"639 923 LINE"
);
}
);
width = 781;
},
{
layerId = "D02270D2-0C41-4FF9-8B26-5AFAC61A3F8E";
paths = (
{
closed = 1;
nodes = (
"497 1065 LINE",
"426 1065 LINE",
"426 994 LINE",
"497 994 LINE"
);
},
{
closed = 1;
nodes = (
"355 1065 LINE",
"426 1065 LINE",
"426 1136 LINE",
"355 1136 LINE"
);
},
{
closed = 1;
nodes = (
"284 1136 LINE",
"355 1136 LINE",
"355 1207 LINE",
"284 1207 LINE"
);
},
{
closed = 1;
nodes = (
"213 994 LINE",
"213 1065 LINE",
"142 1065 LINE",
"142 994 LINE"
);
},
{
closed = 1;
nodes = (
"284 1065 LINE",
"284 1136 LINE",
"213 1136 LINE",
"213 1065 LINE"
);
},
{
closed = 1;
nodes = (
"426 0 LINE",
"426 71 LINE",
"213 71 LINE",
"213 0 LINE"
);
},
{
closed = 1;
nodes = (
"426 142 LINE",
"426 71 LINE",
"497 71 LINE",
"497 142 LINE"
);
},
{
closed = 1;
nodes = (
"639 0 LINE",
"639 71 LINE",
"497 71 LINE",
"497 0 LINE"
);
},
{
closed = 1;
nodes = (
"142 639 LINE",
"142 781 LINE",
"71 781 LINE",
"71 639 LINE"
);
},
{
closed = 1;
nodes = (
"0 0 LINE",
"71 0 LINE",
"71 71 LINE",
"213 71 LINE",
"213 142 LINE",
"71 142 LINE",
"71 497 LINE",
"142 497 LINE",
"142 568 LINE",
"71 568 LINE",
"71 639 LINE",
"0 639 LINE"
);
},
{
closed = 1;
nodes = (
"284 426 LINE",
"284 497 LINE",
"142 497 LINE",
"142 426 LINE"
);
},
{
closed = 1;
nodes = (
"284 568 LINE",
"284 497 LINE",
"355 497 LINE",
"355 568 LINE"
);
},
{
closed = 1;
nodes = (
"426 497 LINE",
"355 497 LINE",
"355 426 LINE",
"426 426 LINE"
);
},
{
closed = 1;
nodes = (
"426 568 LINE",
"426 497 LINE",
"497 497 LINE",
"497 568 LINE"
);
},
{
closed = 1;
nodes = (
"568 497 LINE",
"497 497 LINE",
"497 426 LINE",
"568 426 LINE"
);
},
{
closed = 1;
nodes = (
"0 923 LINE",
"0 781 LINE",
"71 781 LINE",
"71 852 LINE",
"355 852 LINE",
"355 923 LINE"
);
},
{
closed = 1;
nodes = (
"426 781 LINE",
"426 852 LINE",
"355 852 LINE",
"355 781 LINE"
);
},
{
closed = 1;
nodes = (
"426 923 LINE",
"426 852 LINE",
"639 852 LINE",
"639 923 LINE"
);
}
);
width = 781;
}
);
unicode = 00CA;
},
{
color = 11;
glyphname = Edieresis;
lastChange = "2021-11-04 14:31:33 +0000";
layers = (
{
components = (
{
name = E;
}
);
layerId = "2B49945B-6CA5-4A57-AEE9-C94C760A1D53";
paths = (
{
closed = 1;
nodes = (
"426 1065 LINE",
"426 994 LINE",
"497 994 LINE",
"497 1065 LINE"
);
},
{
closed = 1;
nodes = (
"213 994 LINE",
"213 1065 LINE",
"142 1065 LINE",
"142 994 LINE"
);
},
{
closed = 1;
nodes = (
"0 923 LINE",
"0 0 LINE",
"639 0 LINE",
"639 71 LINE",
"71 71 LINE",
"71 426 LINE",
"568 426 LINE",
"568 497 LINE",
"71 497 LINE",
"71 852 LINE",
"639 852 LINE",
"639 923 LINE"
);
}
);
width = 781;
},
{
layerId = "D02270D2-0C41-4FF9-8B26-5AFAC61A3F8E";
paths = (
{
closed = 1;
nodes = (
"426 1065 LINE",
"426 994 LINE",
"497 994 LINE",
"497 1065 LINE"
);
},
{
closed = 1;
nodes = (
"213 994 LINE",
"213 1065 LINE",
"142 1065 LINE",
"142 994 LINE"
);
},
{
closed = 1;
nodes = (
"355 0 LINE",
"355 71 LINE",
"71 71 LINE",
"71 426 LINE",
"213 426 LINE",
"213 497 LINE",
"142 497 LINE",
"142 568 LINE",
"71 568 LINE",
"71 497 LINE",
"0 497 LINE",
"0 0 LINE"
);
},
{
closed = 1;
nodes = (
"355 142 LINE",
"355 71 LINE",
"426 71 LINE",
"426 142 LINE"
);
},
{
closed = 1;
nodes = (
"639 0 LINE",
"639 71 LINE",
"426 71 LINE",
"426 0 LINE"
);
},
{
closed = 1;
nodes = (
"213 852 LINE",
"213 923 LINE",
"0 923 LINE",
"0 852 LINE",
"71 852 LINE",
"71 781 LINE",
"142 781 LINE",
"142 852 LINE"
);
},
{
closed = 1;
nodes = (
"71 781 LINE",
"0 781 LINE",
"0 568 LINE",
"71 568 LINE"
);
},
{
closed = 1;
nodes = (
"213 568 LINE",
"213 497 LINE",
"284 497 LINE",
"284 568 LINE"
);
},
{
closed = 1;
nodes = (
"355 497 LINE",
"284 497 LINE",
"284 426 LINE",
"355 426 LINE"
);
},
{
closed = 1;
nodes = (
"497 568 LINE",
"355 568 LINE",
"355 497 LINE",
"497 497 LINE"
);
},
{
closed = 1;
nodes = (
"568 497 LINE",
"497 497 LINE",
"497 426 LINE",
"568 426 LINE"
);
},
{
closed = 1;
nodes = (
"284 852 LINE",
"213 852 LINE",
"213 781 LINE",
"284 781 LINE"
);
},
{
closed = 1;
nodes = (
"426 923 LINE",
"284 923 LINE",
"284 852 LINE",
"426 852 LINE"
);
},
{
closed = 1;
nodes = (
"497 852 LINE",
"426 852 LINE",
"426 781 LINE",
"497 781 LINE"
);
},
{
closed = 1;
nodes = (
"639 923 LINE",
"497 923 LINE",
"497 852 LINE",
"639 852 LINE"
);
}
);
width = 781;
}
);
unicode = 00CB;
},
{
color = 11;
glyphname = Egrave;
lastChange = "2021-11-04 14:31:36 +0000";
layers = (
{
components = (
{
name = E;
}
);
layerId = "2B49945B-6CA5-4A57-AEE9-C94C760A1D53";
paths = (
{
closed = 1;
nodes = (
"426 1065 LINE",
"355 1065 LINE",
"355 994 LINE",
"426 994 LINE"
);
},
{
closed = 1;
nodes = (
"284 1065 LINE",
"355 1065 LINE",
"355 1136 LINE",
"284 1136 LINE"
);
},
{
closed = 1;
nodes = (
"213 1136 LINE",
"284 1136 LINE",
"284 1207 LINE",
"213 1207 LINE"
);
},
{
closed = 1;
nodes = (
"0 923 LINE",
"0 0 LINE",
"639 0 LINE",
"639 71 LINE",
"71 71 LINE",
"71 426 LINE",
"568 426 LINE",
"568 497 LINE",
"71 497 LINE",
"71 852 LINE",
"639 852 LINE",
"639 923 LINE"
);
}
);
width = 781;
},
{
layerId = "D02270D2-0C41-4FF9-8B26-5AFAC61A3F8E";
paths = (
{
closed = 1;
nodes = (
"426 1065 LINE",
"355 1065 LINE",
"355 994 LINE",
"426 994 LINE"
);
},
{
closed = 1;
nodes = (
"284 1065 LINE",
"355 1065 LINE",
"355 1136 LINE",
"284 1136 LINE"
);
},
{
closed = 1;
nodes = (
"213 1136 LINE",
"284 1136 LINE",
"284 1207 LINE",
"213 1207 LINE"
);
},
{
closed = 1;
nodes = (
"497 142 LINE",
"355 142 LINE",
"355 71 LINE",
"497 71 LINE"
);
},
{
closed = 1;
nodes = (
"639 0 LINE",
"639 71 LINE",
"497 71 LINE",
"497 0 LINE"
);
},
{
closed = 1;
nodes = (
"355 568 LINE",
"213 568 LINE",
"213 497 LINE",
"355 497 LINE"
);
},
{
closed = 1;
nodes = (
"497 426 LINE",
"497 497 LINE",
"355 497 LINE",
"355 426 LINE"
);
},
{
closed = 1;
nodes = (
"497 568 LINE",
"497 497 LINE",
"568 497 LINE",
"568 568 LINE"
);
},
{
closed = 1;
nodes = (
"71 284 LINE",
"71 355 LINE",
"0 355 LINE",
"0 284 LINE"
);
},
{
closed = 1;
nodes = (
"142 284 LINE",
"71 284 LINE",
"71 213 LINE",
"142 213 LINE"
);
},
{
closed = 1;
nodes = (
"0 0 LINE",
"355 0 LINE",
"355 71 LINE",
"71 71 LINE",
"71 213 LINE",
"0 213 LINE"
);
},
{
closed = 1;
nodes = (
"0 923 LINE",
"0 426 LINE",
"71 426 LINE",
"71 355 LINE",
"142 355 LINE",
"142 426 LINE",
"213 426 LINE",
"213 497 LINE",
"71 497 LINE",
"71 852 LINE",
"355 852 LINE",
"355 923 LINE"
);
},
{
closed = 1;
nodes = (
"426 781 LINE",
"426 852 LINE",
"355 852 LINE",
"355 781 LINE"
);
},
{
closed = 1;
nodes = (
"426 923 LINE",
"426 852 LINE",
"639 852 LINE",
"639 923 LINE"
);
}
);
width = 781;
}
);
unicode = 00C8;
},
{
glyphname = F;
lastChange = "2021-11-04 14:31:40 +0000";
layers = (
{
layerId = "2B49945B-6CA5-4A57-AEE9-C94C760A1D53";
paths = (
{
closed = 1;
nodes = (
"0 923 LINE",
"0 0 LINE",
"71 0 LINE",
"71 426 LINE",
"568 426 LINE",
"568 497 LINE",
"71 497 LINE",
"71 852 LINE",
"639 852 LINE",
"639 923 LINE"
);
}
);
width = 781;
},
{
layerId = "D02270D2-0C41-4FF9-8B26-5AFAC61A3F8E";
paths = (
{
closed = 1;
nodes = (
"213 568 LINE",
"213 497 LINE",
"284 497 LINE",
"284 568 LINE"
);
},
{
closed = 1;
nodes = (
"355 497 LINE",
"284 497 LINE",
"284 426 LINE",
"355 426 LINE"
);
},
{
closed = 1;
nodes = (
"426 426 LINE",
"355 426 LINE",
"355 355 LINE",
"426 355 LINE"
);
},
{
closed = 1;
nodes = (
"568 497 LINE",
"426 497 LINE",
"426 426 LINE",
"568 426 LINE"
);
},
{
closed = 1;
nodes = (
"0 923 LINE",
"0 639 LINE",
"71 639 LINE",
"71 852 LINE",
"213 852 LINE",
"213 923 LINE"
);
},
{
closed = 1;
nodes = (
"0 497 LINE",
"0 284 LINE",
"71 284 LINE",
"71 426 LINE",
"213 426 LINE",
"213 497 LINE",
"142 497 LINE",
"142 639 LINE",
"71 639 LINE",
"71 497 LINE"
);
},
{
closed = 1;
nodes = (
"142 284 LINE",
"71 284 LINE",
"71 213 LINE",
"142 213 LINE"
);
},
{
closed = 1;
nodes = (
"0 0 LINE",
"71 0 LINE",
"71 213 LINE",
"0 213 LINE"
);
},
{
closed = 1;
nodes = (
"284 781 LINE",
"284 852 LINE",
"213 852 LINE",
"213 781 LINE"
);
},
{
closed = 1;
nodes = (
"284 923 LINE",
"284 852 LINE",
"639 852 LINE",
"639 923 LINE"
);
}
);
width = 781;
}
);
unicode = 0046;
},
{
glyphname = G;
lastChange = "2021-11-04 14:31:43 +0000";
layers = (
{
layerId = "2B49945B-6CA5-4A57-AEE9-C94C760A1D53";
paths = (
{
closed = 1;
nodes = (
"213 71 LINE",
"213 0 LINE",
"568 0 LINE",
"568 71 LINE"
);
},
{
closed = 1;
nodes = (
"71 781 LINE",
"71 710 LINE",
"142 710 LINE",
"142 781 LINE"
);
},
{
closed = 1;
nodes = (
"142 852 LINE",
"142 781 LINE",
"213 781 LINE",
"213 852 LINE"
);
},
{
closed = 1;
nodes = (
"71 710 LINE",
"0 710 LINE",
"0 213 LINE",
"71 213 LINE"
);
},
{
closed = 1;
nodes = (
"71 142 LINE",
"142 142 LINE",
"142 213 LINE",
"71 213 LINE"
);
},
{
closed = 1;
nodes = (
"142 71 LINE",
"213 71 LINE",
"213 142 LINE",
"142 142 LINE"
);
},
{
closed = 1;
nodes = (
"710 213 LINE",
"781 213 LINE",
"781 426 LINE",
"710 426 LINE"
);
},
{
closed = 1;
nodes = (
"355 497 LINE",
"355 426 LINE",
"710 426 LINE",
"710 497 LINE"
);
},
{
closed = 1;
nodes = (
"639 71 LINE",
"639 142 LINE",
"568 142 LINE",
"568 71 LINE"
);
},
{
closed = 1;
nodes = (
"710 142 LINE",
"710 213 LINE",
"639 213 LINE",
"639 142 LINE"
);
},
{
closed = 1;
nodes = (
"568 852 LINE",
"568 923 LINE",
"213 923 LINE",
"213 852 LINE"
);
},
{
closed = 1;
nodes = (
"639 852 LINE",
"568 852 LINE",
"568 781 LINE",
"639 781 LINE"
);
},
{
closed = 1;
nodes = (
"710 781 LINE",
"639 781 LINE",
"639 710 LINE",
"710 710 LINE"
);
}
);
width = 923;
},
{
layerId = "D02270D2-0C41-4FF9-8B26-5AFAC61A3F8E";
paths = (
{
closed = 1;
nodes = (
"213 0 LINE",
"355 0 LINE",
"355 71 LINE",
"213 71 LINE"
);
},
{
closed = 1;
nodes = (
"355 71 LINE",
"426 71 LINE",
"426 142 LINE",
"355 142 LINE"
);
},
{
closed = 1;
nodes = (
"426 0 LINE",
"568 0 LINE",
"568 71 LINE",
"426 71 LINE"
);
},
{
closed = 1;
nodes = (
"71 781 LINE",
"71 710 LINE",
"142 710 LINE",
"142 781 LINE"
);
},
{
closed = 1;
nodes = (
"142 852 LINE",
"142 781 LINE",
"213 781 LINE",
"213 852 LINE"
);
},
{
closed = 1;
nodes = (
"71 710 LINE",
"0 710 LINE",
"0 426 LINE",
"71 426 LINE"
);
},
{
closed = 1;
nodes = (
"142 426 LINE",
"71 426 LINE",
"71 142 LINE",
"142 142 LINE"
);
},
{
closed = 1;
nodes = (
"142 71 LINE",
"213 71 LINE",
"213 142 LINE",
"142 142 LINE"
);
},
{
closed = 1;
nodes = (
"710 213 LINE",
"781 213 LINE",
"781 426 LINE",
"710 426 LINE"
);
},
{
closed = 1;
nodes = (
"568 497 LINE",
"568 426 LINE",
"710 426 LINE",
"710 497 LINE"
);
},
{
closed = 1;
nodes = (
"497 497 LINE",
"568 497 LINE",
"568 568 LINE",
"497 568 LINE"
);
},
{
closed = 1;
nodes = (
"497 426 LINE",
"497 497 LINE",
"426 497 LINE",
"426 426 LINE"
);
},
{
closed = 1;
nodes = (
"426 355 LINE",
"426 426 LINE",
"355 426 LINE",
"355 355 LINE"
);
},
{
closed = 1;
nodes = (
"639 71 LINE",
"639 142 LINE",
"568 142 LINE",
"568 71 LINE"
);
},
{
closed = 1;
nodes = (
"710 142 LINE",
"710 213 LINE",
"639 213 LINE",
"639 142 LINE"
);
},
{
closed = 1;
nodes = (
"426 852 LINE",
"426 923 LINE",
"213 923 LINE",
"213 852 LINE"
);
},
{
closed = 1;
nodes = (
"497 852 LINE",
"426 852 LINE",
"426 781 LINE",
"497 781 LINE"
);
},
{
closed = 1;
nodes = (
"497 923 LINE",
"497 852 LINE",
"568 852 LINE",
"568 923 LINE"
);
},
{
closed = 1;
nodes = (
"639 852 LINE",
"568 852 LINE",
"568 781 LINE",
"639 781 LINE"
);
},
{
closed = 1;
nodes = (
"710 781 LINE",
"639 781 LINE",
"639 710 LINE",
"710 710 LINE"
);
}
);
width = 923;
}
);
unicode = 0047;
},
{
glyphname = H;
lastChange = "2021-11-04 14:31:45 +0000";
layers = (
{
layerId = "2B49945B-6CA5-4A57-AEE9-C94C760A1D53";
paths = (
{
closed = 1;
nodes = (
"639 497 LINE",
"71 497 LINE",
"71 923 LINE",
"0 923 LINE",
"0 0 LINE",
"71 0 LINE",
"71 426 LINE",
"639 426 LINE",
"639 0 LINE",
"710 0 LINE",
"710 923 LINE",
"639 923 LINE"
);
}
);
width = 852;
},
{
layerId = "D02270D2-0C41-4FF9-8B26-5AFAC61A3F8E";
paths = (
{
closed = 1;
nodes = (
"71 568 LINE",
"0 568 LINE",
"0 426 LINE",
"71 426 LINE",
"71 355 LINE",
"142 355 LINE",
"142 426 LINE",
"213 426 LINE",
"213 497 LINE",
"71 497 LINE"
);
},
{
closed = 1;
nodes = (
"213 497 LINE",
"284 497 LINE",
"284 568 LINE",
"213 568 LINE"
);
},
{
closed = 1;
nodes = (
"284 426 LINE",
"355 426 LINE",
"355 497 LINE",
"284 497 LINE"
);
},
{
closed = 1;
nodes = (
"426 426 LINE",
"426 497 LINE",
"355 497 LINE",
"355 426 LINE"
);
},
{
closed = 1;
nodes = (
"426 497 LINE",
"497 497 LINE",
"497 568 LINE",
"426 568 LINE"
);
},
{
closed = 1;
nodes = (
"0 639 LINE",
"71 639 LINE",
"71 710 LINE",
"0 710 LINE"
);
},
{
closed = 1;
nodes = (
"71 781 LINE",
"71 710 LINE",
"142 710 LINE",
"142 781 LINE"
);
},
{
closed = 1;
nodes = (
"0 923 LINE",
"0 781 LINE",
"71 781 LINE",
"71 923 LINE"
);
},
{
closed = 1;
nodes = (
"71 639 LINE",
"71 568 LINE",
"142 568 LINE",
"142 639 LINE"
);
},
{
closed = 1;
nodes = (
"0 0 LINE",
"71 0 LINE",
"71 355 LINE",
"0 355 LINE"
);
},
{
closed = 1;
nodes = (
"568 710 LINE",
"568 781 LINE",
"497 781 LINE",
"497 710 LINE"
);
},
{
closed = 1;
nodes = (
"568 781 LINE",
"639 781 LINE",
"639 923 LINE",
"568 923 LINE"
);
},
{
closed = 1;
nodes = (
"568 497 LINE",
"497 497 LINE",
"497 426 LINE",
"568 426 LINE",
"568 284 LINE",
"639 284 LINE",
"639 710 LINE",
"568 710 LINE"
);
},
{
closed = 1;
nodes = (
"497 142 LINE",
"568 142 LINE",
"568 284 LINE",
"497 284 LINE"
);
},
{
closed = 1;
nodes = (
"639 0 LINE",
"639 142 LINE",
"568 142 LINE",
"568 0 LINE"
);
}
);
width = 781;
}
);
unicode = 0048;
},
{
glyphname = I;
lastChange = "2021-11-04 14:31:49 +0000";
layers = (
{
layerId = "2B49945B-6CA5-4A57-AEE9-C94C760A1D53";
paths = (
{
closed = 1;
nodes = (
"71 0 LINE",
"71 923 LINE",
"0 923 LINE",
"0 0 LINE"
);
}
);
width = 213;
},
{
layerId = "D02270D2-0C41-4FF9-8B26-5AFAC61A3F8E";
paths = (
{
closed = 1;
nodes = (
"142 71 LINE",
"71 71 LINE",
"71 0 LINE",
"142 0 LINE"
);
},
{
closed = 1;
nodes = (
"71 639 LINE",
"142 639 LINE",
"142 710 LINE",
"71 710 LINE"
);
},
{
closed = 1;
nodes = (
"0 710 LINE",
"71 710 LINE",
"71 781 LINE",
"0 781 LINE"
);
},
{
closed = 1;
nodes = (
"142 923 LINE",
"71 923 LINE",
"71 781 LINE",
"142 781 LINE"
);
},
{
closed = 1;
nodes = (
"142 568 LINE",
"213 568 LINE",
"213 639 LINE",
"142 639 LINE"
);
},
{
closed = 1;
nodes = (
"71 142 LINE",
"142 142 LINE",
"142 568 LINE",
"71 568 LINE"
);
},
{
closed = 1;
nodes = (
"71 71 LINE",
"71 142 LINE",
"0 142 LINE",
"0 71 LINE"
);
}
);
width = 355;
}
);
unicode = 0049;
},
{
color = 11;
glyphname = Icircumflex;
lastChange = "2021-11-04 14:32:43 +0000";
layers = (
{
components = (
{
name = I;
}
);
layerId = "2B49945B-6CA5-4A57-AEE9-C94C760A1D53";
paths = (
{
closed = 1;
nodes = (
"213 1065 LINE",
"142 1065 LINE",
"142 994 LINE",
"213 994 LINE"
);
},
{
closed = 1;
nodes = (
"142 1136 LINE",
"71 1136 LINE",
"71 1065 LINE",
"142 1065 LINE"
);
},
{
closed = 1;
nodes = (
"0 1207 LINE",
"0 1136 LINE",
"71 1136 LINE",
"71 1207 LINE"
);
},
{
closed = 1;
nodes = (
"-142 1065 LINE",
"-142 994 LINE",
"-71 994 LINE",
"-71 1065 LINE"
);
},
{
closed = 1;
nodes = (
"-71 1136 LINE",
"-71 1065 LINE",
"0 1065 LINE",
"0 1136 LINE"
);
},
{
closed = 1;
nodes = (
"71 0 LINE",
"71 923 LINE",
"0 923 LINE",
"0 0 LINE"
);
}
);
width = 355;
},
{
layerId = "D02270D2-0C41-4FF9-8B26-5AFAC61A3F8E";
paths = (
{
closed = 1;
nodes = (
"213 1065 LINE",
"142 1065 LINE",
"142 994 LINE",
"213 994 LINE"
);
},
{
closed = 1;
nodes = (
"142 1136 LINE",
"71 1136 LINE",
"71 1065 LINE",
"142 1065 LINE"
);
},
{
closed = 1;
nodes = (
"0 1207 LINE",
"0 1136 LINE",
"71 1136 LINE",
"71 1207 LINE"
);
},
{
closed = 1;
nodes = (
"-142 1065 LINE",
"-142 994 LINE",
"-71 994 LINE",
"-71 1065 LINE"
);
},
{
closed = 1;
nodes = (
"-71 1136 LINE",
"-71 1065 LINE",
"0 1065 LINE",
"0 1136 LINE"
);
},
{
closed = 1;
nodes = (
"0 923 LINE",
"0 781 LINE",
"71 781 LINE",
"71 923 LINE"
);
},
{
closed = 1;
nodes = (
"0 355 LINE",
"71 355 LINE",
"71 710 LINE",
"0 710 LINE"
);
},
{
closed = 1;
nodes = (
"142 710 LINE",
"142 781 LINE",
"71 781 LINE",
"71 710 LINE"
);
},
{
closed = 1;
nodes = (
"-71 213 LINE",
"0 213 LINE",
"0 355 LINE",
"-71 355 LINE"
);
},
{
closed = 1;
nodes = (
"0 0 LINE",
"71 0 LINE",
"71 213 LINE",
"0 213 LINE"
);
}
);
width = 355;
}
);
unicode = 00CE;
},
{
color = 11;
glyphname = Idieresis;
lastChange = "2021-11-04 14:32:48 +0000";
layers = (
{
components = (
{
name = I;
}
);
layerId = "2B49945B-6CA5-4A57-AEE9-C94C760A1D53";
paths = (
{
closed = 1;
nodes = (
"213 994 LINE",
"213 1065 LINE",
"142 1065 LINE",
"142 994 LINE"
);
},
{
closed = 1;
nodes = (
"-142 1065 LINE",
"-142 994 LINE",
"-71 994 LINE",
"-71 1065 LINE"
);
},
{
closed = 1;
nodes = (
"71 0 LINE",
"71 923 LINE",
"0 923 LINE",
"0 0 LINE"
);
}
);
width = 355;
},
{
layerId = "D02270D2-0C41-4FF9-8B26-5AFAC61A3F8E";
paths = (
{
closed = 1;
nodes = (
"213 994 LINE",
"213 1065 LINE",
"142 1065 LINE",
"142 994 LINE"
);
},
{
closed = 1;
nodes = (
"-142 1065 LINE",
"-142 994 LINE",
"-71 994 LINE",
"-71 1065 LINE"
);
},
{
closed = 1;
nodes = (
"-71 852 LINE",
"0 852 LINE",
"0 923 LINE",
"-71 923 LINE"
);
},
{
closed = 1;
nodes = (
"71 71 LINE",
"0 71 LINE",
"0 0 LINE",
"71 0 LINE"
);
},
{
closed = 1;
nodes = (
"71 852 LINE",
"0 852 LINE",
"0 426 LINE",
"71 426 LINE"
);
},
{
closed = 1;
nodes = (
"142 355 LINE",
"142 426 LINE",
"71 426 LINE",
"71 355 LINE"
);
},
{
closed = 1;
nodes = (
"71 284 LINE",
"71 355 LINE",
"0 355 LINE",
"0 284 LINE"
);
},
{
closed = 1;
nodes = (
"142 284 LINE",
"71 284 LINE",
"71 213 LINE",
"142 213 LINE"
);
},
{
closed = 1;
nodes = (
"71 142 LINE",
"71 213 LINE",
"0 213 LINE",
"0 142 LINE"
);
},
{
closed = 1;
nodes = (
"0 71 LINE",
"0 142 LINE",
"-71 142 LINE",
"-71 71 LINE"
);
}
);
width = 355;
}
);
unicode = 00CF;
},
{
glyphname = J;
lastChange = "2021-11-04 14:32:52 +0000";
layers = (
{
layerId = "2B49945B-6CA5-4A57-AEE9-C94C760A1D53";
paths = (
{
closed = 1;
nodes = (
"284 142 LINE",
"284 71 LINE",
"355 71 LINE",
"355 142 LINE"
);
},
{
closed = 1;
nodes = (
"284 0 LINE",
"284 71 LINE",
"142 71 LINE",
"142 0 LINE"
);
},
{
closed = 1;
nodes = (
"142 142 LINE",
"71 142 LINE",
"71 71 LINE",
"142 71 LINE"
);
},
{
closed = 1;
nodes = (
"71 284 LINE",
"0 284 LINE",
"0 142 LINE",
"71 142 LINE"
);
},
{
closed = 1;
nodes = (
"426 923 LINE",
"355 923 LINE",
"355 142 LINE",
"426 142 LINE"
);
}
);
width = 568;
},
{
layerId = "D02270D2-0C41-4FF9-8B26-5AFAC61A3F8E";
paths = (
{
closed = 1;
nodes = (
"426 639 LINE",
"355 639 LINE",
"355 426 LINE",
"426 426 LINE"
);
},
{
closed = 1;
nodes = (
"284 355 LINE",
"355 355 LINE",
"355 426 LINE",
"284 426 LINE"
);
},
{
closed = 1;
nodes = (
"284 781 LINE",
"284 639 LINE",
"355 639 LINE",
"355 781 LINE"
);
},
{
closed = 1;
nodes = (
"355 852 LINE",
"355 781 LINE",
"426 781 LINE",
"426 852 LINE"
);
},
{
closed = 1;
nodes = (
"284 852 LINE",
"355 852 LINE",
"355 923 LINE",
"284 923 LINE"
);
},
{
closed = 1;
nodes = (
"284 142 LINE",
"284 71 LINE",
"355 71 LINE",
"355 142 LINE"
);
},
{
closed = 1;
nodes = (
"284 0 LINE",
"284 71 LINE",
"142 71 LINE",
"142 0 LINE"
);
},
{
closed = 1;
nodes = (
"142 142 LINE",
"71 142 LINE",
"71 71 LINE",
"142 71 LINE"
);
},
{
closed = 1;
nodes = (
"0 213 LINE",
"0 142 LINE",
"71 142 LINE",
"71 213 LINE"
);
},
{
closed = 1;
nodes = (
"71 284 LINE",
"71 213 LINE",
"142 213 LINE",
"142 284 LINE"
);
},
{
closed = 1;
nodes = (
"426 355 LINE",
"355 355 LINE",
"355 142 LINE",
"426 142 LINE"
);
}
);
width = 568;
}
);
unicode = 004A;
},
{
glyphname = K;
lastChange = "2021-11-04 14:32:54 +0000";
layers = (
{
layerId = "2B49945B-6CA5-4A57-AEE9-C94C760A1D53";
paths = (
{
closed = 1;
nodes = (
"284 426 LINE",
"213 426 LINE",
"213 355 LINE",
"284 355 LINE"
);
},
{
closed = 1;
nodes = (
"355 355 LINE",
"284 355 LINE",
"284 284 LINE",
"355 284 LINE"
);
},
{
closed = 1;
nodes = (
"426 284 LINE",
"355 284 LINE",
"355 213 LINE",
"426 213 LINE"
);
},
{
closed = 1;
nodes = (
"497 71 LINE",
"497 213 LINE",
"426 213 LINE",
"426 71 LINE"
);
},
{
closed = 1;
nodes = (
"568 71 LINE",
"497 71 LINE",
"497 0 LINE",
"568 0 LINE"
);
},
{
closed = 1;
nodes = (
"71 497 LINE",
"71 923 LINE",
"0 923 LINE",
"0 0 LINE",
"71 0 LINE",
"71 426 LINE",
"213 426 LINE",
"213 497 LINE"
);
},
{
closed = 1;
nodes = (
"284 639 LINE",
"284 568 LINE",
"355 568 LINE",
"355 639 LINE"
);
},
{
closed = 1;
nodes = (
"213 568 LINE",
"213 497 LINE",
"284 497 LINE",
"284 568 LINE"
);
},
{
closed = 1;
nodes = (
"355 710 LINE",
"355 639 LINE",
"426 639 LINE",
"426 710 LINE"
);
},
{
closed = 1;
nodes = (
"497 852 LINE",
"426 852 LINE",
"426 710 LINE",
"497 710 LINE"
);
},
{
closed = 1;
nodes = (
"497 923 LINE",
"497 852 LINE",
"568 852 LINE",
"568 923 LINE"
);
}
);
width = 710;
},
{
layerId = "D02270D2-0C41-4FF9-8B26-5AFAC61A3F8E";
paths = (
{
closed = 1;
nodes = (
"213 284 LINE",
"284 284 LINE",
"284 355 LINE",
"213 355 LINE"
);
},
{
closed = 1;
nodes = (
"284 213 LINE",
"355 213 LINE",
"355 284 LINE",
"284 284 LINE"
);
},
{
closed = 1;
nodes = (
"355 142 LINE",
"426 142 LINE",
"426 213 LINE",
"355 213 LINE"
);
},
{
closed = 1;
nodes = (
"426 71 LINE",
"497 71 LINE",
"497 142 LINE",
"426 142 LINE"
);
},
{
closed = 1;
nodes = (
"568 71 LINE",
"497 71 LINE",
"497 0 LINE",
"568 0 LINE"
);
},
{
closed = 1;
nodes = (
"213 639 LINE",
"213 568 LINE",
"284 568 LINE",
"284 639 LINE"
);
},
{
closed = 1;
nodes = (
"426 710 LINE",
"284 710 LINE",
"284 639 LINE",
"426 639 LINE"
);
},
{
closed = 1;
nodes = (
"497 781 LINE",
"497 852 LINE",
"426 852 LINE",
"426 781 LINE"
);
},
{
closed = 1;
nodes = (
"497 923 LINE",
"497 852 LINE",
"568 852 LINE",
"568 923 LINE"
);
},
{
closed = 1;
nodes = (
"71 426 LINE",
"213 426 LINE",
"213 497 LINE",
"213 568 LINE",
"142 568 LINE",
"142 497 LINE",
"71 497 LINE",
"71 710 LINE",
"0 710 LINE",
"0 142 LINE",
"71 142 LINE"
);
},
{
closed = 1;
nodes = (
"142 852 LINE",
"71 852 LINE",
"71 710 LINE",
"142 710 LINE"
);
},
{
closed = 1;
nodes = (
"0 852 LINE",
"71 852 LINE",
"71 923 LINE",
"0 923 LINE"
);
},
{
closed = 1;
nodes = (
"71 142 LINE",
"71 71 LINE",
"142 71 LINE",
"142 142 LINE"
);
},
{
closed = 1;
nodes = (
"0 71 LINE",
"0 0 LINE",
"71 0 LINE",
"71 71 LINE"
);
}
);
width = 710;
}
);
unicode = 004B;
},
{
glyphname = L;
lastChange = "2021-11-04 14:32:57 +0000";
layers = (
{
layerId = "2B49945B-6CA5-4A57-AEE9-C94C760A1D53";
paths = (
{
closed = 1;
nodes = (
"568 0 LINE",
"568 71 LINE",
"71 71 LINE",
"71 923 LINE",
"0 923 LINE",
"0 0 LINE"
);
}
);
width = 710;
},
{
layerId = "D02270D2-0C41-4FF9-8B26-5AFAC61A3F8E";
paths = (
{
closed = 1;
nodes = (
"71 355 LINE",
"0 355 LINE",
"0 142 LINE",
"71 142 LINE"
);
},
{
closed = 1;
nodes = (
"0 426 LINE",
"71 426 LINE",
"71 497 LINE",
"0 497 LINE"
);
},
{
closed = 1;
nodes = (
"71 426 LINE",
"71 355 LINE",
"142 355 LINE",
"142 426 LINE"
);
},
{
closed = 1;
nodes = (
"71 568 LINE",
"71 497 LINE",
"142 497 LINE",
"142 568 LINE"
);
},
{
closed = 1;
nodes = (
"0 710 LINE",
"0 568 LINE",
"71 568 LINE",
"71 710 LINE"
);
},
{
closed = 1;
nodes = (
"71 781 LINE",
"71 710 LINE",
"142 710 LINE",
"142 781 LINE"
);
},
{
closed = 1;
nodes = (
"0 923 LINE",
"0 781 LINE",
"71 781 LINE",
"71 923 LINE"
);
},
{
closed = 1;
nodes = (
"568 0 LINE",
"568 71 LINE",
"142 71 LINE",
"142 142 LINE",
"71 142 LINE",
"71 71 LINE",
"0 71 LINE",
"0 0 LINE"
);
}
);
width = 710;
}
);
unicode = 004C;
},
{
glyphname = M;
lastChange = "2021-11-04 14:32:59 +0000";
layers = (
{
layerId = "2B49945B-6CA5-4A57-AEE9-C94C760A1D53";
paths = (
{
closed = 1;
nodes = (
"426 0 LINE",
"497 0 LINE",
"497 142 LINE",
"426 142 LINE"
);
},
{
closed = 1;
nodes = (
"355 284 LINE",
"355 142 LINE",
"426 142 LINE",
"426 284 LINE"
);
},
{
closed = 1;
nodes = (
"497 142 LINE",
"568 142 LINE",
"568 284 LINE",
"497 284 LINE"
);
},
{
closed = 1;
nodes = (
"284 426 LINE",
"284 284 LINE",
"355 284 LINE",
"355 426 LINE"
);
},
{
closed = 1;
nodes = (
"213 568 LINE",
"213 426 LINE",
"284 426 LINE",
"284 568 LINE"
);
},
{
closed = 1;
nodes = (
"142 710 LINE",
"142 568 LINE",
"213 568 LINE",
"213 710 LINE"
);
},
{
closed = 1;
nodes = (
"71 852 LINE",
"71 923 LINE",
"0 923 LINE",
"0 0 LINE",
"71 0 LINE",
"71 710 LINE",
"142 710 LINE",
"142 852 LINE"
);
},
{
closed = 1;
nodes = (
"568 284 LINE",
"639 284 LINE",
"639 426 LINE",
"568 426 LINE"
);
},
{
closed = 1;
nodes = (
"639 426 LINE",
"710 426 LINE",
"710 568 LINE",
"639 568 LINE"
);
},
{
closed = 1;
nodes = (
"710 568 LINE",
"781 568 LINE",
"781 710 LINE",
"710 710 LINE"
);
},
{
closed = 1;
nodes = (
"781 852 LINE",
"781 710 LINE",
"852 710 LINE",
"852 0 LINE",
"923 0 LINE",
"923 923 LINE",
"852 923 LINE",
"852 852 LINE"
);
}
);
width = 1065;
},
{
layerId = "D02270D2-0C41-4FF9-8B26-5AFAC61A3F8E";
paths = (
{
closed = 1;
nodes = (
"426 0 LINE",
"497 0 LINE",
"497 142 LINE",
"426 142 LINE"
);
},
{
closed = 1;
nodes = (
"71 0 LINE",
"71 71 LINE",
"0 71 LINE",
"0 0 LINE"
);
},
{
closed = 1;
nodes = (
"142 71 LINE",
"142 213 LINE",
"71 213 LINE",
"71 71 LINE"
);
},
{
closed = 1;
nodes = (
"71 213 LINE",
"71 284 LINE",
"0 284 LINE",
"0 213 LINE"
);
},
{
closed = 1;
nodes = (
"142 355 LINE",
"71 355 LINE",
"71 284 LINE",
"142 284 LINE"
);
},
{
closed = 1;
nodes = (
"71 355 LINE",
"71 426 LINE",
"0 426 LINE",
"0 355 LINE"
);
},
{
closed = 1;
nodes = (
"142 497 LINE",
"71 497 LINE",
"71 426 LINE",
"142 426 LINE"
);
},
{
closed = 1;
nodes = (
"355 284 LINE",
"355 142 LINE",
"426 142 LINE",
"426 284 LINE"
);
},
{
closed = 1;
nodes = (
"497 142 LINE",
"568 142 LINE",
"568 284 LINE",
"497 284 LINE"
);
},
{
closed = 1;
nodes = (
"284 284 LINE",
"355 284 LINE",
"355 355 LINE",
"284 355 LINE"
);
},
{
closed = 1;
nodes = (
"284 568 LINE",
"213 568 LINE",
"213 355 LINE",
"284 355 LINE"
);
},
{
closed = 1;
nodes = (
"142 710 LINE",
"142 568 LINE",
"213 568 LINE",
"213 710 LINE"
);
},
{
closed = 1;
nodes = (
"71 852 LINE",
"71 923 LINE",
"0 923 LINE",
"0 497 LINE",
"71 497 LINE",
"71 710 LINE",
"142 710 LINE",
"142 852 LINE"
);
},
{
closed = 1;
nodes = (
"568 284 LINE",
"639 284 LINE",
"639 426 LINE",
"568 426 LINE"
);
},
{
closed = 1;
nodes = (
"710 426 LINE",
"710 497 LINE",
"639 497 LINE",
"639 426 LINE"
);
},
{
closed = 1;
nodes = (
"781 568 LINE",
"710 568 LINE",
"710 497 LINE",
"781 497 LINE"
);
},
{
closed = 1;
nodes = (
"710 568 LINE",
"710 639 LINE",
"639 639 LINE",
"639 568 LINE"
);
},
{
closed = 1;
nodes = (
"781 639 LINE",
"781 710 LINE",
"710 710 LINE",
"710 639 LINE"
);
},
{
closed = 1;
nodes = (
"781 852 LINE",
"852 852 LINE",
"852 781 LINE",
"781 781 LINE",
"781 710 LINE",
"852 710 LINE",
"852 355 LINE",
"923 355 LINE",
"923 923 LINE",
"852 923 LINE",
"781 923 LINE"
);
},
{
closed = 1;
nodes = (
"852 0 LINE",
"923 0 LINE",
"923 284 LINE",
"852 284 LINE"
);
},
{
closed = 1;
nodes = (
"852 284 LINE",
"852 355 LINE",
"781 355 LINE",
"781 284 LINE"
);
}
);
width = 1065;
}
);
unicode = 004D;
},
{
glyphname = N;
lastChange = "2021-11-04 14:33:02 +0000";
layers = (
{
layerId = "2B49945B-6CA5-4A57-AEE9-C94C760A1D53";
paths = (
{
closed = 1;
nodes = (
"426 284 LINE",
"426 142 LINE",
"497 142 LINE",
"497 284 LINE"
);
},
{
closed = 1;
nodes = (
"355 426 LINE",
"355 284 LINE",
"426 284 LINE",
"426 426 LINE"
);
},
{
closed = 1;
nodes = (
"284 426 LINE",
"355 426 LINE",
"355 497 LINE",
"284 497 LINE"
);
},
{
closed = 1;
nodes = (
"213 639 LINE",
"213 497 LINE",
"284 497 LINE",
"284 639 LINE"
);
},
{
closed = 1;
nodes = (
"142 781 LINE",
"142 639 LINE",
"213 639 LINE",
"213 781 LINE"
);
},
{
closed = 1;
nodes = (
"71 923 LINE",
"0 923 LINE",
"0 0 LINE",
"71 0 LINE",
"71 781 LINE",
"142 781 LINE",
"142 923 LINE"
);
},
{
closed = 1;
nodes = (
"568 142 LINE",
"497 142 LINE",
"497 0 LINE",
"568 0 LINE",
"639 0 LINE",
"639 142 LINE",
"639 923 LINE",
"568 923 LINE"
);
}
);
width = 781;
},
{
layerId = "D02270D2-0C41-4FF9-8B26-5AFAC61A3F8E";
paths = (
{
closed = 1;
nodes = (
"0 0 LINE",
"71 0 LINE",
"71 142 LINE",
"0 142 LINE"
);
},
{
closed = 1;
nodes = (
"142 142 LINE",
"142 284 LINE",
"71 284 LINE",
"71 142 LINE"
);
},
{
closed = 1;
nodes = (
"71 284 LINE",
"71 355 LINE",
"0 355 LINE",
"0 284 LINE"
);
},
{
closed = 1;
nodes = (
"142 426 LINE",
"71 426 LINE",
"71 355 LINE",
"142 355 LINE"
);
},
{
closed = 1;
nodes = (
"355 355 LINE",
"426 355 LINE",
"426 426 LINE",
"355 426 LINE"
);
},
{
closed = 1;
nodes = (
"284 426 LINE",
"355 426 LINE",
"355 497 LINE",
"284 497 LINE"
);
},
{
closed = 1;
nodes = (
"213 639 LINE",
"213 497 LINE",
"284 497 LINE",
"284 639 LINE"
);
},
{
closed = 1;
nodes = (
"142 781 LINE",
"142 639 LINE",
"213 639 LINE",
"213 781 LINE"
);
},
{
closed = 1;
nodes = (
"71 923 LINE",
"0 923 LINE",
"0 426 LINE",
"71 426 LINE",
"71 781 LINE",
"142 781 LINE",
"142 923 LINE"
);
},
{
closed = 1;
nodes = (
"568 710 LINE",
"639 710 LINE",
"639 923 LINE",
"568 923 LINE"
);
},
{
closed = 1;
nodes = (
"568 213 LINE",
"497 213 LINE",
"497 355 LINE",
"426 355 LINE",
"426 142 LINE",
"497 142 LINE",
"568 142 LINE",
"568 71 LINE",
"497 71 LINE",
"497 0 LINE",
"568 0 LINE",
"639 0 LINE",
"639 426 LINE",
"568 426 LINE"
);
},
{
closed = 1;
nodes = (
"568 426 LINE",
"568 497 LINE",
"497 497 LINE",
"497 426 LINE"
);
},
{
closed = 1;
nodes = (
"639 568 LINE",
"568 568 LINE",
"568 497 LINE",
"639 497 LINE"
);
},
{
closed = 1;
nodes = (
"497 568 LINE",
"568 568 LINE",
"568 710 LINE",
"497 710 LINE"
);
}
);
width = 781;
}
);
unicode = 004E;
},
{
glyphname = O;
lastChange = "2021-11-04 14:33:04 +0000";
layers = (
{
layerId = "2B49945B-6CA5-4A57-AEE9-C94C760A1D53";
paths = (
{
closed = 1;
nodes = (
"213 71 LINE",
"213 0 LINE",
"497 0 LINE",
"497 71 LINE"
);
},
{
closed = 1;
nodes = (
"71 781 LINE",
"71 710 LINE",
"142 710 LINE",
"142 781 LINE"
);
},
{
closed = 1;
nodes = (
"142 852 LINE",
"142 781 LINE",
"213 781 LINE",
"213 852 LINE"
);
},
{
closed = 1;
nodes = (
"71 710 LINE",
"0 710 LINE",
"0 213 LINE",
"71 213 LINE"
);
},
{
closed = 1;
nodes = (
"71 142 LINE",
"142 142 LINE",
"142 213 LINE",
"71 213 LINE"
);
},
{
closed = 1;
nodes = (
"142 71 LINE",
"213 71 LINE",
"213 142 LINE",
"142 142 LINE"
);
},
{
closed = 1;
nodes = (
"639 781 LINE",
"568 781 LINE",
"568 710 LINE",
"639 710 LINE"
);
},
{
closed = 1;
nodes = (
"568 852 LINE",
"497 852 LINE",
"497 781 LINE",
"568 781 LINE"
);
},
{
closed = 1;
nodes = (
"639 213 LINE",
"710 213 LINE",
"710 710 LINE",
"639 710 LINE"
);
},
{
closed = 1;
nodes = (
"639 142 LINE",
"639 213 LINE",
"568 213 LINE",
"568 142 LINE"
);
},
{
closed = 1;
nodes = (
"568 71 LINE",
"568 142 LINE",
"497 142 LINE",
"497 71 LINE"
);
},
{
closed = 1;
nodes = (
"497 852 LINE",
"497 923 LINE",
"213 923 LINE",
"213 852 LINE"
);
}
);
width = 852;
},
{
layerId = "D02270D2-0C41-4FF9-8B26-5AFAC61A3F8E";
paths = (
{
closed = 1;
nodes = (
"284 0 LINE",
"284 71 LINE",
"213 71 LINE",
"213 0 LINE"
);
},
{
closed = 1;
nodes = (
"284 142 LINE",
"284 71 LINE",
"426 71 LINE",
"426 142 LINE"
);
},
{
closed = 1;
nodes = (
"497 0 LINE",
"497 71 LINE",
"426 71 LINE",
"426 0 LINE"
);
},
{
closed = 1;
nodes = (
"71 781 LINE",
"71 710 LINE",
"142 710 LINE",
"142 781 LINE"
);
},
{
closed = 1;
nodes = (
"142 852 LINE",
"142 781 LINE",
"213 781 LINE",
"213 852 LINE"
);
},
{
closed = 1;
nodes = (
"0 639 LINE",
"71 639 LINE",
"71 710 LINE",
"0 710 LINE"
);
},
{
closed = 1;
nodes = (
"71 639 LINE",
"71 568 LINE",
"142 568 LINE",
"142 639 LINE"
);
},
{
closed = 1;
nodes = (
"0 568 LINE",
"0 426 LINE",
"71 426 LINE",
"71 568 LINE"
);
},
{
closed = 1;
nodes = (
"71 426 LINE",
"71 355 LINE",
"142 355 LINE",
"142 426 LINE"
);
},
{
closed = 1;
nodes = (
"71 355 LINE",
"0 355 LINE",
"0 213 LINE",
"71 213 LINE"
);
},
{
closed = 1;
nodes = (
"71 142 LINE",
"142 142 LINE",
"142 213 LINE",
"71 213 LINE"
);
},
{
closed = 1;
nodes = (
"142 71 LINE",
"213 71 LINE",
"213 142 LINE",
"142 142 LINE"
);
},
{
closed = 1;
nodes = (
"639 781 LINE",
"568 781 LINE",
"568 710 LINE",
"639 710 LINE"
);
},
{
closed = 1;
nodes = (
"568 852 LINE",
"497 852 LINE",
"497 781 LINE",
"568 781 LINE"
);
},
{
closed = 1;
nodes = (
"710 568 LINE",
"710 710 LINE",
"639 710 LINE",
"639 568 LINE"
);
},
{
closed = 1;
nodes = (
"639 497 LINE",
"639 568 LINE",
"568 568 LINE",
"568 497 LINE"
);
},
{
closed = 1;
nodes = (
"710 497 LINE",
"639 497 LINE",
"639 426 LINE",
"710 426 LINE"
);
},
{
closed = 1;
nodes = (
"639 355 LINE",
"639 426 LINE",
"568 426 LINE",
"568 355 LINE"
);
},
{
closed = 1;
nodes = (
"710 213 LINE",
"710 355 LINE",
"639 355 LINE",
"639 213 LINE"
);
},
{
closed = 1;
nodes = (
"639 142 LINE",
"639 213 LINE",
"568 213 LINE",
"568 142 LINE"
);
},
{
closed = 1;
nodes = (
"568 71 LINE",
"568 142 LINE",
"497 142 LINE",
"497 71 LINE"
);
},
{
closed = 1;
nodes = (
"213 923 LINE",
"213 852 LINE",
"284 852 LINE",
"284 923 LINE"
);
},
{
closed = 1;
nodes = (
"426 781 LINE",
"426 852 LINE",
"284 852 LINE",
"284 781 LINE"
);
},
{
closed = 1;
nodes = (
"426 923 LINE",
"426 852 LINE",
"497 852 LINE",
"497 923 LINE"
);
}
);
width = 852;
}
);
unicode = 004F;
},
{
color = 11;
glyphname = Ocircumflex;
lastChange = "2021-11-04 14:33:06 +0000";
layers = (
{
components = (
{
name = O;
}
);
layerId = "2B49945B-6CA5-4A57-AEE9-C94C760A1D53";
paths = (
{
closed = 1;
nodes = (
"568 1064 LINE",
"498 1064 LINE",
"498 993 LINE",
"568 993 LINE"
);
},
{
closed = 1;
nodes = (
"498 1135 LINE",
"425 1135 LINE",
"425 1064 LINE",
"498 1064 LINE"
);
},
{
closed = 1;
nodes = (
"425 1205 LINE",
"283 1205 LINE",
"283 1135 LINE",
"425 1135 LINE"
);
},
{
closed = 1;
nodes = (
"142 1064 LINE",
"142 993 LINE",
"213 993 LINE",
"213 1064 LINE"
);
},
{
closed = 1;
nodes = (
"213 1135 LINE",
"213 1064 LINE",
"283 1064 LINE",
"283 1135 LINE"
);
},
{
closed = 1;
nodes = (
"213 71 LINE",
"213 0 LINE",
"498 0 LINE",
"498 71 LINE"
);
},
{
closed = 1;
nodes = (
"71 780 LINE",
"71 710 LINE",
"142 710 LINE",
"142 780 LINE"
);
},
{
closed = 1;
nodes = (
"142 852 LINE",
"142 780 LINE",
"213 780 LINE",
"213 852 LINE"
);
},
{
closed = 1;
nodes = (
"71 710 LINE",
"0 710 LINE",
"0 213 LINE",
"71 213 LINE"
);
},
{
closed = 1;
nodes = (
"71 142 LINE",
"142 142 LINE",
"142 213 LINE",
"71 213 LINE"
);
},
{
closed = 1;
nodes = (
"142 71 LINE",
"213 71 LINE",
"213 142 LINE",
"142 142 LINE"
);
},
{
closed = 1;
nodes = (
"640 780 LINE",
"568 780 LINE",
"568 710 LINE",
"640 710 LINE"
);
},
{
closed = 1;
nodes = (
"568 852 LINE",
"498 852 LINE",
"498 780 LINE",
"568 780 LINE"
);
},
{
closed = 1;
nodes = (
"640 213 LINE",
"710 213 LINE",
"710 710 LINE",
"640 710 LINE"
);
},
{
closed = 1;
nodes = (
"640 142 LINE",
"640 213 LINE",
"568 213 LINE",
"568 142 LINE"
);
},
{
closed = 1;
nodes = (
"568 71 LINE",
"568 142 LINE",
"498 142 LINE",
"498 71 LINE"
);
},
{
closed = 1;
nodes = (
"498 852 LINE",
"498 923 LINE",
"213 923 LINE",
"213 852 LINE"
);
}
);
width = 852;
},
{
layerId = "D02270D2-0C41-4FF9-8B26-5AFAC61A3F8E";
paths = (
{
closed = 1;
nodes = (
"568 1064 LINE",
"498 1064 LINE",
"498 993 LINE",
"568 993 LINE"
);
},
{
closed = 1;
nodes = (
"498 1135 LINE",
"425 1135 LINE",
"425 1064 LINE",
"498 1064 LINE"
);
},
{
closed = 1;
nodes = (
"425 1205 LINE",
"283 1205 LINE",
"283 1135 LINE",
"425 1135 LINE"
);
},
{
closed = 1;
nodes = (
"142 1064 LINE",
"142 993 LINE",
"213 993 LINE",
"213 1064 LINE"
);
},
{
closed = 1;
nodes = (
"213 1135 LINE",
"213 1064 LINE",
"283 1064 LINE",
"283 1135 LINE"
);
},
{
closed = 1;
nodes = (
"284 0 LINE",
"284 71 LINE",
"213 71 LINE",
"213 0 LINE"
);
},
{
closed = 1;
nodes = (
"284 142 LINE",
"284 71 LINE",
"426 71 LINE",
"426 142 LINE"
);
},
{
closed = 1;
nodes = (
"497 0 LINE",
"497 71 LINE",
"426 71 LINE",
"426 0 LINE"
);
},
{
closed = 1;
nodes = (
"71 781 LINE",
"71 710 LINE",
"142 710 LINE",
"142 781 LINE"
);
},
{
closed = 1;
nodes = (
"142 852 LINE",
"142 781 LINE",
"213 781 LINE",
"213 852 LINE"
);
},
{
closed = 1;
nodes = (
"0 639 LINE",
"71 639 LINE",
"71 710 LINE",
"0 710 LINE"
);
},
{
closed = 1;
nodes = (
"142 639 LINE",
"71 639 LINE",
"71 497 LINE",
"142 497 LINE"
);
},
{
closed = 1;
nodes = (
"71 497 LINE",
"0 497 LINE",
"0 213 LINE",
"71 213 LINE"
);
},
{
closed = 1;
nodes = (
"71 142 LINE",
"142 142 LINE",
"142 213 LINE",
"71 213 LINE"
);
},
{
closed = 1;
nodes = (
"142 71 LINE",
"213 71 LINE",
"213 142 LINE",
"142 142 LINE"
);
},
{
closed = 1;
nodes = (
"639 781 LINE",
"568 781 LINE",
"568 710 LINE",
"639 710 LINE"
);
},
{
closed = 1;
nodes = (
"568 852 LINE",
"497 852 LINE",
"497 781 LINE",
"568 781 LINE"
);
},
{
closed = 1;
nodes = (
"639 497 LINE",
"710 497 LINE",
"710 710 LINE",
"639 710 LINE"
);
},
{
closed = 1;
nodes = (
"639 426 LINE",
"639 497 LINE",
"568 497 LINE",
"568 426 LINE"
);
},
{
closed = 1;
nodes = (
"639 213 LINE",
"710 213 LINE",
"710 426 LINE",
"639 426 LINE"
);
},
{
closed = 1;
nodes = (
"639 142 LINE",
"639 213 LINE",
"568 213 LINE",
"568 142 LINE"
);
},
{
closed = 1;
nodes = (
"568 71 LINE",
"568 142 LINE",
"497 142 LINE",
"497 71 LINE"
);
},
{
closed = 1;
nodes = (
"497 852 LINE",
"497 923 LINE",
"213 923 LINE",
"213 852 LINE"
);
}
);
width = 852;
}
);
unicode = 00D4;
},
{
color = 11;
glyphname = OE;
lastChange = "2021-11-04 14:33:09 +0000";
layers = (
{
layerId = "2B49945B-6CA5-4A57-AEE9-C94C760A1D53";
paths = (
{
closed = 1;
nodes = (
"71 781 LINE",
"71 710 LINE",
"142 710 LINE",
"142 781 LINE"
);
},
{
closed = 1;
nodes = (
"142 852 LINE",
"142 781 LINE",
"213 781 LINE",
"213 852 LINE"
);
},
{
closed = 1;
nodes = (
"71 710 LINE",
"0 710 LINE",
"0 213 LINE",
"71 213 LINE"
);
},
{
closed = 1;
nodes = (
"71 142 LINE",
"142 142 LINE",
"142 213 LINE",
"71 213 LINE"
);
},
{
closed = 1;
nodes = (
"142 71 LINE",
"213 71 LINE",
"213 142 LINE",
"142 142 LINE"
);
},
{
closed = 1;
nodes = (
"213 923 LINE",
"213 852 LINE",
"355 852 LINE",
"355 71 LINE",
"213 71 LINE",
"213 0 LINE",
"923 0 LINE",
"923 71 LINE",
"426 71 LINE",
"426 426 LINE",
"852 426 LINE",
"852 497 LINE",
"426 497 LINE",
"426 852 LINE",
"923 852 LINE",
"923 923 LINE"
);
}
);
width = 1065;
},
{
layerId = "D02270D2-0C41-4FF9-8B26-5AFAC61A3F8E";
paths = (
{
closed = 1;
nodes = (
"284 0 LINE",
"284 71 LINE",
"213 71 LINE",
"213 0 LINE"
);
},
{
closed = 1;
nodes = (
"71 781 LINE",
"71 710 LINE",
"142 710 LINE",
"142 781 LINE"
);
},
{
closed = 1;
nodes = (
"142 852 LINE",
"142 781 LINE",
"213 781 LINE",
"213 852 LINE"
);
},
{
closed = 1;
nodes = (
"0 639 LINE",
"71 639 LINE",
"71 710 LINE",
"0 710 LINE"
);
},
{
closed = 1;
nodes = (
"71 639 LINE",
"71 568 LINE",
"142 568 LINE",
"142 639 LINE"
);
},
{
closed = 1;
nodes = (
"0 568 LINE",
"0 426 LINE",
"71 426 LINE",
"71 568 LINE"
);
},
{
closed = 1;
nodes = (
"71 426 LINE",
"71 355 LINE",
"142 355 LINE",
"142 426 LINE"
);
},
{
closed = 1;
nodes = (
"0 355 LINE",
"0 213 LINE",
"71 213 LINE",
"71 355 LINE"
);
},
{
closed = 1;
nodes = (
"71 142 LINE",
"142 142 LINE",
"142 213 LINE",
"71 213 LINE"
);
},
{
closed = 1;
nodes = (
"142 71 LINE",
"213 71 LINE",
"213 142 LINE",
"142 142 LINE"
);
},
{
closed = 1;
nodes = (
"710 0 LINE",
"710 71 LINE",
"497 71 LINE",
"497 0 LINE"
);
},
{
closed = 1;
nodes = (
"710 142 LINE",
"710 71 LINE",
"781 71 LINE",
"781 142 LINE"
);
},
{
closed = 1;
nodes = (
"923 0 LINE",
"923 71 LINE",
"781 71 LINE",
"781 0 LINE"
);
},
{
closed = 1;
nodes = (
"852 426 LINE",
"852 497 LINE",
"497 497 LINE",
"497 426 LINE"
);
},
{
closed = 1;
nodes = (
"497 284 LINE",
"426 284 LINE",
"426 213 LINE",
"497 213 LINE"
);
},
{
closed = 1;
nodes = (
"284 142 LINE",
"284 71 LINE",
"355 71 LINE",
"355 0 LINE",
"426 0 LINE",
"426 71 LINE",
"497 71 LINE",
"497 142 LINE",
"426 142 LINE",
"426 213 LINE",
"355 213 LINE",
"355 142 LINE"
);
},
{
closed = 1;
nodes = (
"213 923 LINE",
"213 852 LINE",
"355 852 LINE",
"355 284 LINE",
"426 284 LINE",
"426 497 LINE",
"497 497 LINE",
"497 568 LINE",
"426 568 LINE",
"426 781 LINE",
"497 781 LINE",
"497 852 LINE",
"426 852 LINE",
"426 923 LINE"
);
},
{
closed = 1;
nodes = (
"497 923 LINE",
"497 852 LINE",
"923 852 LINE",
"923 923 LINE"
);
}
);
width = 1065;
}
);
unicode = 0152;
},
{
glyphname = P;
lastChange = "2021-11-04 14:33:11 +0000";
layers = (
{
layerId = "2B49945B-6CA5-4A57-AEE9-C94C760A1D53";
paths = (
{
closed = 1;
nodes = (
"568 852 LINE",
"497 852 LINE",
"497 781 LINE",
"568 781 LINE"
);
},
{
closed = 1;
nodes = (
"568 568 LINE",
"639 568 LINE",
"639 781 LINE",
"568 781 LINE"
);
},
{
closed = 1;
nodes = (
"568 497 LINE",
"568 568 LINE",
"497 568 LINE",
"497 497 LINE"
);
},
{
closed = 1;
nodes = (
"71 497 LINE",
"71 852 LINE",
"497 852 LINE",
"497 923 LINE",
"0 923 LINE",
"0 0 LINE",
"71 0 LINE",
"71 426 LINE",
"497 426 LINE",
"497 497 LINE"
);
}
);
width = 781;
},
{
layerId = "D02270D2-0C41-4FF9-8B26-5AFAC61A3F8E";
paths = (
{
closed = 1;
nodes = (
"71 213 LINE",
"0 213 LINE",
"0 0 LINE",
"71 0 LINE"
);
},
{
closed = 1;
nodes = (
"568 710 LINE",
"568 852 LINE",
"497 852 LINE",
"497 710 LINE"
);
},
{
closed = 1;
nodes = (
"639 710 LINE",
"568 710 LINE",
"568 639 LINE",
"639 639 LINE"
);
},
{
closed = 1;
nodes = (
"568 568 LINE",
"568 639 LINE",
"497 639 LINE",
"497 568 LINE"
);
},
{
closed = 1;
nodes = (
"497 497 LINE",
"497 568 LINE",
"426 568 LINE",
"426 497 LINE"
);
},
{
closed = 1;
nodes = (
"284 426 LINE",
"426 426 LINE",
"426 497 LINE",
"284 497 LINE"
);
},
{
closed = 1;
nodes = (
"213 497 LINE",
"284 497 LINE",
"284 568 LINE",
"213 568 LINE"
);
},
{
closed = 1;
nodes = (
"497 923 LINE",
"355 923 LINE",
"355 852 LINE",
"497 852 LINE"
);
},
{
closed = 1;
nodes = (
"355 852 LINE",
"284 852 LINE",
"284 781 LINE",
"355 781 LINE"
);
},
{
closed = 1;
nodes = (
"213 923 LINE",
"213 852 LINE",
"284 852 LINE",
"284 923 LINE"
);
},
{
closed = 1;
nodes = (
"213 852 LINE",
"142 852 LINE",
"142 781 LINE",
"213 781 LINE"
);
},
{
closed = 1;
nodes = (
"142 852 LINE",
"142 923 LINE",
"0 923 LINE",
"0 710 LINE",
"71 710 LINE",
"71 781 LINE",
"71 852 LINE"
);
},
{
closed = 1;
nodes = (
"142 710 LINE",
"71 710 LINE",
"71 639 LINE",
"71 568 LINE",
"142 568 LINE",
"142 639 LINE"
);
},
{
closed = 1;
nodes = (
"213 426 LINE",
"213 497 LINE",
"71 497 LINE",
"71 568 LINE",
"0 568 LINE",
"0 284 LINE",
"71 284 LINE",
"71 426 LINE"
);
},
{
closed = 1;
nodes = (
"71 284 LINE",
"71 213 LINE",
"142 213 LINE",
"142 284 LINE"
);
}
);
width = 781;
}
);
unicode = 0050;
},
{
glyphname = Q;
lastChange = "2021-11-04 14:33:14 +0000";
layers = (
{
layerId = "2B49945B-6CA5-4A57-AEE9-C94C760A1D53";
paths = (
{
closed = 1;
nodes = (
"213 71 LINE",
"213 0 LINE",
"497 0 LINE",
"497 71 LINE"
);
},
{
closed = 1;
nodes = (
"72 781 LINE",
"72 710 LINE",
"142 710 LINE",
"142 781 LINE"
);
},
{
closed = 1;
nodes = (
"142 851 LINE",
"142 781 LINE",
"213 781 LINE",
"213 851 LINE"
);
},
{
closed = 1;
nodes = (
"72 710 LINE",
"0 710 LINE",
"0 213 LINE",
"72 213 LINE"
);
},
{
closed = 1;
nodes = (
"72 142 LINE",
"142 142 LINE",
"142 213 LINE",
"72 213 LINE"
);
},
{
closed = 1;
nodes = (
"142 71 LINE",
"213 71 LINE",
"213 142 LINE",
"142 142 LINE"
);
},
{
closed = 1;
nodes = (
"639 781 LINE",
"568 781 LINE",
"568 710 LINE",
"639 710 LINE"
);
},
{
closed = 1;
nodes = (
"568 851 LINE",
"497 851 LINE",
"497 781 LINE",
"568 781 LINE"
);
},
{
closed = 1;
nodes = (
"639 213 LINE",
"710 213 LINE",
"710 710 LINE",
"639 710 LINE"
);
},
{
closed = 1;
nodes = (
"639 142 LINE",
"639 213 LINE",
"568 213 LINE",
"568 142 LINE"
);
},
{
closed = 1;
nodes = (
"497 71 LINE",
"568 71 LINE",
"568 142 LINE",
"497 142 LINE"
);
},
{
closed = 1;
nodes = (
"568 71 LINE",
"568 -70 LINE",
"639 -70 LINE",
"639 71 LINE"
);
},
{
closed = 1;
nodes = (
"710 -142 LINE",
"710 -70 LINE",
"639 -70 LINE",
"639 -142 LINE"
);
},
{
closed = 1;
nodes = (
"710 -70 LINE",
"781 -70 LINE",
"781 0 LINE",
"710 0 LINE"
);
},
{
closed = 1;
nodes = (
"426 142 LINE",
"497 142 LINE",
"497 213 LINE",
"426 213 LINE"
);
},
{
closed = 1;
nodes = (
"355 213 LINE",
"426 213 LINE",
"426 284 LINE",
"355 284 LINE"
);
},
{
closed = 1;
nodes = (
"497 851 LINE",
"497 923 LINE",
"213 923 LINE",
"213 851 LINE"
);
}
);
width = 923;
},
{
layerId = "D02270D2-0C41-4FF9-8B26-5AFAC61A3F8E";
paths = (
{
closed = 1;
nodes = (
"213 0 LINE",
"355 0 LINE",
"355 71 LINE",
"213 71 LINE"
);
},
{
closed = 1;
nodes = (
"355 71 LINE",
"426 71 LINE",
"426 142 LINE",
"355 142 LINE"
);
},
{
closed = 1;
nodes = (
"497 0 LINE",
"497 71 LINE",
"426 71 LINE",
"426 0 LINE"
);
},
{
closed = 1;
nodes = (
"142 851 LINE",
"142 781 LINE",
"213 781 LINE",
"213 851 LINE"
);
},
{
closed = 1;
nodes = (
"142 781 LINE",
"72 781 LINE",
"72 639 LINE",
"142 639 LINE"
);
},
{
closed = 1;
nodes = (
"72 639 LINE",
"0 639 LINE",
"0 213 LINE",
"72 213 LINE"
);
},
{
closed = 1;
nodes = (
"72 142 LINE",
"142 142 LINE",
"142 213 LINE",
"72 213 LINE"
);
},
{
closed = 1;
nodes = (
"142 71 LINE",
"213 71 LINE",
"213 142 LINE",
"142 142 LINE"
);
},
{
closed = 1;
nodes = (
"639 781 LINE",
"568 781 LINE",
"568 710 LINE",
"639 710 LINE"
);
},
{
closed = 1;
nodes = (
"710 568 LINE",
"710 710 LINE",
"639 710 LINE",
"639 568 LINE"
);
},
{
closed = 1;
nodes = (
"639 497 LINE",
"639 568 LINE",
"568 568 LINE",
"568 497 LINE"
);
},
{
closed = 1;
nodes = (
"639 284 LINE",
"710 284 LINE",
"710 497 LINE",
"639 497 LINE"
);
},
{
closed = 1;
nodes = (
"568 142 LINE",
"639 142 LINE",
"639 284 LINE",
"568 284 LINE"
);
},
{
closed = 1;
nodes = (
"497 71 LINE",
"568 71 LINE",
"568 142 LINE",
"497 142 LINE"
);
},
{
closed = 1;
nodes = (
"568 0 LINE",
"639 0 LINE",
"639 71 LINE",
"568 71 LINE"
);
},
{
closed = 1;
nodes = (
"639 -142 LINE",
"710 -142 LINE",
"710 0 LINE",
"639 0 LINE"
);
},
{
closed = 1;
nodes = (
"781 0 LINE",
"781 71 LINE",
"710 71 LINE",
"710 0 LINE"
);
},
{
closed = 1;
nodes = (
"426 284 LINE",
"426 142 LINE",
"497 142 LINE",
"497 284 LINE"
);
},
{
closed = 1;
nodes = (
"213 923 LINE",
"213 851 LINE",
"284 851 LINE",
"284 923 LINE"
);
},
{
closed = 1;
nodes = (
"355 851 LINE",
"284 851 LINE",
"284 781 LINE",
"355 781 LINE"
);
},
{
closed = 1;
nodes = (
"355 923 LINE",
"355 851 LINE",
"426 851 LINE",
"426 923 LINE"
);
},
{
closed = 1;
nodes = (
"568 781 LINE",
"568 851 LINE",
"426 851 LINE",
"426 781 LINE"
);
}
);
width = 923;
}
);
unicode = 0051;
},
{
glyphname = R;
lastChange = "2021-11-04 14:33:18 +0000";
layers = (
{
layerId = "2B49945B-6CA5-4A57-AEE9-C94C760A1D53";
paths = (
{
closed = 1;
nodes = (
"568 426 LINE",
"497 426 LINE",
"497 355 LINE",
"568 355 LINE"
);
},
{
closed = 1;
nodes = (
"568 0 LINE",
"639 0 LINE",
"639 355 LINE",
"568 355 LINE"
);
},
{
closed = 1;
nodes = (
"568 852 LINE",
"497 852 LINE",
"497 781 LINE",
"568 781 LINE"
);
},
{
closed = 1;
nodes = (
"568 568 LINE",
"639 568 LINE",
"639 781 LINE",
"568 781 LINE"
);
},
{
closed = 1;
nodes = (
"568 497 LINE",
"568 568 LINE",
"497 568 LINE",
"497 497 LINE"
);
},
{
closed = 1;
nodes = (
"71 497 LINE",
"71 852 LINE",
"497 852 LINE",
"497 923 LINE",
"0 923 LINE",
"0 0 LINE",
"71 0 LINE",
"71 426 LINE",
"497 426 LINE",
"497 497 LINE"
);
}
);
width = 781;
},
{
layerId = "D02270D2-0C41-4FF9-8B26-5AFAC61A3F8E";
paths = (
{
closed = 1;
nodes = (
"497 355 LINE",
"426 355 LINE",
"426 284 LINE",
"497 284 LINE"
);
},
{
closed = 1;
nodes = (
"497 71 LINE",
"568 71 LINE",
"568 284 LINE",
"497 284 LINE"
);
},
{
closed = 1;
nodes = (
"639 71 LINE",
"568 71 LINE",
"568 0 LINE",
"639 0 LINE"
);
},
{
closed = 1;
nodes = (
"71 142 LINE",
"0 142 LINE",
"0 0 LINE",
"71 0 LINE"
);
},
{
closed = 1;
nodes = (
"568 852 LINE",
"497 852 LINE",
"497 781 LINE",
"568 781 LINE"
);
},
{
closed = 1;
nodes = (
"639 639 LINE",
"639 781 LINE",
"568 781 LINE",
"568 639 LINE"
);
},
{
closed = 1;
nodes = (
"497 497 LINE",
"568 497 LINE",
"568 639 LINE",
"497 639 LINE"
);
},
{
closed = 1;
nodes = (
"355 426 LINE",
"142 426 LINE",
"142 355 LINE",
"426 355 LINE",
"426 426 LINE",
"497 426 LINE",
"497 497 LINE",
"355 497 LINE"
);
},
{
closed = 1;
nodes = (
"426 923 LINE",
"426 852 LINE",
"497 852 LINE",
"497 923 LINE"
);
},
{
closed = 1;
nodes = (
"284 923 LINE",
"284 852 LINE",
"355 852 LINE",
"355 923 LINE"
);
},
{
closed = 1;
nodes = (
"426 852 LINE",
"355 852 LINE",
"355 781 LINE",
"426 781 LINE"
);
},
{
closed = 1;
nodes = (
"284 852 LINE",
"213 852 LINE",
"213 781 LINE",
"284 781 LINE"
);
},
{
closed = 1;
nodes = (
"213 852 LINE",
"213 923 LINE",
"0 923 LINE",
"0 710 LINE",
"71 710 LINE",
"71 852 LINE"
);
},
{
closed = 1;
nodes = (
"142 710 LINE",
"71 710 LINE",
"71 639 LINE",
"71 568 LINE",
"142 568 LINE",
"142 639 LINE"
);
},
{
closed = 1;
nodes = (
"71 426 LINE",
"142 426 LINE",
"142 497 LINE",
"71 497 LINE",
"71 568 LINE",
"0 568 LINE",
"0 213 LINE",
"71 213 LINE"
);
},
{
closed = 1;
nodes = (
"71 213 LINE",
"71 142 LINE",
"142 142 LINE",
"142 213 LINE"
);
}
);
width = 781;
}
);
unicode = 0052;
},
{
glyphname = S;
lastChange = "2021-11-04 14:33:20 +0000";
layers = (
{
layerId = "2B49945B-6CA5-4A57-AEE9-C94C760A1D53";
paths = (
{
closed = 1;
nodes = (
"71 71 LINE",
"142 71 LINE",
"142 142 LINE",
"71 142 LINE"
);
},
{
closed = 1;
nodes = (
"0 284 LINE",
"0 142 LINE",
"71 142 LINE",
"71 284 LINE"
);
},
{
closed = 1;
nodes = (
"142 71 LINE",
"142 0 LINE",
"497 0 LINE",
"497 71 LINE"
);
},
{
closed = 1;
nodes = (
"0 568 LINE",
"71 568 LINE",
"71 781 LINE",
"0 781 LINE"
);
},
{
closed = 1;
nodes = (
"142 781 LINE",
"142 852 LINE",
"71 852 LINE",
"71 781 LINE"
);
},
{
closed = 1;
nodes = (
"142 568 LINE",
"71 568 LINE",
"71 497 LINE",
"142 497 LINE"
);
},
{
closed = 1;
nodes = (
"497 426 LINE",
"497 497 LINE",
"142 497 LINE",
"142 426 LINE"
);
},
{
closed = 1;
nodes = (
"568 426 LINE",
"497 426 LINE",
"497 355 LINE",
"568 355 LINE"
);
},
{
closed = 1;
nodes = (
"568 142 LINE",
"639 142 LINE",
"639 355 LINE",
"568 355 LINE"
);
},
{
closed = 1;
nodes = (
"568 71 LINE",
"568 142 LINE",
"497 142 LINE",
"497 71 LINE"
);
},
{
closed = 1;
nodes = (
"568 639 LINE",
"639 639 LINE",
"639 781 LINE",
"568 781 LINE"
);
},
{
closed = 1;
nodes = (
"497 781 LINE",
"568 781 LINE",
"568 852 LINE",
"497 852 LINE"
);
},
{
closed = 1;
nodes = (
"142 923 LINE",
"142 852 LINE",
"497 852 LINE",
"497 923 LINE"
);
}
);
width = 781;
},
{
layerId = "D02270D2-0C41-4FF9-8B26-5AFAC61A3F8E";
paths = (
{
closed = 1;
nodes = (
"284 0 LINE",
"284 71 LINE",
"142 71 LINE",
"142 0 LINE"
);
},
{
closed = 1;
nodes = (
"142 142 LINE",
"71 142 LINE",
"71 71 LINE",
"142 71 LINE"
);
},
{
closed = 1;
nodes = (
"0 213 LINE",
"0 142 LINE",
"71 142 LINE",
"71 213 LINE"
);
},
{
closed = 1;
nodes = (
"71 284 LINE",
"71 213 LINE",
"142 213 LINE",
"142 284 LINE"
);
},
{
closed = 1;
nodes = (
"284 142 LINE",
"284 71 LINE",
"355 71 LINE",
"355 142 LINE"
);
},
{
closed = 1;
nodes = (
"497 0 LINE",
"497 71 LINE",
"355 71 LINE",
"355 0 LINE"
);
},
{
closed = 1;
nodes = (
"71 852 LINE",
"71 781 LINE",
"142 781 LINE",
"142 852 LINE"
);
},
{
closed = 1;
nodes = (
"71 781 LINE",
"0 781 LINE",
"0 568 LINE",
"71 568 LINE"
);
},
{
closed = 1;
nodes = (
"71 568 LINE",
"71 497 LINE",
"213 497 LINE",
"213 568 LINE"
);
},
{
closed = 1;
nodes = (
"213 497 LINE",
"213 426 LINE",
"355 426 LINE",
"355 497 LINE"
);
},
{
closed = 1;
nodes = (
"426 355 LINE",
"426 426 LINE",
"355 426 LINE",
"355 355 LINE"
);
},
{
closed = 1;
nodes = (
"426 426 LINE",
"497 426 LINE",
"497 497 LINE",
"426 497 LINE"
);
},
{
closed = 1;
nodes = (
"497 355 LINE",
"568 355 LINE",
"568 426 LINE",
"497 426 LINE"
);
},
{
closed = 1;
nodes = (
"639 355 LINE",
"568 355 LINE",
"568 213 LINE",
"639 213 LINE"
);
},
{
closed = 1;
nodes = (
"568 213 LINE",
"497 213 LINE",
"497 71 LINE",
"568 71 LINE"
);
},
{
closed = 1;
nodes = (
"639 781 LINE",
"568 781 LINE",
"568 710 LINE",
"639 710 LINE"
);
},
{
closed = 1;
nodes = (
"568 639 LINE",
"568 710 LINE",
"497 710 LINE",
"497 639 LINE"
);
},
{
closed = 1;
nodes = (
"568 852 LINE",
"497 852 LINE",
"497 781 LINE",
"568 781 LINE"
);
},
{
closed = 1;
nodes = (
"284 923 LINE",
"142 923 LINE",
"142 852 LINE",
"284 852 LINE"
);
},
{
closed = 1;
nodes = (
"355 852 LINE",
"284 852 LINE",
"284 781 LINE",
"355 781 LINE"
);
},
{
closed = 1;
nodes = (
"497 923 LINE",
"355 923 LINE",
"355 852 LINE",
"497 852 LINE"
);
}
);
width = 781;
}
);
unicode = 0053;
},
{
glyphname = T;
lastChange = "2021-11-04 14:33:23 +0000";
layers = (
{
layerId = "2B49945B-6CA5-4A57-AEE9-C94C760A1D53";
paths = (
{
closed = 1;
nodes = (
"284 852 LINE",
"284 0 LINE",
"355 0 LINE",
"355 852 LINE",
"639 852 LINE",
"639 923 LINE",
"0 923 LINE",
"0 852 LINE"
);
}
);
width = 781;
},
{
layerId = "D02270D2-0C41-4FF9-8B26-5AFAC61A3F8E";
paths = (
{
closed = 1;
nodes = (
"284 142 LINE",
"355 142 LINE",
"355 568 LINE",
"284 568 LINE"
);
},
{
closed = 1;
nodes = (
"426 639 LINE",
"355 639 LINE",
"355 568 LINE",
"426 568 LINE"
);
},
{
closed = 1;
nodes = (
"284 71 LINE",
"284 142 LINE",
"213 142 LINE",
"213 71 LINE"
);
},
{
closed = 1;
nodes = (
"355 71 LINE",
"284 71 LINE",
"284 0 LINE",
"355 0 LINE"
);
},
{
closed = 1;
nodes = (
"0 852 LINE",
"71 852 LINE",
"71 923 LINE",
"0 923 LINE"
);
},
{
closed = 1;
nodes = (
"71 781 LINE",
"213 781 LINE",
"213 852 LINE",
"71 852 LINE"
);
},
{
closed = 1;
nodes = (
"213 923 LINE",
"213 852 LINE",
"284 852 LINE",
"284 639 LINE",
"355 639 LINE",
"355 852 LINE",
"497 852 LINE",
"497 923 LINE"
);
},
{
closed = 1;
nodes = (
"568 781 LINE",
"568 852 LINE",
"497 852 LINE",
"497 781 LINE"
);
},
{
closed = 1;
nodes = (
"639 852 LINE",
"639 923 LINE",
"568 923 LINE",
"568 852 LINE"
);
}
);
width = 781;
}
);
unicode = 0054;
},
{
glyphname = U;
lastChange = "2021-11-04 14:33:26 +0000";
layers = (
{
layerId = "2B49945B-6CA5-4A57-AEE9-C94C760A1D53";
paths = (
{
closed = 1;
nodes = (
"142 71 LINE",
"213 71 LINE",
"213 142 LINE",
"142 142 LINE"
);
},
{
closed = 1;
nodes = (
"71 142 LINE",
"142 142 LINE",
"142 213 LINE",
"71 213 LINE"
);
},
{
closed = 1;
nodes = (
"213 71 LINE",
"213 0 LINE",
"426 0 LINE",
"426 71 LINE"
);
},
{
closed = 1;
nodes = (
"497 71 LINE",
"497 142 LINE",
"426 142 LINE",
"426 71 LINE"
);
},
{
closed = 1;
nodes = (
"568 142 LINE",
"568 213 LINE",
"497 213 LINE",
"497 142 LINE"
);
},
{
closed = 1;
nodes = (
"71 923 LINE",
"0 923 LINE",
"0 213 LINE",
"71 213 LINE"
);
},
{
closed = 1;
nodes = (
"568 213 LINE",
"639 213 LINE",
"639 923 LINE",
"568 923 LINE"
);
}
);
width = 781;
},
{
layerId = "D02270D2-0C41-4FF9-8B26-5AFAC61A3F8E";
paths = (
{
closed = 1;
nodes = (
"142 71 LINE",
"213 71 LINE",
"213 142 LINE",
"142 142 LINE"
);
},
{
closed = 1;
nodes = (
"71 142 LINE",
"142 142 LINE",
"142 213 LINE",
"71 213 LINE"
);
},
{
closed = 1;
nodes = (
"284 0 LINE",
"284 71 LINE",
"213 71 LINE",
"213 0 LINE"
);
},
{
closed = 1;
nodes = (
"284 71 LINE",
"355 71 LINE",
"355 142 LINE",
"284 142 LINE"
);
},
{
closed = 1;
nodes = (
"426 0 LINE",
"426 71 LINE",
"355 71 LINE",
"355 0 LINE"
);
},
{
closed = 1;
nodes = (
"497 71 LINE",
"497 142 LINE",
"426 142 LINE",
"426 71 LINE"
);
},
{
closed = 1;
nodes = (
"568 142 LINE",
"568 213 LINE",
"497 213 LINE",
"497 142 LINE"
);
},
{
closed = 1;
nodes = (
"639 213 LINE",
"639 355 LINE",
"568 355 LINE",
"568 213 LINE"
);
},
{
closed = 1;
nodes = (
"497 355 LINE",
"568 355 LINE",
"568 497 LINE",
"497 497 LINE"
);
},
{
closed = 1;
nodes = (
"71 639 LINE",
"71 568 LINE",
"142 568 LINE",
"142 639 LINE"
);
},
{
closed = 1;
nodes = (
"0 781 LINE",
"0 639 LINE",
"71 639 LINE",
"71 781 LINE"
);
},
{
closed = 1;
nodes = (
"71 852 LINE",
"71 781 LINE",
"142 781 LINE",
"142 852 LINE"
);
},
{
closed = 1;
nodes = (
"0 852 LINE",
"71 852 LINE",
"71 923 LINE",
"0 923 LINE"
);
},
{
closed = 1;
nodes = (
"71 568 LINE",
"0 568 LINE",
"0 213 LINE",
"71 213 LINE"
);
},
{
closed = 1;
nodes = (
"568 497 LINE",
"639 497 LINE",
"639 923 LINE",
"568 923 LINE"
);
}
);
width = 781;
}
);
unicode = 0055;
},
{
color = 11;
glyphname = Ucircumflex;
lastChange = "2021-11-04 14:33:28 +0000";
layers = (
{
components = (
{
name = U;
}
);
layerId = "2B49945B-6CA5-4A57-AEE9-C94C760A1D53";
paths = (
{
closed = 1;
nodes = (
"497 1065 LINE",
"426 1065 LINE",
"426 994 LINE",
"497 994 LINE"
);
},
{
closed = 1;
nodes = (
"355 1065 LINE",
"426 1065 LINE",
"426 1136 LINE",
"355 1136 LINE"
);
},
{
closed = 1;
nodes = (
"284 1136 LINE",
"355 1136 LINE",
"355 1207 LINE",
"284 1207 LINE"
);
},
{
closed = 1;
nodes = (
"213 994 LINE",
"213 1065 LINE",
"142 1065 LINE",
"142 994 LINE"
);
},
{
closed = 1;
nodes = (
"284 1065 LINE",
"284 1136 LINE",
"213 1136 LINE",
"213 1065 LINE"
);
},
{
closed = 1;
nodes = (
"142 71 LINE",
"213 71 LINE",
"213 142 LINE",
"142 142 LINE"
);
},
{
closed = 1;
nodes = (
"71 142 LINE",
"142 142 LINE",
"142 213 LINE",
"71 213 LINE"
);
},
{
closed = 1;
nodes = (
"213 71 LINE",
"213 0 LINE",
"426 0 LINE",
"426 71 LINE"
);
},
{
closed = 1;
nodes = (
"497 71 LINE",
"497 142 LINE",
"426 142 LINE",
"426 71 LINE"
);
},
{
closed = 1;
nodes = (
"568 142 LINE",
"568 213 LINE",
"497 213 LINE",
"497 142 LINE"
);
},
{
closed = 1;
nodes = (
"71 923 LINE",
"0 923 LINE",
"0 213 LINE",
"71 213 LINE"
);
},
{
closed = 1;
nodes = (
"568 213 LINE",
"639 213 LINE",
"639 923 LINE",
"568 923 LINE"
);
}
);
width = 781;
},
{
layerId = "D02270D2-0C41-4FF9-8B26-5AFAC61A3F8E";
paths = (
{
closed = 1;
nodes = (
"497 1065 LINE",
"426 1065 LINE",
"426 994 LINE",
"497 994 LINE"
);
},
{
closed = 1;
nodes = (
"355 1065 LINE",
"426 1065 LINE",
"426 1136 LINE",
"355 1136 LINE"
);
},
{
closed = 1;
nodes = (
"284 1136 LINE",
"355 1136 LINE",
"355 1207 LINE",
"284 1207 LINE"
);
},
{
closed = 1;
nodes = (
"213 994 LINE",
"213 1065 LINE",
"142 1065 LINE",
"142 994 LINE"
);
},
{
closed = 1;
nodes = (
"284 1065 LINE",
"284 1136 LINE",
"213 1136 LINE",
"213 1065 LINE"
);
},
{
closed = 1;
nodes = (
"142 71 LINE",
"213 71 LINE",
"213 142 LINE",
"142 142 LINE"
);
},
{
closed = 1;
nodes = (
"71 142 LINE",
"142 142 LINE",
"142 213 LINE",
"71 213 LINE"
);
},
{
closed = 1;
nodes = (
"213 71 LINE",
"213 0 LINE",
"426 0 LINE",
"426 71 LINE"
);
},
{
closed = 1;
nodes = (
"497 71 LINE",
"497 142 LINE",
"426 142 LINE",
"426 71 LINE"
);
},
{
closed = 1;
nodes = (
"568 142 LINE",
"568 213 LINE",
"497 213 LINE",
"497 142 LINE"
);
},
{
closed = 1;
nodes = (
"568 213 LINE",
"639 213 LINE",
"639 497 LINE",
"568 497 LINE"
);
},
{
closed = 1;
nodes = (
"497 497 LINE",
"568 497 LINE",
"568 639 LINE",
"497 639 LINE"
);
},
{
closed = 1;
nodes = (
"71 852 LINE",
"71 781 LINE",
"142 781 LINE",
"142 852 LINE"
);
},
{
closed = 1;
nodes = (
"0 852 LINE",
"71 852 LINE",
"71 923 LINE",
"0 923 LINE"
);
},
{
closed = 1;
nodes = (
"71 781 LINE",
"0 781 LINE",
"0 426 LINE",
"71 426 LINE"
);
},
{
closed = 1;
nodes = (
"71 426 LINE",
"71 355 LINE",
"142 355 LINE",
"142 426 LINE"
);
},
{
closed = 1;
nodes = (
"0 355 LINE",
"0 213 LINE",
"71 213 LINE",
"71 355 LINE"
);
},
{
closed = 1;
nodes = (
"568 639 LINE",
"639 639 LINE",
"639 923 LINE",
"568 923 LINE"
);
}
);
width = 781;
}
);
unicode = 00DB;
},
{
color = 11;
glyphname = Udieresis;
lastChange = "2021-11-04 14:33:32 +0000";
layers = (
{
components = (
{
name = U;
}
);
layerId = "2B49945B-6CA5-4A57-AEE9-C94C760A1D53";
paths = (
{
closed = 1;
nodes = (
"426 1065 LINE",
"426 994 LINE",
"497 994 LINE",
"497 1065 LINE"
);
},
{
closed = 1;
nodes = (
"142 1065 LINE",
"142 994 LINE",
"213 994 LINE",
"213 1065 LINE"
);
},
{
closed = 1;
nodes = (
"142 71 LINE",
"213 71 LINE",
"213 142 LINE",
"142 142 LINE"
);
},
{
closed = 1;
nodes = (
"71 142 LINE",
"142 142 LINE",
"142 213 LINE",
"71 213 LINE"
);
},
{
closed = 1;
nodes = (
"213 71 LINE",
"213 0 LINE",
"426 0 LINE",
"426 71 LINE"
);
},
{
closed = 1;
nodes = (
"497 71 LINE",
"497 142 LINE",
"426 142 LINE",
"426 71 LINE"
);
},
{
closed = 1;
nodes = (
"568 142 LINE",
"568 213 LINE",
"497 213 LINE",
"497 142 LINE"
);
},
{
closed = 1;
nodes = (
"71 923 LINE",
"0 923 LINE",
"0 213 LINE",
"71 213 LINE"
);
},
{
closed = 1;
nodes = (
"568 213 LINE",
"639 213 LINE",
"639 923 LINE",
"568 923 LINE"
);
}
);
width = 781;
},
{
layerId = "D02270D2-0C41-4FF9-8B26-5AFAC61A3F8E";
paths = (
{
closed = 1;
nodes = (
"426 1065 LINE",
"426 994 LINE",
"497 994 LINE",
"497 1065 LINE"
);
},
{
closed = 1;
nodes = (
"142 1065 LINE",
"142 994 LINE",
"213 994 LINE",
"213 1065 LINE"
);
},
{
closed = 1;
nodes = (
"142 71 LINE",
"213 71 LINE",
"213 142 LINE",
"142 142 LINE"
);
},
{
closed = 1;
nodes = (
"71 142 LINE",
"142 142 LINE",
"142 213 LINE",
"71 213 LINE"
);
},
{
closed = 1;
nodes = (
"213 71 LINE",
"213 0 LINE",
"426 0 LINE",
"426 71 LINE"
);
},
{
closed = 1;
nodes = (
"497 71 LINE",
"497 142 LINE",
"426 142 LINE",
"426 71 LINE"
);
},
{
closed = 1;
nodes = (
"568 142 LINE",
"568 213 LINE",
"497 213 LINE",
"497 142 LINE"
);
},
{
closed = 1;
nodes = (
"639 213 LINE",
"639 355 LINE",
"568 355 LINE",
"568 213 LINE"
);
},
{
closed = 1;
nodes = (
"568 355 LINE",
"568 426 LINE",
"497 426 LINE",
"497 355 LINE"
);
},
{
closed = 1;
nodes = (
"568 426 LINE",
"639 426 LINE",
"639 639 LINE",
"568 639 LINE"
);
},
{
closed = 1;
nodes = (
"142 781 LINE",
"71 781 LINE",
"71 639 LINE",
"142 639 LINE"
);
},
{
closed = 1;
nodes = (
"0 923 LINE",
"0 781 LINE",
"71 781 LINE",
"71 923 LINE"
);
},
{
closed = 1;
nodes = (
"71 639 LINE",
"0 639 LINE",
"0 426 LINE",
"71 426 LINE"
);
},
{
closed = 1;
nodes = (
"71 426 LINE",
"71 355 LINE",
"142 355 LINE",
"142 426 LINE"
);
},
{
closed = 1;
nodes = (
"0 355 LINE",
"0 213 LINE",
"71 213 LINE",
"71 355 LINE"
);
},
{
closed = 1;
nodes = (
"497 852 LINE",
"568 852 LINE",
"568 923 LINE",
"497 923 LINE"
);
},
{
closed = 1;
nodes = (
"568 710 LINE",
"639 710 LINE",
"639 852 LINE",
"568 852 LINE"
);
},
{
closed = 1;
nodes = (
"568 639 LINE",
"568 710 LINE",
"497 710 LINE",
"497 639 LINE"
);
}
);
width = 781;
}
);
unicode = 00DC;
},
{
color = 11;
glyphname = Ugrave;
lastChange = "2021-11-04 14:33:34 +0000";
layers = (
{
components = (
{
name = U;
}
);
layerId = "2B49945B-6CA5-4A57-AEE9-C94C760A1D53";
paths = (
{
closed = 1;
nodes = (
"426 1065 LINE",
"355 1065 LINE",
"355 994 LINE",
"426 994 LINE"
);
},
{
closed = 1;
nodes = (
"284 1065 LINE",
"355 1065 LINE",
"355 1136 LINE",
"284 1136 LINE"
);
},
{
closed = 1;
nodes = (
"213 1136 LINE",
"284 1136 LINE",
"284 1207 LINE",
"213 1207 LINE"
);
},
{
closed = 1;
nodes = (
"142 71 LINE",
"213 71 LINE",
"213 142 LINE",
"142 142 LINE"
);
},
{
closed = 1;
nodes = (
"71 142 LINE",
"142 142 LINE",
"142 213 LINE",
"71 213 LINE"
);
},
{
closed = 1;
nodes = (
"213 71 LINE",
"213 0 LINE",
"426 0 LINE",
"426 71 LINE"
);
},
{
closed = 1;
nodes = (
"497 71 LINE",
"497 142 LINE",
"426 142 LINE",
"426 71 LINE"
);
},
{
closed = 1;
nodes = (
"568 142 LINE",
"568 213 LINE",
"497 213 LINE",
"497 142 LINE"
);
},
{
closed = 1;
nodes = (
"71 923 LINE",
"0 923 LINE",
"0 213 LINE",
"71 213 LINE"
);
},
{
closed = 1;
nodes = (
"568 213 LINE",
"639 213 LINE",
"639 923 LINE",
"568 923 LINE"
);
}
);
width = 781;
},
{
layerId = "D02270D2-0C41-4FF9-8B26-5AFAC61A3F8E";
paths = (
{
closed = 1;
nodes = (
"426 1065 LINE",
"355 1065 LINE",
"355 994 LINE",
"426 994 LINE"
);
},
{
closed = 1;
nodes = (
"284 1065 LINE",
"355 1065 LINE",
"355 1136 LINE",
"284 1136 LINE"
);
},
{
closed = 1;
nodes = (
"213 1136 LINE",
"284 1136 LINE",
"284 1207 LINE",
"213 1207 LINE"
);
},
{
closed = 1;
nodes = (
"142 71 LINE",
"213 71 LINE",
"213 142 LINE",
"142 142 LINE"
);
},
{
closed = 1;
nodes = (
"71 142 LINE",
"142 142 LINE",
"142 213 LINE",
"71 213 LINE"
);
},
{
closed = 1;
nodes = (
"213 71 LINE",
"213 0 LINE",
"426 0 LINE",
"426 71 LINE"
);
},
{
closed = 1;
nodes = (
"497 71 LINE",
"497 142 LINE",
"426 142 LINE",
"426 71 LINE"
);
},
{
closed = 1;
nodes = (
"497 142 LINE",
"568 142 LINE",
"568 284 LINE",
"497 284 LINE"
);
},
{
closed = 1;
nodes = (
"639 284 LINE",
"639 426 LINE",
"568 426 LINE",
"568 284 LINE"
);
},
{
closed = 1;
nodes = (
"568 426 LINE",
"568 497 LINE",
"497 497 LINE",
"497 426 LINE"
);
},
{
closed = 1;
nodes = (
"71 923 LINE",
"0 923 LINE",
"0 568 LINE",
"71 568 LINE"
);
},
{
closed = 1;
nodes = (
"71 568 LINE",
"71 497 LINE",
"142 497 LINE",
"142 568 LINE"
);
},
{
closed = 1;
nodes = (
"0 426 LINE",
"71 426 LINE",
"71 497 LINE",
"0 497 LINE"
);
},
{
closed = 1;
nodes = (
"71 426 LINE",
"71 355 LINE",
"142 355 LINE",
"142 426 LINE"
);
},
{
closed = 1;
nodes = (
"0 355 LINE",
"0 213 LINE",
"71 213 LINE",
"71 355 LINE"
);
},
{
closed = 1;
nodes = (
"639 852 LINE",
"639 923 LINE",
"568 923 LINE",
"568 852 LINE"
);
},
{
closed = 1;
nodes = (
"568 781 LINE",
"568 852 LINE",
"497 852 LINE",
"497 781 LINE"
);
},
{
closed = 1;
nodes = (
"568 497 LINE",
"639 497 LINE",
"639 781 LINE",
"568 781 LINE"
);
}
);
width = 781;
}
);
unicode = 00D9;
},
{
glyphname = V;
lastChange = "2021-11-04 14:33:37 +0000";
layers = (
{
layerId = "2B49945B-6CA5-4A57-AEE9-C94C760A1D53";
paths = (
{
closed = 1;
nodes = (
"71 923 LINE",
"0 923 LINE",
"0 639 LINE",
"71 639 LINE"
);
},
{
closed = 1;
nodes = (
"142 639 LINE",
"71 639 LINE",
"71 355 LINE",
"142 355 LINE"
);
},
{
closed = 1;
nodes = (
"142 355 LINE",
"142 213 LINE",
"213 213 LINE",
"213 355 LINE"
);
},
{
closed = 1;
nodes = (
"213 213 LINE",
"213 71 LINE",
"284 71 LINE",
"284 213 LINE"
);
},
{
closed = 1;
nodes = (
"355 0 LINE",
"355 71 LINE",
"284 71 LINE",
"284 0 LINE"
);
},
{
closed = 1;
nodes = (
"497 355 LINE",
"568 355 LINE",
"568 639 LINE",
"497 639 LINE"
);
},
{
closed = 1;
nodes = (
"568 639 LINE",
"639 639 LINE",
"639 923 LINE",
"568 923 LINE"
);
},
{
closed = 1;
nodes = (
"426 213 LINE",
"497 213 LINE",
"497 355 LINE",
"426 355 LINE"
);
},
{
closed = 1;
nodes = (
"355 71 LINE",
"426 71 LINE",
"426 213 LINE",
"355 213 LINE"
);
}
);
width = 781;
},
{
layerId = "D02270D2-0C41-4FF9-8B26-5AFAC61A3F8E";
paths = (
{
closed = 1;
nodes = (
"71 568 LINE",
"142 568 LINE",
"142 639 LINE",
"71 639 LINE"
);
},
{
closed = 1;
nodes = (
"142 568 LINE",
"142 497 LINE",
"213 497 LINE",
"213 568 LINE"
);
},
{
closed = 1;
nodes = (
"71 781 LINE",
"71 710 LINE",
"142 710 LINE",
"142 781 LINE"
);
},
{
closed = 1;
nodes = (
"0 639 LINE",
"71 639 LINE",
"71 710 LINE",
"0 710 LINE"
);
},
{
closed = 1;
nodes = (
"0 923 LINE",
"0 781 LINE",
"71 781 LINE",
"71 923 LINE"
);
},
{
closed = 1;
nodes = (
"71 497 LINE",
"71 355 LINE",
"142 355 LINE",
"142 497 LINE"
);
},
{
closed = 1;
nodes = (
"142 355 LINE",
"142 213 LINE",
"213 213 LINE",
"213 355 LINE"
);
},
{
closed = 1;
nodes = (
"213 213 LINE",
"213 71 LINE",
"284 71 LINE",
"284 213 LINE"
);
},
{
closed = 1;
nodes = (
"355 0 LINE",
"355 71 LINE",
"284 71 LINE",
"284 0 LINE"
);
},
{
closed = 1;
nodes = (
"497 497 LINE",
"568 497 LINE",
"568 639 LINE",
"497 639 LINE"
);
},
{
closed = 1;
nodes = (
"497 852 LINE",
"568 852 LINE",
"568 923 LINE",
"497 923 LINE"
);
},
{
closed = 1;
nodes = (
"568 639 LINE",
"639 639 LINE",
"639 852 LINE",
"568 852 LINE"
);
},
{
closed = 1;
nodes = (
"497 426 LINE",
"497 497 LINE",
"426 497 LINE",
"426 426 LINE"
);
},
{
closed = 1;
nodes = (
"568 426 LINE",
"497 426 LINE",
"497 355 LINE",
"568 355 LINE"
);
},
{
closed = 1;
nodes = (
"426 142 LINE",
"497 142 LINE",
"497 355 LINE",
"426 355 LINE"
);
},
{
closed = 1;
nodes = (
"426 71 LINE",
"426 142 LINE",
"355 142 LINE",
"355 71 LINE"
);
}
);
width = 781;
}
);
unicode = 0056;
},
{
glyphname = W;
lastChange = "2021-11-04 14:33:40 +0000";
layers = (
{
layerId = "2B49945B-6CA5-4A57-AEE9-C94C760A1D53";
paths = (
{
closed = 1;
nodes = (
"852 639 LINE",
"923 639 LINE",
"923 923 LINE",
"852 923 LINE"
);
},
{
closed = 1;
nodes = (
"781 355 LINE",
"852 355 LINE",
"852 639 LINE",
"781 639 LINE"
);
},
{
closed = 1;
nodes = (
"710 71 LINE",
"781 71 LINE",
"781 355 LINE",
"710 355 LINE"
);
},
{
closed = 1;
nodes = (
"710 0 LINE",
"710 71 LINE",
"639 71 LINE",
"639 0 LINE"
);
},
{
closed = 1;
nodes = (
"497 923 LINE",
"426 923 LINE",
"426 639 LINE",
"497 639 LINE"
);
},
{
closed = 1;
nodes = (
"568 639 LINE",
"497 639 LINE",
"497 355 LINE",
"568 355 LINE"
);
},
{
closed = 1;
nodes = (
"639 355 LINE",
"568 355 LINE",
"568 71 LINE",
"639 71 LINE"
);
},
{
closed = 1;
nodes = (
"355 355 LINE",
"426 355 LINE",
"426 639 LINE",
"355 639 LINE"
);
},
{
closed = 1;
nodes = (
"284 71 LINE",
"355 71 LINE",
"355 355 LINE",
"284 355 LINE"
);
},
{
closed = 1;
nodes = (
"284 0 LINE",
"284 71 LINE",
"213 71 LINE",
"213 0 LINE"
);
},
{
closed = 1;
nodes = (
"71 923 LINE",
"0 923 LINE",
"0 639 LINE",
"71 639 LINE"
);
},
{
closed = 1;
nodes = (
"142 639 LINE",
"71 639 LINE",
"71 355 LINE",
"142 355 LINE"
);
},
{
closed = 1;
nodes = (
"213 355 LINE",
"142 355 LINE",
"142 71 LINE",
"213 71 LINE"
);
}
);
width = 1065;
},
{
layerId = "D02270D2-0C41-4FF9-8B26-5AFAC61A3F8E";
paths = (
{
closed = 1;
nodes = (
"497 923 LINE",
"426 923 LINE",
"426 781 LINE",
"497 781 LINE"
);
},
{
closed = 1;
nodes = (
"781 923 LINE",
"781 781 LINE",
"852 781 LINE",
"852 923 LINE"
);
},
{
closed = 1;
nodes = (
"852 639 LINE",
"923 639 LINE",
"923 781 LINE",
"852 781 LINE"
);
},
{
closed = 1;
nodes = (
"781 355 LINE",
"852 355 LINE",
"852 639 LINE",
"781 639 LINE"
);
},
{
closed = 1;
nodes = (
"781 284 LINE",
"781 355 LINE",
"710 355 LINE",
"710 284 LINE"
);
},
{
closed = 1;
nodes = (
"852 284 LINE",
"781 284 LINE",
"781 213 LINE",
"852 213 LINE"
);
},
{
closed = 1;
nodes = (
"710 71 LINE",
"781 71 LINE",
"781 213 LINE",
"710 213 LINE"
);
},
{
closed = 1;
nodes = (
"710 0 LINE",
"710 71 LINE",
"639 71 LINE",
"639 0 LINE"
);
},
{
closed = 1;
nodes = (
"355 710 LINE",
"426 710 LINE",
"426 781 LINE",
"355 781 LINE"
);
},
{
closed = 1;
nodes = (
"426 639 LINE",
"497 639 LINE",
"497 710 LINE",
"426 710 LINE"
);
},
{
closed = 1;
nodes = (
"568 639 LINE",
"497 639 LINE",
"497 355 LINE",
"568 355 LINE"
);
},
{
closed = 1;
nodes = (
"639 355 LINE",
"568 355 LINE",
"568 71 LINE",
"639 71 LINE"
);
},
{
closed = 1;
nodes = (
"0 852 LINE",
"71 852 LINE",
"71 923 LINE",
"0 923 LINE"
);
},
{
closed = 1;
nodes = (
"355 355 LINE",
"426 355 LINE",
"426 639 LINE",
"355 639 LINE"
);
},
{
closed = 1;
nodes = (
"284 71 LINE",
"355 71 LINE",
"355 355 LINE",
"284 355 LINE"
);
},
{
closed = 1;
nodes = (
"284 0 LINE",
"284 71 LINE",
"213 71 LINE",
"213 0 LINE"
);
},
{
closed = 1;
nodes = (
"142 852 LINE",
"71 852 LINE",
"71 710 LINE",
"142 710 LINE"
);
},
{
closed = 1;
nodes = (
"0 639 LINE",
"71 639 LINE",
"71 710 LINE",
"0 710 LINE"
);
},
{
closed = 1;
nodes = (
"142 639 LINE",
"71 639 LINE",
"71 355 LINE",
"142 355 LINE"
);
},
{
closed = 1;
nodes = (
"213 355 LINE",
"142 355 LINE",
"142 213 LINE",
"213 213 LINE"
);
},
{
closed = 1;
nodes = (
"71 142 LINE",
"142 142 LINE",
"142 213 LINE",
"71 213 LINE"
);
},
{
closed = 1;
nodes = (
"142 71 LINE",
"213 71 LINE",
"213 142 LINE",
"142 142 LINE"
);
}
);
width = 1065;
}
);
unicode = 0057;
},
{
glyphname = X;
lastChange = "2021-11-04 14:33:43 +0000";
layers = (
{
layerId = "2B49945B-6CA5-4A57-AEE9-C94C760A1D53";
paths = (
{
closed = 1;
nodes = (
"142 710 LINE",
"142 568 LINE",
"213 568 LINE",
"213 710 LINE"
);
},
{
closed = 1;
nodes = (
"213 497 LINE",
"284 497 LINE",
"284 568 LINE",
"213 568 LINE"
);
},
{
closed = 1;
nodes = (
"355 426 LINE",
"355 497 LINE",
"284 497 LINE",
"284 426 LINE"
);
},
{
closed = 1;
nodes = (
"426 497 LINE",
"426 568 LINE",
"355 568 LINE",
"355 497 LINE"
);
},
{
closed = 1;
nodes = (
"284 355 LINE",
"284 426 LINE",
"213 426 LINE",
"213 355 LINE"
);
},
{
closed = 1;
nodes = (
"142 213 LINE",
"213 213 LINE",
"213 355 LINE",
"142 355 LINE"
);
},
{
closed = 1;
nodes = (
"71 71 LINE",
"142 71 LINE",
"142 213 LINE",
"71 213 LINE"
);
},
{
closed = 1;
nodes = (
"71 0 LINE",
"71 71 LINE",
"0 71 LINE",
"0 0 LINE"
);
},
{
closed = 1;
nodes = (
"426 568 LINE",
"497 568 LINE",
"497 710 LINE",
"426 710 LINE"
);
},
{
closed = 1;
nodes = (
"497 710 LINE",
"568 710 LINE",
"568 852 LINE",
"497 852 LINE"
);
},
{
closed = 1;
nodes = (
"639 852 LINE",
"639 923 LINE",
"568 923 LINE",
"568 852 LINE"
);
},
{
closed = 1;
nodes = (
"71 852 LINE",
"71 710 LINE",
"142 710 LINE",
"142 852 LINE"
);
},
{
closed = 1;
nodes = (
"0 852 LINE",
"71 852 LINE",
"71 923 LINE",
"0 923 LINE"
);
},
{
closed = 1;
nodes = (
"426 426 LINE",
"355 426 LINE",
"355 355 LINE",
"426 355 LINE"
);
},
{
closed = 1;
nodes = (
"497 213 LINE",
"497 355 LINE",
"426 355 LINE",
"426 213 LINE"
);
},
{
closed = 1;
nodes = (
"568 71 LINE",
"568 213 LINE",
"497 213 LINE",
"497 71 LINE"
);
},
{
closed = 1;
nodes = (
"639 71 LINE",
"568 71 LINE",
"568 0 LINE",
"639 0 LINE"
);
}
);
width = 781;
},
{
layerId = "D02270D2-0C41-4FF9-8B26-5AFAC61A3F8E";
paths = (
{
closed = 1;
nodes = (
"0 781 LINE",
"0 710 LINE",
"71 710 LINE",
"71 781 LINE"
);
},
{
closed = 1;
nodes = (
"142 710 LINE",
"142 568 LINE",
"213 568 LINE",
"213 710 LINE"
);
},
{
closed = 1;
nodes = (
"213 497 LINE",
"284 497 LINE",
"284 568 LINE",
"213 568 LINE"
);
},
{
closed = 1;
nodes = (
"284 426 LINE",
"355 426 LINE",
"355 497 LINE",
"284 497 LINE"
);
},
{
closed = 1;
nodes = (
"355 568 LINE",
"355 497 LINE",
"426 497 LINE",
"426 568 LINE"
);
},
{
closed = 1;
nodes = (
"284 355 LINE",
"284 426 LINE",
"213 426 LINE",
"213 355 LINE"
);
},
{
closed = 1;
nodes = (
"142 213 LINE",
"213 213 LINE",
"213 355 LINE",
"142 355 LINE"
);
},
{
closed = 1;
nodes = (
"71 71 LINE",
"142 71 LINE",
"142 213 LINE",
"71 213 LINE"
);
},
{
closed = 1;
nodes = (
"71 0 LINE",
"71 71 LINE",
"0 71 LINE",
"0 0 LINE"
);
},
{
closed = 1;
nodes = (
"568 639 LINE",
"497 639 LINE",
"497 568 LINE",
"568 568 LINE"
);
},
{
closed = 1;
nodes = (
"426 639 LINE",
"497 639 LINE",
"497 781 LINE",
"426 781 LINE"
);
},
{
closed = 1;
nodes = (
"568 781 LINE",
"568 852 LINE",
"497 852 LINE",
"497 781 LINE"
);
},
{
closed = 1;
nodes = (
"639 852 LINE",
"639 923 LINE",
"568 923 LINE",
"568 852 LINE"
);
},
{
closed = 1;
nodes = (
"71 852 LINE",
"71 781 LINE",
"142 781 LINE",
"142 852 LINE"
);
},
{
closed = 1;
nodes = (
"0 852 LINE",
"71 852 LINE",
"71 923 LINE",
"0 923 LINE"
);
},
{
closed = 1;
nodes = (
"355 355 LINE",
"426 355 LINE",
"426 426 LINE",
"355 426 LINE"
);
},
{
closed = 1;
nodes = (
"426 284 LINE",
"497 284 LINE",
"497 355 LINE",
"426 355 LINE"
);
},
{
closed = 1;
nodes = (
"497 284 LINE",
"497 213 LINE",
"568 213 LINE",
"568 284 LINE"
);
},
{
closed = 1;
nodes = (
"426 142 LINE",
"497 142 LINE",
"497 213 LINE",
"426 213 LINE"
);
},
{
closed = 1;
nodes = (
"497 71 LINE",
"568 71 LINE",
"568 142 LINE",
"497 142 LINE"
);
},
{
closed = 1;
nodes = (
"639 0 LINE",
"639 71 LINE",
"568 71 LINE",
"568 0 LINE"
);
}
);
width = 781;
}
);
unicode = 0058;
},
{
glyphname = Y;
lastChange = "2021-11-04 14:33:45 +0000";
layers = (
{
layerId = "2B49945B-6CA5-4A57-AEE9-C94C760A1D53";
paths = (
{
closed = 1;
nodes = (
"142 710 LINE",
"142 568 LINE",
"213 568 LINE",
"213 710 LINE"
);
},
{
closed = 1;
nodes = (
"213 497 LINE",
"284 497 LINE",
"284 568 LINE",
"213 568 LINE"
);
},
{
closed = 1;
nodes = (
"284 0 LINE",
"355 0 LINE",
"355 497 LINE",
"284 497 LINE"
);
},
{
closed = 1;
nodes = (
"426 497 LINE",
"426 568 LINE",
"355 568 LINE",
"355 497 LINE"
);
},
{
closed = 1;
nodes = (
"426 568 LINE",
"497 568 LINE",
"497 710 LINE",
"426 710 LINE"
);
},
{
closed = 1;
nodes = (
"497 710 LINE",
"568 710 LINE",
"568 852 LINE",
"497 852 LINE"
);
},
{
closed = 1;
nodes = (
"639 852 LINE",
"639 923 LINE",
"568 923 LINE",
"568 852 LINE"
);
},
{
closed = 1;
nodes = (
"71 852 LINE",
"71 710 LINE",
"142 710 LINE",
"142 852 LINE"
);
},
{
closed = 1;
nodes = (
"0 852 LINE",
"71 852 LINE",
"71 923 LINE",
"0 923 LINE"
);
}
);
width = 781;
},
{
layerId = "D02270D2-0C41-4FF9-8B26-5AFAC61A3F8E";
paths = (
{
closed = 1;
nodes = (
"142 710 LINE",
"142 852 LINE",
"71 852 LINE",
"71 710 LINE"
);
},
{
closed = 1;
nodes = (
"213 710 LINE",
"142 710 LINE",
"142 639 LINE",
"213 639 LINE"
);
},
{
closed = 1;
nodes = (
"142 568 LINE",
"142 639 LINE",
"71 639 LINE",
"71 568 LINE"
);
},
{
closed = 1;
nodes = (
"213 497 LINE",
"284 497 LINE",
"284 568 LINE",
"213 568 LINE"
);
},
{
closed = 1;
nodes = (
"284 355 LINE",
"355 355 LINE",
"355 497 LINE",
"284 497 LINE"
);
},
{
closed = 1;
nodes = (
"426 355 LINE",
"355 355 LINE",
"355 284 LINE",
"426 284 LINE"
);
},
{
closed = 1;
nodes = (
"355 213 LINE",
"355 284 LINE",
"284 284 LINE",
"284 213 LINE"
);
},
{
closed = 1;
nodes = (
"426 213 LINE",
"355 213 LINE",
"355 142 LINE",
"426 142 LINE"
);
},
{
closed = 1;
nodes = (
"284 0 LINE",
"355 0 LINE",
"355 142 LINE",
"284 142 LINE"
);
},
{
closed = 1;
nodes = (
"426 497 LINE",
"426 568 LINE",
"355 568 LINE",
"355 497 LINE"
);
},
{
closed = 1;
nodes = (
"497 710 LINE",
"426 710 LINE",
"426 568 LINE",
"497 568 LINE"
);
},
{
closed = 1;
nodes = (
"639 781 LINE",
"568 781 LINE",
"568 710 LINE",
"639 710 LINE"
);
},
{
closed = 1;
nodes = (
"568 781 LINE",
"568 852 LINE",
"497 852 LINE",
"497 781 LINE"
);
},
{
closed = 1;
nodes = (
"639 852 LINE",
"639 923 LINE",
"568 923 LINE",
"568 852 LINE"
);
},
{
closed = 1;
nodes = (
"0 923 LINE",
"0 852 LINE",
"71 852 LINE",
"71 923 LINE"
);
}
);
width = 781;
}
);
unicode = 0059;
},
{
color = 11;
glyphname = Ydieresis;
lastChange = "2021-11-04 14:33:48 +0000";
layers = (
{
components = (
{
name = Y;
}
);
layerId = "2B49945B-6CA5-4A57-AEE9-C94C760A1D53";
paths = (
{
closed = 1;
nodes = (
"142 710 LINE",
"142 568 LINE",
"213 568 LINE",
"213 710 LINE"
);
},
{
closed = 1;
nodes = (
"213 498 LINE",
"285 498 LINE",
"285 568 LINE",
"213 568 LINE"
);
},
{
closed = 1;
nodes = (
"285 0 LINE",
"355 0 LINE",
"355 498 LINE",
"285 498 LINE"
);
},
{
closed = 1;
nodes = (
"426 498 LINE",
"426 568 LINE",
"355 568 LINE",
"355 498 LINE"
);
},
{
closed = 1;
nodes = (
"426 568 LINE",
"498 568 LINE",
"498 710 LINE",
"426 710 LINE"
);
},
{
closed = 1;
nodes = (
"498 710 LINE",
"568 710 LINE",
"568 853 LINE",
"498 853 LINE"
);
},
{
closed = 1;
nodes = (
"639 853 LINE",
"639 923 LINE",
"568 923 LINE",
"568 853 LINE"
);
},
{
closed = 1;
nodes = (
"71 853 LINE",
"71 710 LINE",
"142 710 LINE",
"142 853 LINE"
);
},
{
closed = 1;
nodes = (
"0 853 LINE",
"71 853 LINE",
"71 923 LINE",
"0 923 LINE"
);
},
{
closed = 1;
nodes = (
"426 1066 LINE",
"426 994 LINE",
"498 994 LINE",
"498 1066 LINE"
);
},
{
closed = 1;
nodes = (
"142 1066 LINE",
"142 994 LINE",
"213 994 LINE",
"213 1066 LINE"
);
}
);
width = 781;
},
{
layerId = "D02270D2-0C41-4FF9-8B26-5AFAC61A3F8E";
paths = (
{
closed = 1;
nodes = (
"426 1066 LINE",
"426 994 LINE",
"498 994 LINE",
"498 1066 LINE"
);
},
{
closed = 1;
nodes = (
"142 1066 LINE",
"142 994 LINE",
"213 994 LINE",
"213 1066 LINE"
);
},
{
closed = 1;
nodes = (
"213 781 LINE",
"142 781 LINE",
"142 568 LINE",
"213 568 LINE"
);
},
{
closed = 1;
nodes = (
"213 497 LINE",
"284 497 LINE",
"284 568 LINE",
"213 568 LINE"
);
},
{
closed = 1;
nodes = (
"355 426 LINE",
"355 497 LINE",
"284 497 LINE",
"284 426 LINE"
);
},
{
closed = 1;
nodes = (
"284 355 LINE",
"284 426 LINE",
"213 426 LINE",
"213 355 LINE"
);
},
{
closed = 1;
nodes = (
"284 142 LINE",
"355 142 LINE",
"355 355 LINE",
"284 355 LINE"
);
},
{
closed = 1;
nodes = (
"284 71 LINE",
"284 142 LINE",
"213 142 LINE",
"213 71 LINE"
);
},
{
closed = 1;
nodes = (
"355 71 LINE",
"284 71 LINE",
"284 0 LINE",
"355 0 LINE"
);
},
{
closed = 1;
nodes = (
"426 497 LINE",
"426 568 LINE",
"355 568 LINE",
"355 497 LINE"
);
},
{
closed = 1;
nodes = (
"426 568 LINE",
"497 568 LINE",
"497 710 LINE",
"426 710 LINE"
);
},
{
closed = 1;
nodes = (
"497 710 LINE",
"568 710 LINE",
"568 852 LINE",
"497 852 LINE"
);
},
{
closed = 1;
nodes = (
"639 852 LINE",
"639 923 LINE",
"568 923 LINE",
"568 852 LINE"
);
},
{
closed = 1;
nodes = (
"71 781 LINE",
"142 781 LINE",
"142 852 LINE",
"71 852 LINE"
);
},
{
closed = 1;
nodes = (
"0 852 LINE",
"71 852 LINE",
"71 923 LINE",
"0 923 LINE"
);
}
);
width = 781;
}
);
unicode = 0178;
},
{
glyphname = Z;
lastChange = "2021-11-04 14:33:50 +0000";
layers = (
{
layerId = "2B49945B-6CA5-4A57-AEE9-C94C760A1D53";
paths = (
{
closed = 1;
nodes = (
"426 497 LINE",
"426 568 LINE",
"355 568 LINE",
"355 497 LINE"
);
},
{
closed = 1;
nodes = (
"355 426 LINE",
"355 497 LINE",
"284 497 LINE",
"284 426 LINE"
);
},
{
closed = 1;
nodes = (
"284 355 LINE",
"284 426 LINE",
"213 426 LINE",
"213 355 LINE"
);
},
{
closed = 1;
nodes = (
"213 284 LINE",
"213 355 LINE",
"142 355 LINE",
"142 284 LINE"
);
},
{
closed = 1;
nodes = (
"0 0 LINE",
"639 0 LINE",
"639 71 LINE",
"71 71 LINE",
"71 142 LINE",
"0 142 LINE"
);
},
{
closed = 1;
nodes = (
"71 142 LINE",
"142 142 LINE",
"142 284 LINE",
"71 284 LINE"
);
},
{
closed = 1;
nodes = (
"0 923 LINE",
"0 852 LINE",
"568 852 LINE",
"568 781 LINE",
"639 781 LINE",
"639 923 LINE",
"568 923 LINE"
);
},
{
closed = 1;
nodes = (
"497 568 LINE",
"497 639 LINE",
"426 639 LINE",
"426 568 LINE"
);
},
{
closed = 1;
nodes = (
"497 639 LINE",
"568 639 LINE",
"568 781 LINE",
"497 781 LINE"
);
}
);
width = 781;
},
{
layerId = "D02270D2-0C41-4FF9-8B26-5AFAC61A3F8E";
paths = (
{
closed = 1;
nodes = (
"213 0 LINE",
"213 71 LINE",
"71 71 LINE",
"71 213 LINE",
"0 213 LINE",
"0 0 LINE"
);
},
{
closed = 1;
nodes = (
"213 142 LINE",
"213 71 LINE",
"284 71 LINE",
"284 142 LINE"
);
},
{
closed = 1;
nodes = (
"355 71 LINE",
"284 71 LINE",
"284 0 LINE",
"355 0 LINE"
);
},
{
closed = 1;
nodes = (
"497 142 LINE",
"355 142 LINE",
"355 71 LINE",
"497 71 LINE"
);
},
{
closed = 1;
nodes = (
"568 71 LINE",
"497 71 LINE",
"497 0 LINE",
"568 0 LINE"
);
},
{
closed = 1;
nodes = (
"568 142 LINE",
"568 71 LINE",
"639 71 LINE",
"639 142 LINE"
);
},
{
closed = 1;
nodes = (
"213 426 LINE",
"213 355 LINE",
"284 355 LINE",
"284 426 LINE"
);
},
{
closed = 1;
nodes = (
"142 355 LINE",
"142 284 LINE",
"213 284 LINE",
"213 355 LINE"
);
},
{
closed = 1;
nodes = (
"71 284 LINE",
"71 213 LINE",
"142 213 LINE",
"142 284 LINE"
);
},
{
closed = 1;
nodes = (
"568 781 LINE",
"568 710 LINE",
"639 710 LINE",
"639 923 LINE",
"568 923 LINE",
"568 852 LINE",
"355 852 LINE",
"355 781 LINE"
);
},
{
closed = 1;
nodes = (
"284 923 LINE",
"284 852 LINE",
"355 852 LINE",
"355 923 LINE"
);
},
{
closed = 1;
nodes = (
"284 852 LINE",
"213 852 LINE",
"213 781 LINE",
"284 781 LINE"
);
},
{
closed = 1;
nodes = (
"213 923 LINE",
"71 923 LINE",
"71 852 LINE",
"213 852 LINE"
);
},
{
closed = 1;
nodes = (
"0 852 LINE",
"0 781 LINE",
"71 781 LINE",
"71 852 LINE"
);
},
{
closed = 1;
nodes = (
"426 497 LINE",
"284 497 LINE",
"284 426 LINE",
"426 426 LINE"
);
},
{
closed = 1;
nodes = (
"497 568 LINE",
"497 639 LINE",
"426 639 LINE",
"426 568 LINE"
);
},
{
closed = 1;
nodes = (
"568 639 LINE",
"568 710 LINE",
"497 710 LINE",
"497 639 LINE"
);
}
);
width = 781;
}
);
unicode = 005A;
},
{
glyphname = a;
lastChange = "2021-11-04 14:28:52 +0000";
layers = (
{
layerId = "2B49945B-6CA5-4A57-AEE9-C94C760A1D53";
paths = (
{
closed = 1;
nodes = (
"497 355 LINE",
"142 355 LINE",
"142 284 LINE",
"497 284 LINE",
"497 142 LINE",
"426 142 LINE",
"426 71 LINE",
"497 71 LINE",
"497 0 LINE",
"568 0 LINE",
"568 497 LINE",
"497 497 LINE"
);
},
{
closed = 1;
nodes = (
"71 284 LINE",
"71 213 LINE",
"142 213 LINE",
"142 284 LINE"
);
},
{
closed = 1;
nodes = (
"0 142 LINE",
"71 142 LINE",
"71 213 LINE",
"0 213 LINE"
);
},
{
closed = 1;
nodes = (
"71 71 LINE",
"142 71 LINE",
"142 142 LINE",
"71 142 LINE"
);
},
{
closed = 1;
nodes = (
"142 71 LINE",
"142 0 LINE",
"426 0 LINE",
"426 71 LINE"
);
},
{
closed = 1;
nodes = (
"71 426 LINE",
"71 497 LINE",
"0 497 LINE",
"0 426 LINE"
);
},
{
closed = 1;
nodes = (
"426 497 LINE",
"497 497 LINE",
"497 568 LINE",
"426 568 LINE"
);
},
{
closed = 1;
nodes = (
"142 497 LINE",
"142 568 LINE",
"71 568 LINE",
"71 497 LINE"
);
},
{
closed = 1;
nodes = (
"142 639 LINE",
"142 568 LINE",
"426 568 LINE",
"426 639 LINE"
);
}
);
width = 710;
},
{
layerId = "D02270D2-0C41-4FF9-8B26-5AFAC61A3F8E";
paths = (
{
closed = 1;
nodes = (
"497 213 LINE",
"568 213 LINE",
"568 497 LINE",
"497 497 LINE",
"497 355 LINE",
"355 355 LINE",
"355 284 LINE",
"497 284 LINE"
);
},
{
closed = 1;
nodes = (
"355 284 LINE",
"284 284 LINE",
"284 213 LINE",
"355 213 LINE"
);
},
{
closed = 1;
nodes = (
"284 355 LINE",
"142 355 LINE",
"142 284 LINE",
"284 284 LINE"
);
},
{
closed = 1;
nodes = (
"71 284 LINE",
"71 213 LINE",
"142 213 LINE",
"142 284 LINE"
);
},
{
closed = 1;
nodes = (
"0 213 LINE",
"0 142 LINE",
"71 142 LINE",
"71 213 LINE"
);
},
{
closed = 1;
nodes = (
"71 71 LINE",
"142 71 LINE",
"142 142 LINE",
"71 142 LINE"
);
},
{
closed = 1;
nodes = (
"284 0 LINE",
"426 0 LINE",
"426 71 LINE",
"284 71 LINE"
);
},
{
closed = 1;
nodes = (
"213 71 LINE",
"284 71 LINE",
"284 142 LINE",
"213 142 LINE"
);
},
{
closed = 1;
nodes = (
"213 0 LINE",
"213 71 LINE",
"142 71 LINE",
"142 0 LINE"
);
},
{
closed = 1;
nodes = (
"71 426 LINE",
"71 497 LINE",
"0 497 LINE",
"0 426 LINE"
);
},
{
closed = 1;
nodes = (
"426 497 LINE",
"497 497 LINE",
"497 568 LINE",
"426 568 LINE"
);
},
{
closed = 1;
nodes = (
"426 71 LINE",
"497 71 LINE",
"497 0 LINE",
"568 0 LINE",
"568 142 LINE",
"497 142 LINE",
"497 213 LINE",
"426 213 LINE"
);
},
{
closed = 1;
nodes = (
"142 639 LINE",
"142 568 LINE",
"284 568 LINE",
"284 639 LINE"
);
},
{
closed = 1;
nodes = (
"142 497 LINE",
"142 568 LINE",
"71 568 LINE",
"71 497 LINE"
);
},
{
closed = 1;
nodes = (
"355 497 LINE",
"355 568 LINE",
"284 568 LINE",
"284 497 LINE"
);
},
{
closed = 1;
nodes = (
"355 568 LINE",
"426 568 LINE",
"426 639 LINE",
"355 639 LINE"
);
}
);
width = 710;
}
);
unicode = 0061;
},
{
color = 10;
glyphname = acircumflex;
lastChange = "2021-11-04 14:28:54 +0000";
layers = (
{
components = (
{
name = a;
}
);
layerId = "2B49945B-6CA5-4A57-AEE9-C94C760A1D53";
paths = (
{
closed = 1;
nodes = (
"497 781 LINE",
"426 781 LINE",
"426 710 LINE",
"497 710 LINE"
);
},
{
closed = 1;
nodes = (
"355 781 LINE",
"426 781 LINE",
"426 852 LINE",
"355 852 LINE"
);
},
{
closed = 1;
nodes = (
"213 923 LINE",
"213 852 LINE",
"355 852 LINE",
"355 923 LINE"
);
},
{
closed = 1;
nodes = (
"142 710 LINE",
"142 781 LINE",
"71 781 LINE",
"71 710 LINE"
);
},
{
closed = 1;
nodes = (
"213 781 LINE",
"213 852 LINE",
"142 852 LINE",
"142 781 LINE"
);
},
{
closed = 1;
nodes = (
"497 284 LINE",
"497 142 LINE",
"426 142 LINE",
"426 71 LINE",
"497 71 LINE",
"497 0 LINE",
"568 0 LINE",
"568 497 LINE",
"497 497 LINE",
"497 355 LINE",
"142 355 LINE",
"142 284 LINE"
);
},
{
closed = 1;
nodes = (
"71 284 LINE",
"71 213 LINE",
"142 213 LINE",
"142 284 LINE"
);
},
{
closed = 1;
nodes = (
"0 213 LINE",
"0 142 LINE",
"71 142 LINE",
"71 213 LINE"
);
},
{
closed = 1;
nodes = (
"71 71 LINE",
"142 71 LINE",
"142 142 LINE",
"71 142 LINE"
);
},
{
closed = 1;
nodes = (
"142 71 LINE",
"142 0 LINE",
"426 0 LINE",
"426 71 LINE"
);
},
{
closed = 1;
nodes = (
"71 426 LINE",
"71 497 LINE",
"0 497 LINE",
"0 426 LINE"
);
},
{
closed = 1;
nodes = (
"426 497 LINE",
"497 497 LINE",
"497 568 LINE",
"426 568 LINE"
);
},
{
closed = 1;
nodes = (
"142 497 LINE",
"142 568 LINE",
"71 568 LINE",
"71 497 LINE"
);
},
{
closed = 1;
nodes = (
"142 639 LINE",
"142 568 LINE",
"426 568 LINE",
"426 639 LINE"
);
}
);
width = 710;
},
{
layerId = "D02270D2-0C41-4FF9-8B26-5AFAC61A3F8E";
paths = (
{
closed = 1;
nodes = (
"497 781 LINE",
"426 781 LINE",
"426 710 LINE",
"497 710 LINE"
);
},
{
closed = 1;
nodes = (
"355 781 LINE",
"426 781 LINE",
"426 852 LINE",
"355 852 LINE"
);
},
{
closed = 1;
nodes = (
"284 852 LINE",
"355 852 LINE",
"355 923 LINE",
"284 923 LINE"
);
},
{
closed = 1;
nodes = (
"142 710 LINE",
"142 781 LINE",
"71 781 LINE",
"71 710 LINE"
);
},
{
closed = 1;
nodes = (
"142 781 LINE",
"284 781 LINE",
"284 852 LINE",
"142 852 LINE"
);
},
{
closed = 1;
nodes = (
"497 142 LINE",
"426 142 LINE",
"426 71 LINE",
"497 71 LINE",
"497 0 LINE",
"568 0 LINE",
"568 497 LINE",
"497 497 LINE",
"497 284 LINE",
"426 284 LINE",
"426 213 LINE",
"497 213 LINE"
);
},
{
closed = 1;
nodes = (
"426 284 LINE",
"426 355 LINE",
"142 355 LINE",
"142 284 LINE"
);
},
{
closed = 1;
nodes = (
"71 284 LINE",
"71 213 LINE",
"142 213 LINE",
"142 284 LINE"
);
},
{
closed = 1;
nodes = (
"0 213 LINE",
"0 142 LINE",
"71 142 LINE",
"71 213 LINE"
);
},
{
closed = 1;
nodes = (
"71 71 LINE",
"142 71 LINE",
"142 142 LINE",
"71 142 LINE"
);
},
{
closed = 1;
nodes = (
"142 71 LINE",
"142 0 LINE",
"426 0 LINE",
"426 71 LINE"
);
},
{
closed = 1;
nodes = (
"71 426 LINE",
"71 497 LINE",
"0 497 LINE",
"0 426 LINE"
);
},
{
closed = 1;
nodes = (
"426 497 LINE",
"497 497 LINE",
"497 568 LINE",
"426 568 LINE"
);
},
{
closed = 1;
nodes = (
"213 568 LINE",
"284 568 LINE",
"284 639 LINE",
"213 639 LINE"
);
},
{
closed = 1;
nodes = (
"71 497 LINE",
"213 497 LINE",
"213 568 LINE",
"71 568 LINE"
);
},
{
closed = 1;
nodes = (
"355 497 LINE",
"355 568 LINE",
"284 568 LINE",
"284 497 LINE"
);
},
{
closed = 1;
nodes = (
"355 568 LINE",
"426 568 LINE",
"426 639 LINE",
"355 639 LINE"
);
}
);
width = 710;
}
);
unicode = 00E2;
},
{
color = 10;
glyphname = adieresis;
lastChange = "2021-11-04 14:28:56 +0000";
layers = (
{
components = (
{
name = a;
}
);
layerId = "2B49945B-6CA5-4A57-AEE9-C94C760A1D53";
paths = (
{
closed = 1;
nodes = (
"426 781 LINE",
"426 852 LINE",
"355 852 LINE",
"355 781 LINE"
);
},
{
closed = 1;
nodes = (
"213 781 LINE",
"213 852 LINE",
"142 852 LINE",
"142 781 LINE"
);
},
{
closed = 1;
nodes = (
"497 284 LINE",
"497 142 LINE",
"426 142 LINE",
"426 71 LINE",
"497 71 LINE",
"497 0 LINE",
"568 0 LINE",
"568 497 LINE",
"497 497 LINE",
"497 355 LINE",
"142 355 LINE",
"142 284 LINE"
);
},
{
closed = 1;
nodes = (
"71 284 LINE",
"71 213 LINE",
"142 213 LINE",
"142 284 LINE"
);
},
{
closed = 1;
nodes = (
"0 213 LINE",
"0 142 LINE",
"71 142 LINE",
"71 213 LINE"
);
},
{
closed = 1;
nodes = (
"71 71 LINE",
"142 71 LINE",
"142 142 LINE",
"71 142 LINE"
);
},
{
closed = 1;
nodes = (
"142 71 LINE",
"142 0 LINE",
"426 0 LINE",
"426 71 LINE"
);
},
{
closed = 1;
nodes = (
"71 426 LINE",
"71 497 LINE",
"0 497 LINE",
"0 426 LINE"
);
},
{
closed = 1;
nodes = (
"426 497 LINE",
"497 497 LINE",
"497 568 LINE",
"426 568 LINE"
);
},
{
closed = 1;
nodes = (
"142 497 LINE",
"142 568 LINE",
"71 568 LINE",
"71 497 LINE"
);
},
{
closed = 1;
nodes = (
"142 639 LINE",
"142 568 LINE",
"426 568 LINE",
"426 639 LINE"
);
}
);
width = 710;
},
{
layerId = "D02270D2-0C41-4FF9-8B26-5AFAC61A3F8E";
paths = (
{
closed = 1;
nodes = (
"426 782 LINE",
"426 853 LINE",
"355 853 LINE",
"355 782 LINE"
);
},
{
closed = 1;
nodes = (
"213 782 LINE",
"213 853 LINE",
"142 853 LINE",
"142 782 LINE"
);
},
{
closed = 1;
nodes = (
"498 142 LINE",
"426 142 LINE",
"426 71 LINE",
"142 71 LINE",
"142 0 LINE",
"498 0 LINE",
"498 71 LINE",
"569 71 LINE",
"569 355 LINE",
"498 355 LINE",
"498 426 LINE",
"426 426 LINE",
"426 355 LINE",
"355 355 LINE",
"355 285 LINE",
"498 285 LINE"
);
},
{
closed = 1;
nodes = (
"355 285 LINE",
"285 285 LINE",
"285 213 LINE",
"355 213 LINE"
);
},
{
closed = 1;
nodes = (
"285 355 LINE",
"142 355 LINE",
"142 285 LINE",
"285 285 LINE"
);
},
{
closed = 1;
nodes = (
"71 285 LINE",
"71 213 LINE",
"142 213 LINE",
"142 285 LINE"
);
},
{
closed = 1;
nodes = (
"0 213 LINE",
"0 142 LINE",
"71 142 LINE",
"71 213 LINE"
);
},
{
closed = 1;
nodes = (
"71 71 LINE",
"142 71 LINE",
"142 142 LINE",
"71 142 LINE"
);
},
{
closed = 1;
nodes = (
"71 426 LINE",
"71 498 LINE",
"0 498 LINE",
"0 426 LINE"
);
},
{
closed = 1;
nodes = (
"355 569 LINE",
"355 498 LINE",
"498 498 LINE",
"498 569 LINE"
);
},
{
closed = 1;
nodes = (
"498 498 LINE",
"498 426 LINE",
"569 426 LINE",
"569 498 LINE"
);
},
{
closed = 1;
nodes = (
"285 498 LINE",
"285 569 LINE",
"213 569 LINE",
"213 498 LINE"
);
},
{
closed = 1;
nodes = (
"142 569 LINE",
"213 569 LINE",
"213 639 LINE",
"142 639 LINE"
);
},
{
closed = 1;
nodes = (
"142 498 LINE",
"142 569 LINE",
"71 569 LINE",
"71 498 LINE"
);
},
{
closed = 1;
nodes = (
"285 569 LINE",
"355 569 LINE",
"355 639 LINE",
"285 639 LINE"
);
}
);
width = 711;
}
);
unicode = 00E4;
},
{
color = 10;
glyphname = agrave;
lastChange = "2021-11-04 14:28:58 +0000";
layers = (
{
components = (
{
name = a;
}
);
layerId = "2B49945B-6CA5-4A57-AEE9-C94C760A1D53";
paths = (
{
closed = 1;
nodes = (
"355 782 LINE",
"284 782 LINE",
"284 710 LINE",
"355 710 LINE"
);
},
{
closed = 1;
nodes = (
"284 853 LINE",
"213 853 LINE",
"213 782 LINE",
"284 782 LINE"
);
},
{
closed = 1;
nodes = (
"142 853 LINE",
"213 853 LINE",
"213 924 LINE",
"142 924 LINE"
);
},
{
closed = 1;
nodes = (
"497 284 LINE",
"497 142 LINE",
"426 142 LINE",
"426 71 LINE",
"497 71 LINE",
"497 0 LINE",
"568 0 LINE",
"568 497 LINE",
"497 497 LINE",
"497 355 LINE",
"142 355 LINE",
"142 284 LINE"
);
},
{
closed = 1;
nodes = (
"71 284 LINE",
"71 213 LINE",
"142 213 LINE",
"142 284 LINE"
);
},
{
closed = 1;
nodes = (
"0 213 LINE",
"0 142 LINE",
"71 142 LINE",
"71 213 LINE"
);
},
{
closed = 1;
nodes = (
"71 71 LINE",
"142 71 LINE",
"142 142 LINE",
"71 142 LINE"
);
},
{
closed = 1;
nodes = (
"142 71 LINE",
"142 0 LINE",
"426 0 LINE",
"426 71 LINE"
);
},
{
closed = 1;
nodes = (
"71 426 LINE",
"71 497 LINE",
"0 497 LINE",
"0 426 LINE"
);
},
{
closed = 1;
nodes = (
"426 497 LINE",
"497 497 LINE",
"497 568 LINE",
"426 568 LINE"
);
},
{
closed = 1;
nodes = (
"142 497 LINE",
"142 568 LINE",
"71 568 LINE",
"71 497 LINE"
);
},
{
closed = 1;
nodes = (
"142 639 LINE",
"142 568 LINE",
"426 568 LINE",
"426 639 LINE"
);
}
);
width = 710;
},
{
layerId = "D02270D2-0C41-4FF9-8B26-5AFAC61A3F8E";
paths = (
{
closed = 1;
nodes = (
"355 781 LINE",
"284 781 LINE",
"284 710 LINE",
"355 710 LINE"
);
},
{
closed = 1;
nodes = (
"284 852 LINE",
"213 852 LINE",
"213 781 LINE",
"284 781 LINE"
);
},
{
closed = 1;
nodes = (
"142 852 LINE",
"213 852 LINE",
"213 923 LINE",
"142 923 LINE"
);
},
{
closed = 1;
nodes = (
"497 284 LINE",
"497 142 LINE",
"426 142 LINE",
"426 71 LINE",
"497 71 LINE",
"497 0 LINE",
"568 0 LINE",
"568 355 LINE",
"497 355 LINE",
"497 426 LINE",
"426 426 LINE",
"426 355 LINE",
"142 355 LINE",
"142 284 LINE"
);
},
{
closed = 1;
nodes = (
"71 284 LINE",
"71 213 LINE",
"142 213 LINE",
"142 284 LINE"
);
},
{
closed = 1;
nodes = (
"0 213 LINE",
"0 142 LINE",
"71 142 LINE",
"71 213 LINE"
);
},
{
closed = 1;
nodes = (
"71 71 LINE",
"142 71 LINE",
"142 142 LINE",
"71 142 LINE"
);
},
{
closed = 1;
nodes = (
"284 71 LINE",
"355 71 LINE",
"355 142 LINE",
"284 142 LINE"
);
},
{
closed = 1;
nodes = (
"142 0 LINE",
"284 0 LINE",
"284 71 LINE",
"142 71 LINE"
);
},
{
closed = 1;
nodes = (
"426 0 LINE",
"426 71 LINE",
"355 71 LINE",
"355 0 LINE"
);
},
{
closed = 1;
nodes = (
"71 426 LINE",
"71 497 LINE",
"0 497 LINE",
"0 426 LINE"
);
},
{
closed = 1;
nodes = (
"426 497 LINE",
"497 497 LINE",
"497 568 LINE",
"426 568 LINE"
);
},
{
closed = 1;
nodes = (
"497 497 LINE",
"497 426 LINE",
"568 426 LINE",
"568 497 LINE"
);
},
{
closed = 1;
nodes = (
"284 497 LINE",
"284 568 LINE",
"213 568 LINE",
"213 497 LINE"
);
},
{
closed = 1;
nodes = (
"142 568 LINE",
"213 568 LINE",
"213 639 LINE",
"142 639 LINE"
);
},
{
closed = 1;
nodes = (
"142 497 LINE",
"142 568 LINE",
"71 568 LINE",
"71 497 LINE"
);
},
{
closed = 1;
nodes = (
"284 639 LINE",
"284 568 LINE",
"426 568 LINE",
"426 639 LINE"
);
}
);
width = 710;
}
);
unicode = 00E0;
},
{
color = 10;
glyphname = ae;
lastChange = "2021-11-04 14:29:00 +0000";
layers = (
{
layerId = "2B49945B-6CA5-4A57-AEE9-C94C760A1D53";
paths = (
{
closed = 1;
nodes = (
"568 355 LINE",
"568 497 LINE",
"497 497 LINE",
"497 355 LINE",
"142 355 LINE",
"142 284 LINE",
"497 284 LINE",
"497 142 LINE",
"426 142 LINE",
"426 71 LINE",
"497 71 LINE",
"568 71 LINE",
"639 71 LINE",
"639 142 LINE",
"568 142 LINE",
"568 284 LINE",
"923 284 LINE",
"923 355 LINE"
);
},
{
closed = 1;
nodes = (
"994 355 LINE",
"994 426 LINE",
"923 426 LINE",
"923 355 LINE"
);
},
{
closed = 1;
nodes = (
"1065 426 LINE",
"1065 497 LINE",
"994 497 LINE",
"994 426 LINE"
);
},
{
closed = 1;
nodes = (
"994 568 LINE",
"923 568 LINE",
"923 497 LINE",
"994 497 LINE"
);
},
{
closed = 1;
nodes = (
"923 568 LINE",
"923 639 LINE",
"639 639 LINE",
"639 568 LINE"
);
},
{
closed = 1;
nodes = (
"568 568 LINE",
"568 497 LINE",
"639 497 LINE",
"639 568 LINE"
);
},
{
closed = 1;
nodes = (
"994 213 LINE",
"994 142 LINE",
"1065 142 LINE",
"1065 213 LINE"
);
},
{
closed = 1;
nodes = (
"923 142 LINE",
"923 71 LINE",
"994 71 LINE",
"994 142 LINE"
);
},
{
closed = 1;
nodes = (
"923 0 LINE",
"923 71 LINE",
"639 71 LINE",
"639 0 LINE"
);
},
{
closed = 1;
nodes = (
"71 284 LINE",
"71 213 LINE",
"142 213 LINE",
"142 284 LINE"
);
},
{
closed = 1;
nodes = (
"0 142 LINE",
"71 142 LINE",
"71 213 LINE",
"0 213 LINE"
);
},
{
closed = 1;
nodes = (
"71 71 LINE",
"142 71 LINE",
"142 142 LINE",
"71 142 LINE"
);
},
{
closed = 1;
nodes = (
"142 71 LINE",
"142 0 LINE",
"426 0 LINE",
"426 71 LINE"
);
},
{
closed = 1;
nodes = (
"71 426 LINE",
"71 497 LINE",
"0 497 LINE",
"0 426 LINE"
);
},
{
closed = 1;
nodes = (
"426 497 LINE",
"497 497 LINE",
"497 568 LINE",
"426 568 LINE"
);
},
{
closed = 1;
nodes = (
"142 497 LINE",
"142 568 LINE",
"71 568 LINE",
"71 497 LINE"
);
},
{
closed = 1;
nodes = (
"142 639 LINE",
"142 568 LINE",
"426 568 LINE",
"426 639 LINE"
);
}
);
width = 1207;
},
{
layerId = "D02270D2-0C41-4FF9-8B26-5AFAC61A3F8E";
paths = (
{
closed = 1;
nodes = (
"710 355 LINE",
"781 355 LINE",
"781 426 LINE",
"710 426 LINE"
);
},
{
closed = 1;
nodes = (
"781 284 LINE",
"923 284 LINE",
"923 355 LINE",
"781 355 LINE"
);
},
{
closed = 1;
nodes = (
"994 355 LINE",
"994 426 LINE",
"923 426 LINE",
"923 355 LINE"
);
},
{
closed = 1;
nodes = (
"1065 426 LINE",
"1065 497 LINE",
"994 497 LINE",
"994 426 LINE"
);
},
{
closed = 1;
nodes = (
"994 568 LINE",
"923 568 LINE",
"923 497 LINE",
"994 497 LINE"
);
},
{
closed = 1;
nodes = (
"781 639 LINE",
"639 639 LINE",
"639 568 LINE",
"781 568 LINE"
);
},
{
closed = 1;
nodes = (
"852 568 LINE",
"781 568 LINE",
"781 497 LINE",
"852 497 LINE"
);
},
{
closed = 1;
nodes = (
"852 639 LINE",
"852 568 LINE",
"923 568 LINE",
"923 639 LINE"
);
},
{
closed = 1;
nodes = (
"568 568 LINE",
"568 497 LINE",
"639 497 LINE",
"639 568 LINE"
);
},
{
closed = 1;
nodes = (
"994 213 LINE",
"994 142 LINE",
"1065 142 LINE",
"1065 213 LINE"
);
},
{
closed = 1;
nodes = (
"923 0 LINE",
"923 71 LINE",
"781 71 LINE",
"781 0 LINE"
);
},
{
closed = 1;
nodes = (
"923 142 LINE",
"923 71 LINE",
"994 71 LINE",
"994 142 LINE"
);
},
{
closed = 1;
nodes = (
"710 142 LINE",
"710 71 LINE",
"781 71 LINE",
"781 142 LINE"
);
},
{
closed = 1;
nodes = (
"710 71 LINE",
"639 71 LINE",
"639 0 LINE",
"710 0 LINE"
);
},
{
closed = 1;
nodes = (
"355 284 LINE",
"284 284 LINE",
"284 213 LINE",
"355 213 LINE"
);
},
{
closed = 1;
nodes = (
"284 355 LINE",
"142 355 LINE",
"142 284 LINE",
"284 284 LINE"
);
},
{
closed = 1;
nodes = (
"71 284 LINE",
"71 213 LINE",
"142 213 LINE",
"142 284 LINE"
);
},
{
closed = 1;
nodes = (
"0 142 LINE",
"71 142 LINE",
"71 213 LINE",
"0 213 LINE"
);
},
{
closed = 1;
nodes = (
"71 71 LINE",
"142 71 LINE",
"142 142 LINE",
"71 142 LINE"
);
},
{
closed = 1;
nodes = (
"284 0 LINE",
"426 0 LINE",
"426 71 LINE",
"284 71 LINE"
);
},
{
closed = 1;
nodes = (
"213 71 LINE",
"284 71 LINE",
"284 142 LINE",
"213 142 LINE"
);
},
{
closed = 1;
nodes = (
"213 0 LINE",
"213 71 LINE",
"142 71 LINE",
"142 0 LINE"
);
},
{
closed = 1;
nodes = (
"71 426 LINE",
"71 497 LINE",
"0 497 LINE",
"0 426 LINE"
);
},
{
closed = 1;
nodes = (
"426 497 LINE",
"497 497 LINE",
"497 568 LINE",
"426 568 LINE"
);
},
{
closed = 1;
nodes = (
"497 426 LINE",
"568 426 LINE",
"568 497 LINE",
"497 497 LINE"
);
},
{
closed = 1;
nodes = (
"568 426 LINE",
"568 355 LINE",
"497 355 LINE",
"355 355 LINE",
"355 284 LINE",
"497 284 LINE",
"497 213 LINE",
"568 213 LINE",
"568 284 LINE",
"710 284 LINE",
"710 355 LINE",
"639 355 LINE",
"639 426 LINE"
);
},
{
closed = 1;
nodes = (
"426 71 LINE",
"497 71 LINE",
"497 0 LINE",
"568 0 LINE",
"568 71 LINE",
"639 71 LINE",
"639 142 LINE",
"497 142 LINE",
"497 213 LINE",
"426 213 LINE"
);
},
{
closed = 1;
nodes = (
"142 639 LINE",
"142 568 LINE",
"284 568 LINE",
"284 639 LINE"
);
},
{
closed = 1;
nodes = (
"142 497 LINE",
"142 568 LINE",
"71 568 LINE",
"71 497 LINE"
);
},
{
closed = 1;
nodes = (
"355 497 LINE",
"355 568 LINE",
"284 568 LINE",
"284 497 LINE"
);
},
{
closed = 1;
nodes = (
"355 568 LINE",
"426 568 LINE",
"426 639 LINE",
"355 639 LINE"
);
}
);
width = 1207;
}
);
unicode = 00E6;
},
{
glyphname = b;
lastChange = "2021-11-04 14:29:02 +0000";
layers = (
{
layerId = "2B49945B-6CA5-4A57-AEE9-C94C760A1D53";
paths = (
{
closed = 1;
nodes = (
"142 71 LINE",
"142 0 LINE",
"426 0 LINE",
"426 71 LINE"
);
},
{
closed = 1;
nodes = (
"497 71 LINE",
"497 142 LINE",
"426 142 LINE",
"426 71 LINE"
);
},
{
closed = 1;
nodes = (
"497 142 LINE",
"568 142 LINE",
"568 497 LINE",
"497 497 LINE"
);
},
{
closed = 1;
nodes = (
"497 568 LINE",
"426 568 LINE",
"426 497 LINE",
"497 497 LINE"
);
},
{
closed = 1;
nodes = (
"426 568 LINE",
"426 639 LINE",
"142 639 LINE",
"142 568 LINE"
);
},
{
closed = 1;
nodes = (
"142 71 LINE",
"142 142 LINE",
"71 142 LINE",
"71 497 LINE",
"142 497 LINE",
"142 568 LINE",
"71 568 LINE",
"71 923 LINE",
"0 923 LINE",
"0 0 LINE",
"71 0 LINE",
"71 71 LINE"
);
}
);
width = 710;
},
{
layerId = "D02270D2-0C41-4FF9-8B26-5AFAC61A3F8E";
paths = (
{
closed = 1;
nodes = (
"213 0 LINE",
"213 71 LINE",
"142 71 LINE",
"142 0 LINE"
);
},
{
closed = 1;
nodes = (
"213 71 LINE",
"284 71 LINE",
"284 142 LINE",
"213 142 LINE"
);
},
{
closed = 1;
nodes = (
"284 0 LINE",
"426 0 LINE",
"426 71 LINE",
"284 71 LINE"
);
},
{
closed = 1;
nodes = (
"426 71 LINE",
"497 71 LINE",
"497 213 LINE",
"426 213 LINE"
);
},
{
closed = 1;
nodes = (
"497 213 LINE",
"568 213 LINE",
"568 426 LINE",
"497 426 LINE"
);
},
{
closed = 1;
nodes = (
"497 426 LINE",
"497 568 LINE",
"426 568 LINE",
"426 426 LINE"
);
},
{
closed = 1;
nodes = (
"426 568 LINE",
"426 639 LINE",
"142 639 LINE",
"142 568 LINE"
);
},
{
closed = 1;
nodes = (
"142 71 LINE",
"142 213 LINE",
"71 213 LINE",
"71 142 LINE",
"0 142 LINE",
"0 0 LINE",
"71 0 LINE",
"71 71 LINE"
);
},
{
closed = 1;
nodes = (
"71 497 LINE",
"142 497 LINE",
"142 568 LINE",
"71 568 LINE",
"71 710 LINE",
"0 710 LINE",
"0 213 LINE",
"71 213 LINE"
);
},
{
closed = 1;
nodes = (
"71 781 LINE",
"71 710 LINE",
"142 710 LINE",
"142 781 LINE"
);
},
{
closed = 1;
nodes = (
"0 781 LINE",
"71 781 LINE",
"71 852 LINE",
"0 852 LINE"
);
},
{
closed = 1;
nodes = (
"71 923 LINE",
"71 852 LINE",
"142 852 LINE",
"142 923 LINE"
);
}
);
width = 710;
}
);
unicode = 0062;
},
{
glyphname = c;
lastChange = "2021-11-04 14:29:05 +0000";
layers = (
{
layerId = "2B49945B-6CA5-4A57-AEE9-C94C760A1D53";
paths = (
{
closed = 1;
nodes = (
"568 497 LINE",
"497 497 LINE",
"497 426 LINE",
"568 426 LINE"
);
},
{
closed = 1;
nodes = (
"497 568 LINE",
"426 568 LINE",
"426 497 LINE",
"497 497 LINE"
);
},
{
closed = 1;
nodes = (
"426 568 LINE",
"426 639 LINE",
"142 639 LINE",
"142 568 LINE"
);
},
{
closed = 1;
nodes = (
"71 568 LINE",
"71 497 LINE",
"142 497 LINE",
"142 568 LINE"
);
},
{
closed = 1;
nodes = (
"497 213 LINE",
"497 142 LINE",
"568 142 LINE",
"568 213 LINE"
);
},
{
closed = 1;
nodes = (
"142 142 LINE",
"71 142 LINE",
"71 71 LINE",
"142 71 LINE"
);
},
{
closed = 1;
nodes = (
"71 497 LINE",
"0 497 LINE",
"0 142 LINE",
"71 142 LINE"
);
},
{
closed = 1;
nodes = (
"426 142 LINE",
"426 71 LINE",
"497 71 LINE",
"497 142 LINE"
);
},
{
closed = 1;
nodes = (
"426 0 LINE",
"426 71 LINE",
"142 71 LINE",
"142 0 LINE"
);
}
);
width = 710;
},
{
layerId = "D02270D2-0C41-4FF9-8B26-5AFAC61A3F8E";
paths = (
{
closed = 1;
nodes = (
"568 497 LINE",
"497 497 LINE",
"497 426 LINE",
"568 426 LINE"
);
},
{
closed = 1;
nodes = (
"497 568 LINE",
"426 568 LINE",
"426 497 LINE",
"497 497 LINE"
);
},
{
closed = 1;
nodes = (
"284 639 LINE",
"142 639 LINE",
"142 568 LINE",
"284 568 LINE"
);
},
{
closed = 1;
nodes = (
"355 568 LINE",
"284 568 LINE",
"284 497 LINE",
"355 497 LINE"
);
},
{
closed = 1;
nodes = (
"355 639 LINE",
"355 568 LINE",
"426 568 LINE",
"426 639 LINE"
);
},
{
closed = 1;
nodes = (
"0 426 LINE",
"71 426 LINE",
"71 497 LINE",
"0 497 LINE"
);
},
{
closed = 1;
nodes = (
"71 568 LINE",
"71 497 LINE",
"142 497 LINE",
"142 568 LINE"
);
},
{
closed = 1;
nodes = (
"497 213 LINE",
"497 142 LINE",
"568 142 LINE",
"568 213 LINE"
);
},
{
closed = 1;
nodes = (
"142 142 LINE",
"71 142 LINE",
"71 71 LINE",
"142 71 LINE"
);
},
{
closed = 1;
nodes = (
"0 213 LINE",
"0 142 LINE",
"71 142 LINE",
"71 213 LINE"
);
},
{
closed = 1;
nodes = (
"71 284 LINE",
"71 213 LINE",
"142 213 LINE",
"142 284 LINE"
);
},
{
closed = 1;
nodes = (
"0 284 LINE",
"71 284 LINE",
"71 355 LINE",
"0 355 LINE"
);
},
{
closed = 1;
nodes = (
"71 426 LINE",
"71 355 LINE",
"142 355 LINE",
"142 426 LINE"
);
},
{
closed = 1;
nodes = (
"426 0 LINE",
"426 71 LINE",
"284 71 LINE",
"284 0 LINE"
);
},
{
closed = 1;
nodes = (
"426 142 LINE",
"426 71 LINE",
"497 71 LINE",
"497 142 LINE"
);
},
{
closed = 1;
nodes = (
"213 142 LINE",
"213 71 LINE",
"284 71 LINE",
"284 142 LINE"
);
},
{
closed = 1;
nodes = (
"213 71 LINE",
"142 71 LINE",
"142 0 LINE",
"213 0 LINE"
);
}
);
width = 710;
}
);
unicode = 0063;
},
{
glyphname = ccedilla;
lastChange = "2021-11-04 14:29:07 +0000";
layers = (
{
layerId = "2B49945B-6CA5-4A57-AEE9-C94C760A1D53";
paths = (
{
closed = 1;
nodes = (
"427 -70 LINE",
"355 -70 LINE",
"355 -142 LINE",
"427 -142 LINE"
);
},
{
closed = 1;
nodes = (
"213 -213 LINE",
"355 -213 LINE",
"355 -142 LINE",
"213 -142 LINE"
);
},
{
closed = 1;
nodes = (
"568 498 LINE",
"497 498 LINE",
"497 426 LINE",
"568 426 LINE"
);
},
{
closed = 1;
nodes = (
"497 568 LINE",
"427 568 LINE",
"427 498 LINE",
"497 498 LINE"
);
},
{
closed = 1;
nodes = (
"427 568 LINE",
"427 639 LINE",
"143 639 LINE",
"143 568 LINE"
);
},
{
closed = 1;
nodes = (
"71 568 LINE",
"71 498 LINE",
"143 498 LINE",
"143 568 LINE"
);
},
{
closed = 1;
nodes = (
"497 214 LINE",
"497 142 LINE",
"568 142 LINE",
"568 214 LINE"
);
},
{
closed = 1;
nodes = (
"143 142 LINE",
"71 142 LINE",
"71 71 LINE",
"143 71 LINE"
);
},
{
closed = 1;
nodes = (
"71 498 LINE",
"0 498 LINE",
"0 142 LINE",
"71 142 LINE"
);
},
{
closed = 1;
nodes = (
"427 142 LINE",
"427 71 LINE",
"497 71 LINE",
"497 142 LINE"
);
},
{
closed = 1;
nodes = (
"284 0 LINE",
"284 -70 LINE",
"355 -70 LINE",
"355 0 LINE",
"427 0 LINE",
"427 71 LINE",
"143 71 LINE",
"143 0 LINE"
);
}
);
width = 639;
},
{
layerId = "D02270D2-0C41-4FF9-8B26-5AFAC61A3F8E";
paths = (
{
closed = 1;
nodes = (
"427 -71 LINE",
"355 -71 LINE",
"355 -142 LINE",
"427 -142 LINE"
);
},
{
closed = 1;
nodes = (
"213 -213 LINE",
"355 -213 LINE",
"355 -142 LINE",
"213 -142 LINE"
);
},
{
closed = 1;
nodes = (
"568 497 LINE",
"497 497 LINE",
"497 426 LINE",
"568 426 LINE"
);
},
{
closed = 1;
nodes = (
"497 568 LINE",
"427 568 LINE",
"427 497 LINE",
"497 497 LINE"
);
},
{
closed = 1;
nodes = (
"213 568 LINE",
"71 568 LINE",
"71 497 LINE",
"213 497 LINE"
);
},
{
closed = 1;
nodes = (
"427 568 LINE",
"427 639 LINE",
"213 639 LINE",
"213 568 LINE"
);
},
{
closed = 1;
nodes = (
"0 426 LINE",
"71 426 LINE",
"71 497 LINE",
"0 497 LINE"
);
},
{
closed = 1;
nodes = (
"497 213 LINE",
"497 142 LINE",
"568 142 LINE",
"568 213 LINE"
);
},
{
closed = 1;
nodes = (
"143 142 LINE",
"71 142 LINE",
"71 71 LINE",
"143 71 LINE"
);
},
{
closed = 1;
nodes = (
"71 284 LINE",
"0 284 LINE",
"0 142 LINE",
"71 142 LINE"
);
},
{
closed = 1;
nodes = (
"143 426 LINE",
"71 426 LINE",
"71 284 LINE",
"143 284 LINE"
);
},
{
closed = 1;
nodes = (
"427 142 LINE",
"427 71 LINE",
"497 71 LINE",
"497 142 LINE"
);
},
{
closed = 1;
nodes = (
"284 0 LINE",
"284 -71 LINE",
"355 -71 LINE",
"355 0 LINE",
"427 0 LINE",
"427 71 LINE",
"143 71 LINE",
"143 0 LINE"
);
}
);
width = 710;
}
);
unicode = 00E7;
},
{
glyphname = d;
lastChange = "2021-11-04 14:29:10 +0000";
layers = (
{
layerId = "2B49945B-6CA5-4A57-AEE9-C94C760A1D53";
paths = (
{
closed = 1;
nodes = (
"426 568 LINE",
"426 639 LINE",
"142 639 LINE",
"142 568 LINE"
);
},
{
closed = 1;
nodes = (
"71 568 LINE",
"71 497 LINE",
"142 497 LINE",
"142 568 LINE"
);
},
{
closed = 1;
nodes = (
"71 497 LINE",
"0 497 LINE",
"0 142 LINE",
"71 142 LINE"
);
},
{
closed = 1;
nodes = (
"71 71 LINE",
"142 71 LINE",
"142 142 LINE",
"71 142 LINE"
);
},
{
closed = 1;
nodes = (
"142 71 LINE",
"142 0 LINE",
"426 0 LINE",
"426 71 LINE"
);
},
{
closed = 1;
nodes = (
"497 639 LINE",
"497 568 LINE",
"426 568 LINE",
"426 497 LINE",
"497 497 LINE",
"497 142 LINE",
"426 142 LINE",
"426 71 LINE",
"497 71 LINE",
"497 0 LINE",
"568 0 LINE",
"568 923 LINE",
"497 923 LINE"
);
}
);
width = 710;
},
{
layerId = "D02270D2-0C41-4FF9-8B26-5AFAC61A3F8E";
paths = (
{
closed = 1;
nodes = (
"426 568 LINE",
"426 639 LINE",
"142 639 LINE",
"142 568 LINE"
);
},
{
closed = 1;
nodes = (
"71 568 LINE",
"71 497 LINE",
"142 497 LINE",
"142 568 LINE"
);
},
{
closed = 1;
nodes = (
"71 497 LINE",
"0 497 LINE",
"0 284 LINE",
"71 284 LINE"
);
},
{
closed = 1;
nodes = (
"71 284 LINE",
"71 213 LINE",
"142 213 LINE",
"142 284 LINE"
);
},
{
closed = 1;
nodes = (
"0 142 LINE",
"71 142 LINE",
"71 213 LINE",
"0 213 LINE"
);
},
{
closed = 1;
nodes = (
"71 71 LINE",
"142 71 LINE",
"142 142 LINE",
"71 142 LINE"
);
},
{
closed = 1;
nodes = (
"284 0 LINE",
"426 0 LINE",
"426 71 LINE",
"284 71 LINE"
);
},
{
closed = 1;
nodes = (
"213 71 LINE",
"284 71 LINE",
"284 142 LINE",
"213 142 LINE"
);
},
{
closed = 1;
nodes = (
"213 0 LINE",
"213 71 LINE",
"142 71 LINE",
"142 0 LINE"
);
},
{
closed = 1;
nodes = (
"426 142 LINE",
"426 71 LINE",
"497 71 LINE",
"497 0 LINE",
"568 0 LINE",
"568 284 LINE",
"497 284 LINE",
"497 142 LINE"
);
},
{
closed = 1;
nodes = (
"497 284 LINE",
"497 355 LINE",
"426 355 LINE",
"426 284 LINE"
);
},
{
closed = 1;
nodes = (
"426 568 LINE",
"426 497 LINE",
"497 497 LINE",
"497 426 LINE",
"497 355 LINE",
"568 355 LINE",
"568 710 LINE",
"497 710 LINE",
"497 568 LINE"
);
},
{
closed = 1;
nodes = (
"426 852 LINE",
"426 710 LINE",
"497 710 LINE",
"497 852 LINE"
);
},
{
closed = 1;
nodes = (
"497 923 LINE",
"497 852 LINE",
"568 852 LINE",
"568 923 LINE"
);
}
);
width = 710;
}
);
unicode = 0064;
},
{
glyphname = e;
lastChange = "2021-11-04 14:29:12 +0000";
layers = (
{
layerId = "2B49945B-6CA5-4A57-AEE9-C94C760A1D53";
paths = (
{
closed = 1;
nodes = (
"497 355 LINE",
"497 426 LINE",
"426 426 LINE",
"426 355 LINE"
);
},
{
closed = 1;
nodes = (
"568 497 LINE",
"497 497 LINE",
"497 426 LINE",
"568 426 LINE"
);
},
{
closed = 1;
nodes = (
"497 568 LINE",
"426 568 LINE",
"426 497 LINE",
"497 497 LINE"
);
},
{
closed = 1;
nodes = (
"426 568 LINE",
"426 639 LINE",
"142 639 LINE",
"142 568 LINE"
);
},
{
closed = 1;
nodes = (
"71 568 LINE",
"71 497 LINE",
"142 497 LINE",
"142 568 LINE"
);
},
{
closed = 1;
nodes = (
"497 213 LINE",
"497 142 LINE",
"568 142 LINE",
"568 213 LINE"
);
},
{
closed = 1;
nodes = (
"142 142 LINE",
"71 142 LINE",
"71 71 LINE",
"142 71 LINE"
);
},
{
closed = 1;
nodes = (
"71 284 LINE",
"426 284 LINE",
"426 355 LINE",
"71 355 LINE",
"71 497 LINE",
"0 497 LINE",
"0 142 LINE",
"71 142 LINE"
);
},
{
closed = 1;
nodes = (
"426 142 LINE",
"426 71 LINE",
"497 71 LINE",
"497 142 LINE"
);
},
{
closed = 1;
nodes = (
"426 0 LINE",
"426 71 LINE",
"142 71 LINE",
"142 0 LINE"
);
}
);
width = 710;
},
{
layerId = "D02270D2-0C41-4FF9-8B26-5AFAC61A3F8E";
paths = (
{
closed = 1;
nodes = (
"213 355 LINE",
"284 355 LINE",
"284 426 LINE",
"213 426 LINE"
);
},
{
closed = 1;
nodes = (
"284 284 LINE",
"426 284 LINE",
"426 355 LINE",
"284 355 LINE"
);
},
{
closed = 1;
nodes = (
"497 355 LINE",
"497 426 LINE",
"426 426 LINE",
"426 355 LINE"
);
},
{
closed = 1;
nodes = (
"568 497 LINE",
"497 497 LINE",
"497 426 LINE",
"568 426 LINE"
);
},
{
closed = 1;
nodes = (
"497 568 LINE",
"426 568 LINE",
"426 497 LINE",
"497 497 LINE"
);
},
{
closed = 1;
nodes = (
"284 639 LINE",
"142 639 LINE",
"142 568 LINE",
"284 568 LINE"
);
},
{
closed = 1;
nodes = (
"355 568 LINE",
"284 568 LINE",
"284 497 LINE",
"355 497 LINE"
);
},
{
closed = 1;
nodes = (
"355 639 LINE",
"355 568 LINE",
"426 568 LINE",
"426 639 LINE"
);
},
{
closed = 1;
nodes = (
"0 426 LINE",
"71 426 LINE",
"71 497 LINE",
"0 497 LINE"
);
},
{
closed = 1;
nodes = (
"71 568 LINE",
"71 497 LINE",
"142 497 LINE",
"142 568 LINE"
);
},
{
closed = 1;
nodes = (
"497 213 LINE",
"497 142 LINE",
"568 142 LINE",
"568 213 LINE"
);
},
{
closed = 1;
nodes = (
"142 142 LINE",
"71 142 LINE",
"71 71 LINE",
"142 71 LINE"
);
},
{
closed = 1;
nodes = (
"71 284 LINE",
"213 284 LINE",
"213 355 LINE",
"142 355 LINE",
"142 426 LINE",
"71 426 LINE",
"71 355 LINE",
"0 355 LINE",
"0 142 LINE",
"71 142 LINE"
);
},
{
closed = 1;
nodes = (
"426 0 LINE",
"426 71 LINE",
"284 71 LINE",
"284 0 LINE"
);
},
{
closed = 1;
nodes = (
"426 142 LINE",
"426 71 LINE",
"497 71 LINE",
"497 142 LINE"
);
},
{
closed = 1;
nodes = (
"213 142 LINE",
"213 71 LINE",
"284 71 LINE",
"284 142 LINE"
);
},
{
closed = 1;
nodes = (
"213 71 LINE",
"142 71 LINE",
"142 0 LINE",
"213 0 LINE"
);
}
);
width = 710;
}
);
unicode = 0065;
},
{
glyphname = eacute;
lastChange = "2021-11-04 14:29:15 +0000";
layers = (
{
components = (
{
name = e;
}
);
layerId = "2B49945B-6CA5-4A57-AEE9-C94C760A1D53";
paths = (
{
closed = 1;
nodes = (
"497 355 LINE",
"497 426 LINE",
"426 426 LINE",
"426 355 LINE"
);
},
{
closed = 1;
nodes = (
"568 497 LINE",
"497 497 LINE",
"497 426 LINE",
"568 426 LINE"
);
},
{
closed = 1;
nodes = (
"497 568 LINE",
"426 568 LINE",
"426 497 LINE",
"497 497 LINE"
);
},
{
closed = 1;
nodes = (
"426 568 LINE",
"426 639 LINE",
"142 639 LINE",
"142 568 LINE"
);
},
{
closed = 1;
nodes = (
"284 710 LINE",
"284 781 LINE",
"213 781 LINE",
"213 710 LINE"
);
},
{
closed = 1;
nodes = (
"284 852 LINE",
"284 781 LINE",
"355 781 LINE",
"355 852 LINE"
);
},
{
closed = 1;
nodes = (
"355 923 LINE",
"355 852 LINE",
"426 852 LINE",
"426 923 LINE"
);
},
{
closed = 1;
nodes = (
"71 568 LINE",
"71 497 LINE",
"142 497 LINE",
"142 568 LINE"
);
},
{
closed = 1;
nodes = (
"497 213 LINE",
"497 142 LINE",
"568 142 LINE",
"568 213 LINE"
);
},
{
closed = 1;
nodes = (
"142 142 LINE",
"71 142 LINE",
"71 71 LINE",
"142 71 LINE"
);
},
{
closed = 1;
nodes = (
"71 284 LINE",
"426 284 LINE",
"426 355 LINE",
"71 355 LINE",
"71 497 LINE",
"0 497 LINE",
"0 142 LINE",
"71 142 LINE"
);
},
{
closed = 1;
nodes = (
"426 142 LINE",
"426 71 LINE",
"497 71 LINE",
"497 142 LINE"
);
},
{
closed = 1;
nodes = (
"426 0 LINE",
"426 71 LINE",
"142 71 LINE",
"142 0 LINE"
);
}
);
width = 710;
},
{
layerId = "D02270D2-0C41-4FF9-8B26-5AFAC61A3F8E";
paths = (
{
closed = 1;
nodes = (
"497 355 LINE",
"497 426 LINE",
"426 426 LINE",
"426 355 LINE"
);
},
{
closed = 1;
nodes = (
"568 497 LINE",
"497 497 LINE",
"497 426 LINE",
"568 426 LINE"
);
},
{
closed = 1;
nodes = (
"497 568 LINE",
"426 568 LINE",
"426 497 LINE",
"497 497 LINE"
);
},
{
closed = 1;
nodes = (
"284 568 LINE",
"213 568 LINE",
"213 497 LINE",
"284 497 LINE"
);
},
{
closed = 1;
nodes = (
"142 639 LINE",
"142 568 LINE",
"213 568 LINE",
"213 639 LINE"
);
},
{
closed = 1;
nodes = (
"284 710 LINE",
"284 781 LINE",
"213 781 LINE",
"213 710 LINE"
);
},
{
closed = 1;
nodes = (
"355 781 LINE",
"355 852 LINE",
"284 852 LINE",
"284 781 LINE"
);
},
{
closed = 1;
nodes = (
"426 852 LINE",
"426 923 LINE",
"355 923 LINE",
"355 852 LINE"
);
},
{
closed = 1;
nodes = (
"426 639 LINE",
"284 639 LINE",
"284 568 LINE",
"426 568 LINE"
);
},
{
closed = 1;
nodes = (
"71 568 LINE",
"71 497 LINE",
"142 497 LINE",
"142 568 LINE"
);
},
{
closed = 1;
nodes = (
"497 213 LINE",
"497 142 LINE",
"568 142 LINE",
"568 213 LINE"
);
},
{
closed = 1;
nodes = (
"142 142 LINE",
"71 142 LINE",
"71 71 LINE",
"142 71 LINE"
);
},
{
closed = 1;
nodes = (
"0 213 LINE",
"0 142 LINE",
"71 142 LINE",
"71 213 LINE"
);
},
{
closed = 1;
nodes = (
"426 284 LINE",
"426 355 LINE",
"71 355 LINE",
"71 497 LINE",
"0 497 LINE",
"0 284 LINE",
"71 284 LINE",
"71 213 LINE",
"142 213 LINE",
"142 284 LINE"
);
},
{
closed = 1;
nodes = (
"284 142 LINE",
"284 71 LINE",
"355 71 LINE",
"355 142 LINE"
);
},
{
closed = 1;
nodes = (
"426 71 LINE",
"355 71 LINE",
"355 0 LINE",
"426 0 LINE"
);
},
{
closed = 1;
nodes = (
"426 142 LINE",
"426 71 LINE",
"497 71 LINE",
"497 142 LINE"
);
},
{
closed = 1;
nodes = (
"284 0 LINE",
"284 71 LINE",
"142 71 LINE",
"142 0 LINE"
);
}
);
width = 710;
}
);
unicode = 00E9;
},
{
glyphname = ecircumflex;
lastChange = "2021-11-04 14:29:18 +0000";
layers = (
{
components = (
{
name = e;
}
);
layerId = "2B49945B-6CA5-4A57-AEE9-C94C760A1D53";
paths = (
{
closed = 1;
nodes = (
"497 355 LINE",
"497 426 LINE",
"426 426 LINE",
"426 355 LINE"
);
},
{
closed = 1;
nodes = (
"568 497 LINE",
"497 497 LINE",
"497 426 LINE",
"568 426 LINE"
);
},
{
closed = 1;
nodes = (
"497 568 LINE",
"426 568 LINE",
"426 497 LINE",
"497 497 LINE"
);
},
{
closed = 1;
nodes = (
"426 568 LINE",
"426 639 LINE",
"142 639 LINE",
"142 568 LINE"
);
},
{
closed = 1;
nodes = (
"497 781 LINE",
"426 781 LINE",
"426 710 LINE",
"497 710 LINE"
);
},
{
closed = 1;
nodes = (
"355 781 LINE",
"426 781 LINE",
"426 852 LINE",
"355 852 LINE"
);
},
{
closed = 1;
nodes = (
"213 923 LINE",
"213 852 LINE",
"355 852 LINE",
"355 923 LINE"
);
},
{
closed = 1;
nodes = (
"142 710 LINE",
"142 781 LINE",
"71 781 LINE",
"71 710 LINE"
);
},
{
closed = 1;
nodes = (
"213 781 LINE",
"213 852 LINE",
"142 852 LINE",
"142 781 LINE"
);
},
{
closed = 1;
nodes = (
"71 568 LINE",
"71 497 LINE",
"142 497 LINE",
"142 568 LINE"
);
},
{
closed = 1;
nodes = (
"497 213 LINE",
"497 142 LINE",
"568 142 LINE",
"568 213 LINE"
);
},
{
closed = 1;
nodes = (
"142 142 LINE",
"71 142 LINE",
"71 71 LINE",
"142 71 LINE"
);
},
{
closed = 1;
nodes = (
"426 284 LINE",
"426 355 LINE",
"71 355 LINE",
"71 497 LINE",
"0 497 LINE",
"0 142 LINE",
"71 142 LINE",
"71 284 LINE"
);
},
{
closed = 1;
nodes = (
"426 142 LINE",
"426 71 LINE",
"497 71 LINE",
"497 142 LINE"
);
},
{
closed = 1;
nodes = (
"426 0 LINE",
"426 71 LINE",
"142 71 LINE",
"142 0 LINE"
);
}
);
width = 710;
},
{
layerId = "D02270D2-0C41-4FF9-8B26-5AFAC61A3F8E";
paths = (
{
closed = 1;
nodes = (
"142 426 LINE",
"142 355 LINE",
"284 355 LINE",
"284 426 LINE"
);
},
{
closed = 1;
nodes = (
"426 284 LINE",
"426 355 LINE",
"284 355 LINE",
"284 284 LINE"
);
},
{
closed = 1;
nodes = (
"497 355 LINE",
"497 426 LINE",
"426 426 LINE",
"426 355 LINE"
);
},
{
closed = 1;
nodes = (
"568 497 LINE",
"497 497 LINE",
"497 426 LINE",
"568 426 LINE"
);
},
{
closed = 1;
nodes = (
"497 568 LINE",
"426 568 LINE",
"426 497 LINE",
"497 497 LINE"
);
},
{
closed = 1;
nodes = (
"426 568 LINE",
"426 639 LINE",
"142 639 LINE",
"142 568 LINE"
);
},
{
closed = 1;
nodes = (
"497 781 LINE",
"426 781 LINE",
"426 710 LINE",
"497 710 LINE"
);
},
{
closed = 1;
nodes = (
"355 781 LINE",
"426 781 LINE",
"426 852 LINE",
"355 852 LINE"
);
},
{
closed = 1;
nodes = (
"284 852 LINE",
"355 852 LINE",
"355 923 LINE",
"284 923 LINE"
);
},
{
closed = 1;
nodes = (
"142 710 LINE",
"142 781 LINE",
"71 781 LINE",
"71 710 LINE"
);
},
{
closed = 1;
nodes = (
"142 781 LINE",
"284 781 LINE",
"284 852 LINE",
"142 852 LINE"
);
},
{
closed = 1;
nodes = (
"71 568 LINE",
"71 497 LINE",
"142 497 LINE",
"142 568 LINE"
);
},
{
closed = 1;
nodes = (
"497 213 LINE",
"497 142 LINE",
"568 142 LINE",
"568 213 LINE"
);
},
{
closed = 1;
nodes = (
"142 142 LINE",
"71 142 LINE",
"71 71 LINE",
"142 71 LINE"
);
},
{
closed = 1;
nodes = (
"71 497 LINE",
"0 497 LINE",
"0 142 LINE",
"71 142 LINE",
"71 284 LINE",
"142 284 LINE",
"142 355 LINE",
"71 355 LINE"
);
},
{
closed = 1;
nodes = (
"497 142 LINE",
"355 142 LINE",
"355 71 LINE",
"497 71 LINE"
);
},
{
closed = 1;
nodes = (
"355 0 LINE",
"355 71 LINE",
"142 71 LINE",
"142 0 LINE"
);
}
);
width = 710;
}
);
unicode = 00EA;
},
{
glyphname = edieresis;
lastChange = "2021-11-04 14:29:20 +0000";
layers = (
{
components = (
{
name = e;
}
);
layerId = "2B49945B-6CA5-4A57-AEE9-C94C760A1D53";
paths = (
{
closed = 1;
nodes = (
"497 355 LINE",
"497 426 LINE",
"426 426 LINE",
"426 355 LINE"
);
},
{
closed = 1;
nodes = (
"568 497 LINE",
"497 497 LINE",
"497 426 LINE",
"568 426 LINE"
);
},
{
closed = 1;
nodes = (
"497 568 LINE",
"426 568 LINE",
"426 497 LINE",
"497 497 LINE"
);
},
{
closed = 1;
nodes = (
"426 568 LINE",
"426 639 LINE",
"142 639 LINE",
"142 568 LINE"
);
},
{
closed = 1;
nodes = (
"426 781 LINE",
"426 852 LINE",
"355 852 LINE",
"355 781 LINE"
);
},
{
closed = 1;
nodes = (
"213 781 LINE",
"213 852 LINE",
"142 852 LINE",
"142 781 LINE"
);
},
{
closed = 1;
nodes = (
"71 568 LINE",
"71 497 LINE",
"142 497 LINE",
"142 568 LINE"
);
},
{
closed = 1;
nodes = (
"497 213 LINE",
"497 142 LINE",
"568 142 LINE",
"568 213 LINE"
);
},
{
closed = 1;
nodes = (
"142 142 LINE",
"71 142 LINE",
"71 71 LINE",
"142 71 LINE"
);
},
{
closed = 1;
nodes = (
"71 284 LINE",
"426 284 LINE",
"426 355 LINE",
"71 355 LINE",
"71 497 LINE",
"0 497 LINE",
"0 142 LINE",
"71 142 LINE"
);
},
{
closed = 1;
nodes = (
"426 142 LINE",
"426 71 LINE",
"497 71 LINE",
"497 142 LINE"
);
},
{
closed = 1;
nodes = (
"426 0 LINE",
"426 71 LINE",
"142 71 LINE",
"142 0 LINE"
);
}
);
width = 710;
},
{
layerId = "D02270D2-0C41-4FF9-8B26-5AFAC61A3F8E";
paths = (
{
closed = 1;
nodes = (
"141 355 LINE",
"213 355 LINE",
"213 426 LINE",
"141 426 LINE"
);
},
{
closed = 1;
nodes = (
"213 355 LINE",
"213 285 LINE",
"426 285 LINE",
"426 355 LINE"
);
},
{
closed = 1;
nodes = (
"497 355 LINE",
"497 426 LINE",
"426 426 LINE",
"426 355 LINE"
);
},
{
closed = 1;
nodes = (
"567 497 LINE",
"497 497 LINE",
"497 426 LINE",
"567 426 LINE"
);
},
{
closed = 1;
nodes = (
"497 567 LINE",
"426 567 LINE",
"426 497 LINE",
"497 497 LINE"
);
},
{
closed = 1;
nodes = (
"213 567 LINE",
"71 567 LINE",
"71 497 LINE",
"213 497 LINE"
);
},
{
closed = 1;
nodes = (
"426 567 LINE",
"426 639 LINE",
"213 639 LINE",
"213 567 LINE"
);
},
{
closed = 1;
nodes = (
"426 780 LINE",
"426 852 LINE",
"355 852 LINE",
"355 780 LINE"
);
},
{
closed = 1;
nodes = (
"213 780 LINE",
"213 852 LINE",
"141 852 LINE",
"141 780 LINE"
);
},
{
closed = 1;
nodes = (
"497 213 LINE",
"497 141 LINE",
"567 141 LINE",
"567 213 LINE"
);
},
{
closed = 1;
nodes = (
"141 141 LINE",
"71 141 LINE",
"71 71 LINE",
"141 71 LINE"
);
},
{
closed = 1;
nodes = (
"0 213 LINE",
"0 141 LINE",
"71 141 LINE",
"71 213 LINE"
);
},
{
closed = 1;
nodes = (
"141 355 LINE",
"71 355 LINE",
"71 497 LINE",
"0 497 LINE",
"0 285 LINE",
"71 285 LINE",
"71 213 LINE",
"141 213 LINE"
);
},
{
closed = 1;
nodes = (
"426 141 LINE",
"426 71 LINE",
"497 71 LINE",
"497 141 LINE"
);
},
{
closed = 1;
nodes = (
"426 0 LINE",
"426 71 LINE",
"141 71 LINE",
"141 0 LINE"
);
}
);
width = 709;
}
);
unicode = 00EB;
},
{
glyphname = egrave;
lastChange = "2021-11-04 14:29:23 +0000";
layers = (
{
layerId = "2B49945B-6CA5-4A57-AEE9-C94C760A1D53";
paths = (
{
closed = 1;
nodes = (
"71 355 LINE",
"71 497 LINE",
"0 497 LINE",
"0 142 LINE",
"71 142 LINE",
"71 284 LINE",
"426 284 LINE",
"426 355 LINE"
);
},
{
closed = 1;
nodes = (
"497 355 LINE",
"497 426 LINE",
"426 426 LINE",
"426 355 LINE"
);
},
{
closed = 1;
nodes = (
"568 497 LINE",
"497 497 LINE",
"497 426 LINE",
"568 426 LINE"
);
},
{
closed = 1;
nodes = (
"497 568 LINE",
"426 568 LINE",
"426 497 LINE",
"497 497 LINE"
);
},
{
closed = 1;
nodes = (
"355 781 LINE",
"284 781 LINE",
"284 710 LINE",
"355 710 LINE"
);
},
{
closed = 1;
nodes = (
"213 781 LINE",
"284 781 LINE",
"284 852 LINE",
"213 852 LINE"
);
},
{
closed = 1;
nodes = (
"142 852 LINE",
"213 852 LINE",
"213 923 LINE",
"142 923 LINE"
);
},
{
closed = 1;
nodes = (
"142 639 LINE",
"142 568 LINE",
"426 568 LINE",
"426 639 LINE"
);
},
{
closed = 1;
nodes = (
"71 568 LINE",
"71 497 LINE",
"142 497 LINE",
"142 568 LINE"
);
},
{
closed = 1;
nodes = (
"497 213 LINE",
"497 142 LINE",
"568 142 LINE",
"568 213 LINE"
);
},
{
closed = 1;
nodes = (
"142 142 LINE",
"71 142 LINE",
"71 71 LINE",
"142 71 LINE"
);
},
{
closed = 1;
nodes = (
"426 142 LINE",
"426 71 LINE",
"497 71 LINE",
"497 142 LINE"
);
},
{
closed = 1;
nodes = (
"426 0 LINE",
"426 71 LINE",
"142 71 LINE",
"142 0 LINE"
);
}
);
width = 710;
},
{
layerId = "D02270D2-0C41-4FF9-8B26-5AFAC61A3F8E";
paths = (
{
closed = 1;
nodes = (
"71 497 LINE",
"0 497 LINE",
"0 213 LINE",
"71 213 LINE",
"71 355 LINE",
"142 355 LINE",
"142 426 LINE",
"71 426 LINE"
);
},
{
closed = 1;
nodes = (
"355 284 LINE",
"355 355 LINE",
"142 355 LINE",
"142 284 LINE"
);
},
{
closed = 1;
nodes = (
"355 355 LINE",
"497 355 LINE",
"497 426 LINE",
"355 426 LINE"
);
},
{
closed = 1;
nodes = (
"568 497 LINE",
"497 497 LINE",
"497 426 LINE",
"568 426 LINE"
);
},
{
closed = 1;
nodes = (
"497 568 LINE",
"426 568 LINE",
"426 497 LINE",
"497 497 LINE"
);
},
{
closed = 1;
nodes = (
"284 639 LINE",
"142 639 LINE",
"142 568 LINE",
"284 568 LINE"
);
},
{
closed = 1;
nodes = (
"355 568 LINE",
"284 568 LINE",
"284 497 LINE",
"355 497 LINE"
);
},
{
closed = 1;
nodes = (
"355 781 LINE",
"284 781 LINE",
"284 710 LINE",
"355 710 LINE"
);
},
{
closed = 1;
nodes = (
"213 781 LINE",
"284 781 LINE",
"284 852 LINE",
"213 852 LINE"
);
},
{
closed = 1;
nodes = (
"142 852 LINE",
"213 852 LINE",
"213 923 LINE",
"142 923 LINE"
);
},
{
closed = 1;
nodes = (
"355 639 LINE",
"355 568 LINE",
"426 568 LINE",
"426 639 LINE"
);
},
{
closed = 1;
nodes = (
"71 568 LINE",
"71 497 LINE",
"142 497 LINE",
"142 568 LINE"
);
},
{
closed = 1;
nodes = (
"497 213 LINE",
"497 142 LINE",
"568 142 LINE",
"568 213 LINE"
);
},
{
closed = 1;
nodes = (
"213 71 LINE",
"213 142 LINE",
"142 142 LINE",
"142 213 LINE",
"71 213 LINE",
"71 71 LINE"
);
},
{
closed = 1;
nodes = (
"426 142 LINE",
"426 71 LINE",
"497 71 LINE",
"497 142 LINE"
);
},
{
closed = 1;
nodes = (
"426 0 LINE",
"426 71 LINE",
"213 71 LINE",
"213 0 LINE"
);
}
);
width = 710;
}
);
unicode = 00E8;
},
{
glyphname = f;
lastChange = "2021-11-04 14:29:26 +0000";
layers = (
{
layerId = "2B49945B-6CA5-4A57-AEE9-C94C760A1D53";
paths = (
{
closed = 1;
nodes = (
"142 639 LINE",
"0 639 LINE",
"0 568 LINE",
"142 568 LINE",
"142 0 LINE",
"213 0 LINE",
"213 568 LINE",
"355 568 LINE",
"355 639 LINE",
"213 639 LINE",
"213 781 LINE",
"142 781 LINE"
);
},
{
closed = 1;
nodes = (
"284 781 LINE",
"284 852 LINE",
"213 852 LINE",
"213 781 LINE"
);
},
{
closed = 1;
nodes = (
"284 923 LINE",
"284 852 LINE",
"426 852 LINE",
"426 923 LINE"
);
},
{
closed = 1;
nodes = (
"426 781 LINE",
"497 781 LINE",
"497 852 LINE",
"426 852 LINE"
);
}
);
width = 497;
},
{
layerId = "D02270D2-0C41-4FF9-8B26-5AFAC61A3F8E";
paths = (
{
closed = 1;
nodes = (
"142 0 LINE",
"213 0 LINE",
"213 284 LINE",
"142 284 LINE"
);
},
{
closed = 1;
nodes = (
"284 355 LINE",
"213 355 LINE",
"213 284 LINE",
"284 284 LINE"
);
},
{
closed = 1;
nodes = (
"213 355 LINE",
"213 497 LINE",
"142 497 LINE",
"142 355 LINE"
);
},
{
closed = 1;
nodes = (
"142 639 LINE",
"0 639 LINE",
"0 568 LINE",
"71 568 LINE",
"71 497 LINE",
"142 497 LINE",
"142 568 LINE",
"213 568 LINE",
"355 568 LINE",
"355 639 LINE",
"213 639 LINE",
"213 781 LINE",
"142 781 LINE"
);
},
{
closed = 1;
nodes = (
"284 781 LINE",
"284 852 LINE",
"213 852 LINE",
"213 781 LINE"
);
},
{
closed = 1;
nodes = (
"284 852 LINE",
"355 852 LINE",
"355 923 LINE",
"284 923 LINE"
);
},
{
closed = 1;
nodes = (
"355 852 LINE",
"355 781 LINE",
"497 781 LINE",
"497 852 LINE"
);
}
);
width = 639;
}
);
unicode = 0066;
},
{
glyphname = g;
lastChange = "2021-11-04 14:29:29 +0000";
layers = (
{
layerId = "2B49945B-6CA5-4A57-AEE9-C94C760A1D53";
paths = (
{
closed = 1;
nodes = (
"142 71 LINE",
"142 0 LINE",
"427 0 LINE",
"427 71 LINE"
);
},
{
closed = 1;
nodes = (
"71 71 LINE",
"142 71 LINE",
"142 142 LINE",
"71 142 LINE"
);
},
{
closed = 1;
nodes = (
"71 497 LINE",
"0 497 LINE",
"0 142 LINE",
"71 142 LINE"
);
},
{
closed = 1;
nodes = (
"71 568 LINE",
"71 497 LINE",
"142 497 LINE",
"142 568 LINE"
);
},
{
closed = 1;
nodes = (
"427 568 LINE",
"427 639 LINE",
"142 639 LINE",
"142 568 LINE"
);
},
{
closed = 1;
nodes = (
"568 639 LINE",
"497 639 LINE",
"497 568 LINE",
"427 568 LINE",
"427 497 LINE",
"497 497 LINE",
"497 142 LINE",
"427 142 LINE",
"427 71 LINE",
"497 71 LINE",
"497 -143 LINE",
"568 -143 LINE"
);
},
{
closed = 1;
nodes = (
"427 -143 LINE",
"427 -214 LINE",
"497 -214 LINE",
"497 -143 LINE"
);
},
{
closed = 1;
nodes = (
"427 -285 LINE",
"427 -214 LINE",
"142 -214 LINE",
"142 -285 LINE"
);
},
{
closed = 1;
nodes = (
"142 -143 LINE",
"71 -143 LINE",
"71 -214 LINE",
"142 -214 LINE"
);
},
{
closed = 1;
nodes = (
"0 -72 LINE",
"0 -143 LINE",
"71 -143 LINE",
"71 -72 LINE"
);
}
);
width = 710;
},
{
layerId = "D02270D2-0C41-4FF9-8B26-5AFAC61A3F8E";
paths = (
{
closed = 1;
nodes = (
"285 0 LINE",
"427 0 LINE",
"427 71 LINE",
"285 71 LINE"
);
},
{
closed = 1;
nodes = (
"213 71 LINE",
"285 71 LINE",
"285 142 LINE",
"213 142 LINE"
);
},
{
closed = 1;
nodes = (
"213 0 LINE",
"213 71 LINE",
"142 71 LINE",
"142 0 LINE"
);
},
{
closed = 1;
nodes = (
"71 71 LINE",
"142 71 LINE",
"142 142 LINE",
"71 142 LINE"
);
},
{
closed = 1;
nodes = (
"0 283 LINE",
"0 142 LINE",
"71 142 LINE",
"71 283 LINE"
);
},
{
closed = 1;
nodes = (
"71 354 LINE",
"71 283 LINE",
"142 283 LINE",
"142 354 LINE"
);
},
{
closed = 1;
nodes = (
"0 497 LINE",
"0 354 LINE",
"71 354 LINE",
"71 497 LINE"
);
},
{
closed = 1;
nodes = (
"71 568 LINE",
"71 497 LINE",
"142 497 LINE",
"142 568 LINE"
);
},
{
closed = 1;
nodes = (
"356 568 LINE",
"285 568 LINE",
"285 497 LINE",
"356 497 LINE"
);
},
{
closed = 1;
nodes = (
"285 639 LINE",
"142 639 LINE",
"142 568 LINE",
"285 568 LINE"
);
},
{
closed = 1;
nodes = (
"356 639 LINE",
"356 568 LINE",
"427 568 LINE",
"427 639 LINE"
);
},
{
closed = 1;
nodes = (
"497 283 LINE",
"568 283 LINE",
"568 639 LINE",
"497 639 LINE",
"497 568 LINE",
"427 568 LINE",
"427 497 LINE",
"497 497 LINE"
);
},
{
closed = 1;
nodes = (
"497 212 LINE",
"497 283 LINE",
"427 283 LINE",
"427 212 LINE"
);
},
{
closed = 1;
nodes = (
"568 212 LINE",
"497 212 LINE",
"497 142 LINE",
"427 142 LINE",
"427 71 LINE",
"497 71 LINE",
"497 -143 LINE",
"568 -143 LINE"
);
},
{
closed = 1;
nodes = (
"427 -143 LINE",
"427 -214 LINE",
"497 -214 LINE",
"497 -143 LINE"
);
},
{
closed = 1;
nodes = (
"427 -285 LINE",
"427 -214 LINE",
"142 -214 LINE",
"142 -285 LINE"
);
},
{
closed = 1;
nodes = (
"142 -143 LINE",
"71 -143 LINE",
"71 -214 LINE",
"142 -214 LINE"
);
},
{
closed = 1;
nodes = (
"0 -72 LINE",
"0 -143 LINE",
"71 -143 LINE",
"71 -72 LINE"
);
}
);
width = 710;
}
);
unicode = 0067;
},
{
glyphname = h;
lastChange = "2021-11-04 14:29:34 +0000";
layers = (
{
layerId = "2B49945B-6CA5-4A57-AEE9-C94C760A1D53";
paths = (
{
closed = 1;
nodes = (
"355 568 LINE",
"355 639 LINE",
"142 639 LINE",
"142 568 LINE"
);
},
{
closed = 1;
nodes = (
"426 568 LINE",
"355 568 LINE",
"355 497 LINE",
"426 497 LINE"
);
},
{
closed = 1;
nodes = (
"426 0 LINE",
"497 0 LINE",
"497 497 LINE",
"426 497 LINE"
);
},
{
closed = 1;
nodes = (
"71 497 LINE",
"142 497 LINE",
"142 568 LINE",
"71 568 LINE",
"71 923 LINE",
"0 923 LINE",
"0 0 LINE",
"71 0 LINE"
);
}
);
width = 639;
},
{
layerId = "D02270D2-0C41-4FF9-8B26-5AFAC61A3F8E";
paths = (
{
closed = 1;
nodes = (
"355 639 LINE",
"213 639 LINE",
"213 568 LINE",
"355 568 LINE"
);
},
{
closed = 1;
nodes = (
"426 568 LINE",
"355 568 LINE",
"355 497 LINE",
"426 497 LINE"
);
},
{
closed = 1;
nodes = (
"355 284 LINE",
"426 284 LINE",
"426 426 LINE",
"355 426 LINE"
);
},
{
closed = 1;
nodes = (
"497 497 LINE",
"426 497 LINE",
"426 426 LINE",
"497 426 LINE"
);
},
{
closed = 1;
nodes = (
"426 0 LINE",
"497 0 LINE",
"497 284 LINE",
"426 284 LINE"
);
},
{
closed = 1;
nodes = (
"71 142 LINE",
"0 142 LINE",
"0 0 LINE",
"71 0 LINE"
);
},
{
closed = 1;
nodes = (
"71 213 LINE",
"71 142 LINE",
"142 142 LINE",
"142 213 LINE"
);
},
{
closed = 1;
nodes = (
"71 497 LINE",
"213 497 LINE",
"213 568 LINE",
"71 568 LINE",
"71 710 LINE",
"0 710 LINE",
"0 213 LINE",
"71 213 LINE"
);
},
{
closed = 1;
nodes = (
"142 852 LINE",
"71 852 LINE",
"71 710 LINE",
"142 710 LINE"
);
},
{
closed = 1;
nodes = (
"0 852 LINE",
"71 852 LINE",
"71 923 LINE",
"0 923 LINE"
);
}
);
width = 639;
}
);
unicode = 0068;
},
{
glyphname = i;
lastChange = "2021-11-04 14:29:36 +0000";
layers = (
{
layerId = "2B49945B-6CA5-4A57-AEE9-C94C760A1D53";
paths = (
{
closed = 1;
nodes = (
"0 852 LINE",
"0 781 LINE",
"71 781 LINE",
"71 852 LINE"
);
},
{
closed = 1;
nodes = (
"71 639 LINE",
"0 639 LINE",
"0 0 LINE",
"71 0 LINE"
);
}
);
width = 213;
},
{
layerId = "D02270D2-0C41-4FF9-8B26-5AFAC61A3F8E";
paths = (
{
closed = 1;
nodes = (
"0 639 LINE",
"0 497 LINE",
"71 497 LINE",
"71 639 LINE"
);
},
{
closed = 1;
nodes = (
"0 852 LINE",
"0 781 LINE",
"71 781 LINE",
"71 852 LINE"
);
},
{
closed = 1;
nodes = (
"0 355 LINE",
"71 355 LINE",
"71 426 LINE",
"0 426 LINE"
);
},
{
closed = 1;
nodes = (
"71 497 LINE",
"71 426 LINE",
"142 426 LINE",
"142 497 LINE"
);
},
{
closed = 1;
nodes = (
"71 355 LINE",
"71 284 LINE",
"142 284 LINE",
"142 355 LINE"
);
},
{
closed = 1;
nodes = (
"71 284 LINE",
"0 284 LINE",
"0 0 LINE",
"71 0 LINE"
);
}
);
width = 284;
}
);
unicode = 0069;
},
{
color = 10;
glyphname = icircumflex;
lastChange = "2021-11-04 14:29:39 +0000";
layers = (
{
layerId = "2B49945B-6CA5-4A57-AEE9-C94C760A1D53";
paths = (
{
closed = 1;
nodes = (
"355 781 LINE",
"284 781 LINE",
"284 710 LINE",
"355 710 LINE"
);
},
{
closed = 1;
nodes = (
"284 852 LINE",
"213 852 LINE",
"213 781 LINE",
"284 781 LINE"
);
},
{
closed = 1;
nodes = (
"142 923 LINE",
"142 852 LINE",
"213 852 LINE",
"213 923 LINE"
);
},
{
closed = 1;
nodes = (
"0 781 LINE",
"0 710 LINE",
"71 710 LINE",
"71 781 LINE"
);
},
{
closed = 1;
nodes = (
"71 852 LINE",
"71 781 LINE",
"142 781 LINE",
"142 852 LINE"
);
},
{
closed = 1;
nodes = (
"213 639 LINE",
"142 639 LINE",
"142 0 LINE",
"213 0 LINE"
);
}
);
width = 497;
},
{
layerId = "D02270D2-0C41-4FF9-8B26-5AFAC61A3F8E";
paths = (
{
closed = 1;
nodes = (
"355 781 LINE",
"284 781 LINE",
"284 710 LINE",
"355 710 LINE"
);
},
{
closed = 1;
nodes = (
"284 852 LINE",
"213 852 LINE",
"213 781 LINE",
"284 781 LINE"
);
},
{
closed = 1;
nodes = (
"142 923 LINE",
"142 852 LINE",
"213 852 LINE",
"213 923 LINE"
);
},
{
closed = 1;
nodes = (
"0 781 LINE",
"0 710 LINE",
"71 710 LINE",
"71 781 LINE"
);
},
{
closed = 1;
nodes = (
"71 852 LINE",
"71 781 LINE",
"142 781 LINE",
"142 852 LINE"
);
},
{
closed = 1;
nodes = (
"142 639 LINE",
"142 497 LINE",
"213 497 LINE",
"213 639 LINE"
);
},
{
closed = 1;
nodes = (
"142 355 LINE",
"213 355 LINE",
"213 426 LINE",
"142 426 LINE"
);
},
{
closed = 1;
nodes = (
"213 497 LINE",
"213 426 LINE",
"284 426 LINE",
"284 497 LINE"
);
},
{
closed = 1;
nodes = (
"213 355 LINE",
"213 284 LINE",
"284 284 LINE",
"284 355 LINE"
);
},
{
closed = 1;
nodes = (
"213 284 LINE",
"142 284 LINE",
"142 0 LINE",
"213 0 LINE"
);
}
);
width = 497;
}
);
unicode = 00EE;
},
{
color = 10;
glyphname = idieresis;
lastChange = "2021-11-04 14:29:41 +0000";
layers = (
{
layerId = "2B49945B-6CA5-4A57-AEE9-C94C760A1D53";
paths = (
{
closed = 1;
nodes = (
"355 781 LINE",
"355 852 LINE",
"284 852 LINE",
"284 781 LINE"
);
},
{
closed = 1;
nodes = (
"0 852 LINE",
"0 781 LINE",
"71 781 LINE",
"71 852 LINE"
);
},
{
closed = 1;
nodes = (
"142 0 LINE",
"213 0 LINE",
"213 639 LINE",
"142 639 LINE"
);
}
);
width = 497;
},
{
layerId = "D02270D2-0C41-4FF9-8B26-5AFAC61A3F8E";
paths = (
{
closed = 1;
nodes = (
"355 781 LINE",
"355 852 LINE",
"284 852 LINE",
"284 781 LINE"
);
},
{
closed = 1;
nodes = (
"0 852 LINE",
"0 781 LINE",
"71 781 LINE",
"71 852 LINE"
);
},
{
closed = 1;
nodes = (
"142 639 LINE",
"142 568 LINE",
"142 497 LINE",
"213 497 LINE",
"213 568 LINE",
"213 639 LINE"
);
},
{
closed = 1;
nodes = (
"142 355 LINE",
"213 355 LINE",
"213 426 LINE",
"142 426 LINE"
);
},
{
closed = 1;
nodes = (
"213 497 LINE",
"213 426 LINE",
"284 426 LINE",
"284 497 LINE"
);
},
{
closed = 1;
nodes = (
"213 355 LINE",
"213 284 LINE",
"284 284 LINE",
"284 355 LINE"
);
},
{
closed = 1;
nodes = (
"213 142 LINE",
"213 213 LINE",
"213 284 LINE",
"142 284 LINE",
"142 213 LINE",
"142 142 LINE",
"142 71 LINE",
"142 0 LINE",
"213 0 LINE",
"213 71 LINE"
);
}
);
width = 497;
}
);
unicode = 00EF;
},
{
glyphname = j;
lastChange = "2021-11-04 14:29:53 +0000";
layers = (
{
layerId = "2B49945B-6CA5-4A57-AEE9-C94C760A1D53";
paths = (
{
closed = 1;
nodes = (
"213 497 LINE",
"213 426 LINE",
"213 354 LINE",
"213 284 LINE",
"213 213 LINE",
"213 142 LINE",
"213 69 LINE",
"213 -1 LINE",
"213 -72 LINE",
"213 -143 LINE",
"283 -143 LINE",
"283 -72 LINE",
"283 -1 LINE",
"283 69 LINE",
"283 142 LINE",
"283 213 LINE",
"283 284 LINE",
"283 354 LINE",
"283 426 LINE",
"283 497 LINE",
"283 568 LINE",
"283 639 LINE",
"213 639 LINE",
"213 568 LINE"
);
},
{
closed = 1;
nodes = (
"213 780 LINE",
"283 780 LINE",
"283 852 LINE",
"213 852 LINE"
);
},
{
closed = 1;
nodes = (
"213 -214 LINE",
"213 -143 LINE",
"142 -143 LINE",
"142 -214 LINE"
);
},
{
closed = 1;
nodes = (
"0 -285 LINE",
"72 -285 LINE",
"142 -285 LINE",
"142 -214 LINE",
"72 -214 LINE",
"0 -214 LINE"
);
},
{
closed = 1;
nodes = (
"-71 -214 LINE",
"0 -214 LINE",
"0 -143 LINE",
"-71 -143 LINE"
);
}
);
width = 425;
},
{
layerId = "D02270D2-0C41-4FF9-8B26-5AFAC61A3F8E";
paths = (
{
closed = 1;
nodes = (
"213 638 LINE",
"213 568 LINE",
"284 568 LINE",
"284 638 LINE"
);
},
{
closed = 1;
nodes = (
"213 852 LINE",
"213 781 LINE",
"284 781 LINE",
"284 852 LINE"
);
},
{
closed = 1;
nodes = (
"213 497 LINE",
"213 426 LINE",
"284 426 LINE",
"284 497 LINE"
);
},
{
closed = 1;
nodes = (
"143 426 LINE",
"143 284 LINE",
"213 284 LINE",
"213 426 LINE"
);
},
{
closed = 1;
nodes = (
"143 497 LINE",
"213 497 LINE",
"213 568 LINE",
"143 568 LINE"
);
},
{
closed = 1;
nodes = (
"284 284 LINE",
"213 284 LINE",
"213 -142 LINE",
"284 -142 LINE"
);
},
{
closed = 1;
nodes = (
"143 -142 LINE",
"143 -214 LINE",
"213 -214 LINE",
"213 -142 LINE"
);
},
{
closed = 1;
nodes = (
"143 -285 LINE",
"143 -214 LINE",
"0 -214 LINE",
"0 -285 LINE"
);
},
{
closed = 1;
nodes = (
"-71 -142 LINE",
"-71 -214 LINE",
"0 -214 LINE",
"0 -142 LINE"
);
}
);
width = 426;
}
);
unicode = 006A;
},
{
glyphname = k;
lastChange = "2021-11-04 14:29:47 +0000";
layers = (
{
layerId = "2B49945B-6CA5-4A57-AEE9-C94C760A1D53";
paths = (
{
closed = 1;
nodes = (
"285 353 LINE",
"285 425 LINE",
"213 425 LINE",
"213 353 LINE",
"141 353 LINE",
"141 285 LINE",
"213 285 LINE",
"285 285 LINE"
);
},
{
closed = 1;
nodes = (
"285 498 LINE",
"285 425 LINE",
"353 425 LINE",
"353 498 LINE"
);
},
{
closed = 1;
nodes = (
"353 566 LINE",
"353 498 LINE",
"425 498 LINE",
"425 566 LINE"
);
},
{
closed = 1;
nodes = (
"425 638 LINE",
"425 566 LINE",
"498 566 LINE",
"498 638 LINE"
);
},
{
closed = 1;
nodes = (
"353 285 LINE",
"285 285 LINE",
"285 213 LINE",
"353 213 LINE"
);
},
{
closed = 1;
nodes = (
"425 213 LINE",
"353 213 LINE",
"353 141 LINE",
"425 141 LINE"
);
},
{
closed = 1;
nodes = (
"498 141 LINE",
"425 141 LINE",
"425 72 LINE",
"498 72 LINE"
);
},
{
closed = 1;
nodes = (
"566 72 LINE",
"498 72 LINE",
"498 0 LINE",
"566 0 LINE"
);
},
{
closed = 1;
nodes = (
"72 213 LINE",
"141 213 LINE",
"141 285 LINE",
"72 285 LINE",
"72 923 LINE",
"0 923 LINE",
"0 0 LINE",
"72 0 LINE"
);
}
);
width = 708;
},
{
layerId = "D02270D2-0C41-4FF9-8B26-5AFAC61A3F8E";
paths = (
{
closed = 1;
nodes = (
"142 284 LINE",
"71 284 LINE",
"71 426 LINE",
"0 426 LINE",
"0 142 LINE",
"71 142 LINE",
"71 213 LINE",
"142 213 LINE"
);
},
{
closed = 1;
nodes = (
"142 355 LINE",
"142 284 LINE",
"213 284 LINE",
"213 355 LINE"
);
},
{
closed = 1;
nodes = (
"213 426 LINE",
"213 355 LINE",
"284 355 LINE",
"284 426 LINE"
);
},
{
closed = 1;
nodes = (
"355 213 LINE",
"355 284 LINE",
"213 284 LINE",
"213 213 LINE"
);
},
{
closed = 1;
nodes = (
"426 568 LINE",
"284 568 LINE",
"284 497 LINE",
"426 497 LINE"
);
},
{
closed = 1;
nodes = (
"426 639 LINE",
"426 568 LINE",
"497 568 LINE",
"497 639 LINE"
);
},
{
closed = 1;
nodes = (
"426 213 LINE",
"355 213 LINE",
"355 142 LINE",
"426 142 LINE"
);
},
{
closed = 1;
nodes = (
"568 142 LINE",
"497 142 LINE",
"497 0 LINE",
"568 0 LINE"
);
},
{
closed = 1;
nodes = (
"0 71 LINE",
"0 0 LINE",
"71 0 LINE",
"71 71 LINE"
);
},
{
closed = 1;
nodes = (
"71 142 LINE",
"71 71 LINE",
"142 71 LINE",
"142 142 LINE"
);
},
{
closed = 1;
nodes = (
"71 497 LINE",
"71 426 LINE",
"142 426 LINE",
"142 497 LINE"
);
},
{
closed = 1;
nodes = (
"0 639 LINE",
"0 497 LINE",
"71 497 LINE",
"71 639 LINE"
);
},
{
closed = 1;
nodes = (
"142 781 LINE",
"71 781 LINE",
"71 639 LINE",
"142 639 LINE"
);
},
{
closed = 1;
nodes = (
"0 923 LINE",
"0 781 LINE",
"71 781 LINE",
"71 923 LINE"
);
}
);
width = 710;
}
);
unicode = 006B;
},
{
glyphname = l;
lastChange = "2021-11-04 14:29:58 +0000";
layers = (
{
layerId = "2B49945B-6CA5-4A57-AEE9-C94C760A1D53";
paths = (
{
closed = 1;
nodes = (
"72 923 LINE",
"0 923 LINE",
"0 0 LINE",
"72 0 LINE"
);
}
);
width = 214;
},
{
layerId = "D02270D2-0C41-4FF9-8B26-5AFAC61A3F8E";
paths = (
{
closed = 1;
nodes = (
"142 71 LINE",
"71 71 LINE",
"71 0 LINE",
"142 0 LINE"
);
},
{
closed = 1;
nodes = (
"71 497 LINE",
"0 497 LINE",
"0 71 LINE",
"71 71 LINE"
);
},
{
closed = 1;
nodes = (
"71 568 LINE",
"71 497 LINE",
"142 497 LINE",
"142 568 LINE"
);
},
{
closed = 1;
nodes = (
"0 568 LINE",
"71 568 LINE",
"71 639 LINE",
"0 639 LINE"
);
},
{
closed = 1;
nodes = (
"142 781 LINE",
"71 781 LINE",
"71 639 LINE",
"142 639 LINE"
);
},
{
closed = 1;
nodes = (
"0 923 LINE",
"0 781 LINE",
"71 781 LINE",
"71 923 LINE"
);
}
);
width = 284;
}
);
unicode = 006C;
},
{
glyphname = m;
lastChange = "2021-11-04 14:30:01 +0000";
layers = (
{
layerId = "2B49945B-6CA5-4A57-AEE9-C94C760A1D53";
paths = (
{
closed = 1;
nodes = (
"142 639 LINE",
"142 568 LINE",
"355 568 LINE",
"355 639 LINE"
);
},
{
closed = 1;
nodes = (
"355 497 LINE",
"426 497 LINE",
"426 568 LINE",
"355 568 LINE"
);
},
{
closed = 1;
nodes = (
"426 0 LINE",
"497 0 LINE",
"497 497 LINE",
"426 497 LINE"
);
},
{
closed = 1;
nodes = (
"568 497 LINE",
"568 568 LINE",
"497 568 LINE",
"497 497 LINE"
);
},
{
closed = 1;
nodes = (
"568 639 LINE",
"568 568 LINE",
"781 568 LINE",
"781 639 LINE"
);
},
{
closed = 1;
nodes = (
"781 497 LINE",
"852 497 LINE",
"852 568 LINE",
"781 568 LINE"
);
},
{
closed = 1;
nodes = (
"852 0 LINE",
"923 0 LINE",
"923 497 LINE",
"852 497 LINE"
);
},
{
closed = 1;
nodes = (
"0 639 LINE",
"0 0 LINE",
"71 0 LINE",
"71 497 LINE",
"142 497 LINE",
"142 568 LINE",
"71 568 LINE",
"71 639 LINE"
);
}
);
width = 1065;
},
{
layerId = "D02270D2-0C41-4FF9-8B26-5AFAC61A3F8E";
paths = (
{
closed = 1;
nodes = (
"142 568 LINE",
"213 568 LINE",
"213 639 LINE",
"142 639 LINE"
);
},
{
closed = 1;
nodes = (
"284 497 LINE",
"284 568 LINE",
"213 568 LINE",
"213 497 LINE"
);
},
{
closed = 1;
nodes = (
"284 568 LINE",
"355 568 LINE",
"355 639 LINE",
"284 639 LINE"
);
},
{
closed = 1;
nodes = (
"355 497 LINE",
"426 497 LINE",
"426 568 LINE",
"355 568 LINE"
);
},
{
closed = 1;
nodes = (
"426 0 LINE",
"497 0 LINE",
"497 497 LINE",
"426 497 LINE"
);
},
{
closed = 1;
nodes = (
"568 497 LINE",
"568 568 LINE",
"497 568 LINE",
"497 497 LINE"
);
},
{
closed = 1;
nodes = (
"568 639 LINE",
"568 568 LINE",
"709 568 LINE",
"709 639 LINE"
);
},
{
closed = 1;
nodes = (
"709 568 LINE",
"709 497 LINE",
"851 497 LINE",
"851 568 LINE"
);
},
{
closed = 1;
nodes = (
"851 284 LINE",
"923 284 LINE",
"923 497 LINE",
"851 497 LINE"
);
},
{
closed = 1;
nodes = (
"780 142 LINE",
"851 142 LINE",
"851 284 LINE",
"780 284 LINE"
);
},
{
closed = 1;
nodes = (
"923 0 LINE",
"923 142 LINE",
"851 142 LINE",
"851 0 LINE"
);
},
{
closed = 1;
nodes = (
"0 0 LINE",
"71 0 LINE",
"71 213 LINE",
"0 213 LINE"
);
},
{
closed = 1;
nodes = (
"142 284 LINE",
"71 284 LINE",
"71 213 LINE",
"142 213 LINE"
);
},
{
closed = 1;
nodes = (
"71 284 LINE",
"71 355 LINE",
"0 355 LINE",
"0 284 LINE"
);
},
{
closed = 1;
nodes = (
"142 426 LINE",
"71 426 LINE",
"71 355 LINE",
"142 355 LINE"
);
},
{
closed = 1;
nodes = (
"0 639 LINE",
"0 426 LINE",
"71 426 LINE",
"71 497 LINE",
"142 497 LINE",
"142 568 LINE",
"71 568 LINE",
"71 639 LINE"
);
}
);
width = 1065;
}
);
unicode = 006D;
},
{
glyphname = n;
lastChange = "2021-11-04 14:30:03 +0000";
layers = (
{
layerId = "2B49945B-6CA5-4A57-AEE9-C94C760A1D53";
paths = (
{
closed = 1;
nodes = (
"355 568 LINE",
"355 639 LINE",
"142 639 LINE",
"142 568 LINE"
);
},
{
closed = 1;
nodes = (
"426 568 LINE",
"355 568 LINE",
"355 497 LINE",
"426 497 LINE"
);
},
{
closed = 1;
nodes = (
"426 0 LINE",
"497 0 LINE",
"497 497 LINE",
"426 497 LINE"
);
},
{
closed = 1;
nodes = (
"71 497 LINE",
"142 497 LINE",
"142 568 LINE",
"71 568 LINE",
"71 639 LINE",
"0 639 LINE",
"0 0 LINE",
"71 0 LINE"
);
}
);
width = 639;
},
{
layerId = "D02270D2-0C41-4FF9-8B26-5AFAC61A3F8E";
paths = (
{
closed = 1;
nodes = (
"355 639 LINE",
"213 639 LINE",
"213 568 LINE",
"355 568 LINE"
);
},
{
closed = 1;
nodes = (
"426 568 LINE",
"355 568 LINE",
"355 497 LINE",
"426 497 LINE"
);
},
{
closed = 1;
nodes = (
"497 355 LINE",
"497 497 LINE",
"426 497 LINE",
"426 355 LINE"
);
},
{
closed = 1;
nodes = (
"426 284 LINE",
"426 355 LINE",
"355 355 LINE",
"355 284 LINE"
);
},
{
closed = 1;
nodes = (
"426 0 LINE",
"497 0 LINE",
"497 284 LINE",
"426 284 LINE"
);
},
{
closed = 1;
nodes = (
"71 142 LINE",
"0 142 LINE",
"0 0 LINE",
"71 0 LINE"
);
},
{
closed = 1;
nodes = (
"71 213 LINE",
"71 142 LINE",
"142 142 LINE",
"142 213 LINE"
);
},
{
closed = 1;
nodes = (
"0 213 LINE",
"71 213 LINE",
"71 284 LINE",
"0 284 LINE"
);
},
{
closed = 1;
nodes = (
"71 355 LINE",
"71 284 LINE",
"142 284 LINE",
"142 355 LINE"
);
},
{
closed = 1;
nodes = (
"213 497 LINE",
"213 568 LINE",
"71 568 LINE",
"71 639 LINE",
"0 639 LINE",
"0 355 LINE",
"71 355 LINE",
"71 497 LINE"
);
}
);
width = 639;
}
);
unicode = 006E;
},
{
glyphname = o;
lastChange = "2021-11-04 14:30:05 +0000";
layers = (
{
layerId = "2B49945B-6CA5-4A57-AEE9-C94C760A1D53";
paths = (
{
closed = 1;
nodes = (
"497 568 LINE",
"426 568 LINE",
"426 497 LINE",
"497 497 LINE"
);
},
{
closed = 1;
nodes = (
"426 568 LINE",
"426 639 LINE",
"142 639 LINE",
"142 568 LINE"
);
},
{
closed = 1;
nodes = (
"71 568 LINE",
"71 497 LINE",
"142 497 LINE",
"142 568 LINE"
);
},
{
closed = 1;
nodes = (
"71 71 LINE",
"142 71 LINE",
"142 142 LINE",
"71 142 LINE"
);
},
{
closed = 1;
nodes = (
"71 497 LINE",
"0 497 LINE",
"0 142 LINE",
"71 142 LINE"
);
},
{
closed = 1;
nodes = (
"497 142 LINE",
"568 142 LINE",
"568 497 LINE",
"497 497 LINE"
);
},
{
closed = 1;
nodes = (
"142 71 LINE",
"142 0 LINE",
"426 0 LINE",
"426 71 LINE"
);
},
{
closed = 1;
nodes = (
"497 71 LINE",
"497 142 LINE",
"426 142 LINE",
"426 71 LINE"
);
}
);
width = 710;
},
{
layerId = "D02270D2-0C41-4FF9-8B26-5AFAC61A3F8E";
paths = (
{
closed = 1;
nodes = (
"497 568 LINE",
"426 568 LINE",
"426 497 LINE",
"497 497 LINE"
);
},
{
closed = 1;
nodes = (
"284 639 LINE",
"142 639 LINE",
"142 568 LINE",
"284 568 LINE"
);
},
{
closed = 1;
nodes = (
"355 568 LINE",
"284 568 LINE",
"284 497 LINE",
"355 497 LINE"
);
},
{
closed = 1;
nodes = (
"355 639 LINE",
"355 568 LINE",
"426 568 LINE",
"426 639 LINE"
);
},
{
closed = 1;
nodes = (
"0 497 LINE",
"0 355 LINE",
"71 355 LINE",
"71 497 LINE"
);
},
{
closed = 1;
nodes = (
"71 568 LINE",
"71 497 LINE",
"142 497 LINE",
"142 568 LINE"
);
},
{
closed = 1;
nodes = (
"568 142 LINE",
"568 284 LINE",
"497 284 LINE",
"497 142 LINE"
);
},
{
closed = 1;
nodes = (
"71 284 LINE",
"0 284 LINE",
"0 142 LINE",
"71 142 LINE"
);
},
{
closed = 1;
nodes = (
"71 355 LINE",
"71 284 LINE",
"142 284 LINE",
"142 355 LINE"
);
},
{
closed = 1;
nodes = (
"497 284 LINE",
"497 355 LINE",
"426 355 LINE",
"426 284 LINE"
);
},
{
closed = 1;
nodes = (
"568 355 LINE",
"568 497 LINE",
"497 497 LINE",
"497 355 LINE"
);
},
{
closed = 1;
nodes = (
"213 71 LINE",
"213 0 LINE",
"426 0 LINE",
"426 71 LINE"
);
},
{
closed = 1;
nodes = (
"497 71 LINE",
"497 142 LINE",
"426 142 LINE",
"426 71 LINE"
);
},
{
closed = 1;
nodes = (
"71 142 LINE",
"71 71 LINE",
"213 71 LINE",
"213 142 LINE"
);
}
);
width = 710;
}
);
unicode = 006F;
},
{
color = 10;
glyphname = ocircumflex;
lastChange = "2021-11-04 14:30:08 +0000";
layers = (
{
components = (
{
name = o;
}
);
layerId = "2B49945B-6CA5-4A57-AEE9-C94C760A1D53";
paths = (
{
closed = 1;
nodes = (
"497 781 LINE",
"426 781 LINE",
"426 710 LINE",
"497 710 LINE"
);
},
{
closed = 1;
nodes = (
"355 781 LINE",
"426 781 LINE",
"426 852 LINE",
"355 852 LINE"
);
},
{
closed = 1;
nodes = (
"213 923 LINE",
"213 852 LINE",
"355 852 LINE",
"355 923 LINE"
);
},
{
closed = 1;
nodes = (
"142 710 LINE",
"142 781 LINE",
"71 781 LINE",
"71 710 LINE"
);
},
{
closed = 1;
nodes = (
"213 781 LINE",
"213 852 LINE",
"142 852 LINE",
"142 781 LINE"
);
},
{
closed = 1;
nodes = (
"497 568 LINE",
"426 568 LINE",
"426 497 LINE",
"497 497 LINE"
);
},
{
closed = 1;
nodes = (
"426 568 LINE",
"426 639 LINE",
"142 639 LINE",
"142 568 LINE"
);
},
{
closed = 1;
nodes = (
"71 568 LINE",
"71 497 LINE",
"142 497 LINE",
"142 568 LINE"
);
},
{
closed = 1;
nodes = (
"71 71 LINE",
"142 71 LINE",
"142 142 LINE",
"71 142 LINE"
);
},
{
closed = 1;
nodes = (
"71 497 LINE",
"0 497 LINE",
"0 142 LINE",
"71 142 LINE"
);
},
{
closed = 1;
nodes = (
"497 142 LINE",
"568 142 LINE",
"568 497 LINE",
"497 497 LINE"
);
},
{
closed = 1;
nodes = (
"142 71 LINE",
"142 0 LINE",
"426 0 LINE",
"426 71 LINE"
);
},
{
closed = 1;
nodes = (
"497 71 LINE",
"497 142 LINE",
"426 142 LINE",
"426 71 LINE"
);
}
);
width = 710;
},
{
layerId = "D02270D2-0C41-4FF9-8B26-5AFAC61A3F8E";
paths = (
{
closed = 1;
nodes = (
"497 781 LINE",
"426 781 LINE",
"426 710 LINE",
"497 710 LINE"
);
},
{
closed = 1;
nodes = (
"355 781 LINE",
"426 781 LINE",
"426 852 LINE",
"355 852 LINE"
);
},
{
closed = 1;
nodes = (
"284 852 LINE",
"355 852 LINE",
"355 923 LINE",
"284 923 LINE"
);
},
{
closed = 1;
nodes = (
"142 710 LINE",
"142 781 LINE",
"71 781 LINE",
"71 710 LINE"
);
},
{
closed = 1;
nodes = (
"142 781 LINE",
"284 781 LINE",
"284 852 LINE",
"142 852 LINE"
);
},
{
closed = 1;
nodes = (
"497 426 LINE",
"497 568 LINE",
"426 568 LINE",
"426 426 LINE"
);
},
{
closed = 1;
nodes = (
"284 639 LINE",
"142 639 LINE",
"142 568 LINE",
"284 568 LINE"
);
},
{
closed = 1;
nodes = (
"355 568 LINE",
"284 568 LINE",
"284 497 LINE",
"355 497 LINE"
);
},
{
closed = 1;
nodes = (
"355 639 LINE",
"355 568 LINE",
"426 568 LINE",
"426 639 LINE"
);
},
{
closed = 1;
nodes = (
"0 426 LINE",
"71 426 LINE",
"71 497 LINE",
"0 497 LINE"
);
},
{
closed = 1;
nodes = (
"71 568 LINE",
"71 497 LINE",
"142 497 LINE",
"142 568 LINE"
);
},
{
closed = 1;
nodes = (
"568 213 LINE",
"497 213 LINE",
"497 142 LINE",
"568 142 LINE"
);
},
{
closed = 1;
nodes = (
"71 355 LINE",
"0 355 LINE",
"0 142 LINE",
"71 142 LINE"
);
},
{
closed = 1;
nodes = (
"71 426 LINE",
"71 355 LINE",
"142 355 LINE",
"142 426 LINE"
);
},
{
closed = 1;
nodes = (
"497 213 LINE",
"497 284 LINE",
"426 284 LINE",
"426 213 LINE"
);
},
{
closed = 1;
nodes = (
"568 284 LINE",
"568 426 LINE",
"497 426 LINE",
"497 284 LINE"
);
},
{
closed = 1;
nodes = (
"213 71 LINE",
"213 0 LINE",
"426 0 LINE",
"426 71 LINE"
);
},
{
closed = 1;
nodes = (
"497 71 LINE",
"497 142 LINE",
"426 142 LINE",
"426 71 LINE"
);
},
{
closed = 1;
nodes = (
"71 142 LINE",
"71 71 LINE",
"213 71 LINE",
"213 142 LINE"
);
}
);
width = 710;
}
);
unicode = 00F4;
},
{
color = 10;
glyphname = oe;
lastChange = "2021-11-04 14:30:10 +0000";
layers = (
{
layerId = "2B49945B-6CA5-4A57-AEE9-C94C760A1D53";
paths = (
{
closed = 1;
nodes = (
"568 355 LINE",
"568 497 LINE",
"497 497 LINE",
"497 142 LINE",
"568 142 LINE",
"568 284 LINE",
"923 284 LINE",
"923 355 LINE"
);
},
{
closed = 1;
nodes = (
"994 355 LINE",
"994 426 LINE",
"923 426 LINE",
"923 355 LINE"
);
},
{
closed = 1;
nodes = (
"1065 426 LINE",
"1065 497 LINE",
"994 497 LINE",
"994 426 LINE"
);
},
{
closed = 1;
nodes = (
"994 568 LINE",
"923 568 LINE",
"923 497 LINE",
"994 497 LINE"
);
},
{
closed = 1;
nodes = (
"923 568 LINE",
"923 639 LINE",
"639 639 LINE",
"639 568 LINE"
);
},
{
closed = 1;
nodes = (
"568 568 LINE",
"568 497 LINE",
"639 497 LINE",
"639 568 LINE"
);
},
{
closed = 1;
nodes = (
"994 213 LINE",
"994 142 LINE",
"1065 142 LINE",
"1065 213 LINE"
);
},
{
closed = 1;
nodes = (
"639 142 LINE",
"568 142 LINE",
"568 71 LINE",
"639 71 LINE"
);
},
{
closed = 1;
nodes = (
"923 142 LINE",
"923 71 LINE",
"994 71 LINE",
"994 142 LINE"
);
},
{
closed = 1;
nodes = (
"923 0 LINE",
"923 71 LINE",
"639 71 LINE",
"639 0 LINE"
);
},
{
closed = 1;
nodes = (
"497 568 LINE",
"426 568 LINE",
"426 497 LINE",
"497 497 LINE"
);
},
{
closed = 1;
nodes = (
"426 568 LINE",
"426 639 LINE",
"142 639 LINE",
"142 568 LINE"
);
},
{
closed = 1;
nodes = (
"71 568 LINE",
"71 497 LINE",
"142 497 LINE",
"142 568 LINE"
);
},
{
closed = 1;
nodes = (
"71 71 LINE",
"142 71 LINE",
"142 142 LINE",
"71 142 LINE"
);
},
{
closed = 1;
nodes = (
"71 497 LINE",
"0 497 LINE",
"0 142 LINE",
"71 142 LINE"
);
},
{
closed = 1;
nodes = (
"142 71 LINE",
"142 0 LINE",
"426 0 LINE",
"426 71 LINE"
);
},
{
closed = 1;
nodes = (
"497 71 LINE",
"497 142 LINE",
"426 142 LINE",
"426 71 LINE"
);
}
);
width = 1207;
},
{
layerId = "D02270D2-0C41-4FF9-8B26-5AFAC61A3F8E";
paths = (
{
closed = 1;
nodes = (
"639 426 LINE",
"568 426 LINE",
"568 284 LINE",
"710 284 LINE",
"710 355 LINE",
"639 355 LINE"
);
},
{
closed = 1;
nodes = (
"781 213 LINE",
"781 284 LINE",
"710 284 LINE",
"710 213 LINE"
);
},
{
closed = 1;
nodes = (
"781 284 LINE",
"923 284 LINE",
"923 355 LINE",
"781 355 LINE"
);
},
{
closed = 1;
nodes = (
"994 355 LINE",
"994 426 LINE",
"923 426 LINE",
"923 355 LINE"
);
},
{
closed = 1;
nodes = (
"1065 426 LINE",
"1065 497 LINE",
"994 497 LINE",
"994 426 LINE"
);
},
{
closed = 1;
nodes = (
"994 568 LINE",
"923 568 LINE",
"923 497 LINE",
"994 497 LINE"
);
},
{
closed = 1;
nodes = (
"781 639 LINE",
"639 639 LINE",
"639 568 LINE",
"781 568 LINE"
);
},
{
closed = 1;
nodes = (
"852 568 LINE",
"781 568 LINE",
"781 497 LINE",
"852 497 LINE"
);
},
{
closed = 1;
nodes = (
"852 639 LINE",
"852 568 LINE",
"923 568 LINE",
"923 639 LINE"
);
},
{
closed = 1;
nodes = (
"568 568 LINE",
"568 497 LINE",
"639 497 LINE",
"639 568 LINE"
);
},
{
closed = 1;
nodes = (
"994 213 LINE",
"994 142 LINE",
"1065 142 LINE",
"1065 213 LINE"
);
},
{
closed = 1;
nodes = (
"639 142 LINE",
"568 142 LINE",
"568 71 LINE",
"639 71 LINE"
);
},
{
closed = 1;
nodes = (
"923 142 LINE",
"923 71 LINE",
"994 71 LINE",
"994 142 LINE"
);
},
{
closed = 1;
nodes = (
"923 0 LINE",
"923 71 LINE",
"639 71 LINE",
"639 0 LINE"
);
},
{
closed = 1;
nodes = (
"568 497 LINE",
"497 497 LINE",
"497 426 LINE",
"568 426 LINE"
);
},
{
closed = 1;
nodes = (
"497 568 LINE",
"426 568 LINE",
"426 497 LINE",
"497 497 LINE"
);
},
{
closed = 1;
nodes = (
"284 639 LINE",
"142 639 LINE",
"142 568 LINE",
"284 568 LINE"
);
},
{
closed = 1;
nodes = (
"355 568 LINE",
"284 568 LINE",
"284 497 LINE",
"355 497 LINE"
);
},
{
closed = 1;
nodes = (
"355 639 LINE",
"355 568 LINE",
"426 568 LINE",
"426 639 LINE"
);
},
{
closed = 1;
nodes = (
"0 497 LINE",
"0 355 LINE",
"71 355 LINE",
"71 497 LINE"
);
},
{
closed = 1;
nodes = (
"71 568 LINE",
"71 497 LINE",
"142 497 LINE",
"142 568 LINE"
);
},
{
closed = 1;
nodes = (
"0 284 LINE",
"0 142 LINE",
"71 142 LINE",
"71 284 LINE"
);
},
{
closed = 1;
nodes = (
"71 355 LINE",
"71 284 LINE",
"142 284 LINE",
"142 355 LINE"
);
},
{
closed = 1;
nodes = (
"497 142 LINE",
"568 142 LINE",
"568 284 LINE",
"497 284 LINE"
);
},
{
closed = 1;
nodes = (
"426 284 LINE",
"497 284 LINE",
"497 355 LINE",
"426 355 LINE"
);
},
{
closed = 1;
nodes = (
"213 71 LINE",
"213 0 LINE",
"426 0 LINE",
"426 71 LINE"
);
},
{
closed = 1;
nodes = (
"497 71 LINE",
"497 142 LINE",
"426 142 LINE",
"426 71 LINE"
);
},
{
closed = 1;
nodes = (
"71 142 LINE",
"71 71 LINE",
"213 71 LINE",
"213 142 LINE"
);
}
);
width = 1207;
}
);
unicode = 0153;
},
{
glyphname = p;
lastChange = "2021-11-04 14:30:13 +0000";
layers = (
{
layerId = "2B49945B-6CA5-4A57-AEE9-C94C760A1D53";
paths = (
{
closed = 1;
nodes = (
"71 212 LINE",
"71 283 LINE",
"71 354 LINE",
"71 426 LINE",
"71 497 LINE",
"142 497 LINE",
"142 568 LINE",
"71 568 LINE",
"71 639 LINE",
"0 639 LINE",
"0 568 LINE",
"0 497 LINE",
"0 426 LINE",
"0 354 LINE",
"0 283 LINE",
"0 212 LINE",
"0 142 LINE",
"0 71 LINE",
"0 0 LINE",
"0 -72 LINE",
"0 -143 LINE",
"0 -214 LINE",
"0 -285 LINE",
"71 -285 LINE",
"71 -214 LINE",
"71 -143 LINE",
"71 -72 LINE",
"71 0 LINE",
"71 71 LINE",
"142 71 LINE",
"142 142 LINE",
"71 142 LINE"
);
},
{
closed = 1;
nodes = (
"213 71 LINE",
"142 71 LINE",
"142 0 LINE",
"213 0 LINE",
"285 0 LINE",
"356 0 LINE",
"427 0 LINE",
"427 71 LINE",
"356 71 LINE",
"285 71 LINE"
);
},
{
closed = 1;
nodes = (
"497 71 LINE",
"497 142 LINE",
"427 142 LINE",
"427 71 LINE"
);
},
{
closed = 1;
nodes = (
"497 426 LINE",
"497 354 LINE",
"497 283 LINE",
"497 212 LINE",
"497 142 LINE",
"568 142 LINE",
"568 212 LINE",
"568 283 LINE",
"568 354 LINE",
"568 426 LINE",
"568 497 LINE",
"497 497 LINE"
);
},
{
closed = 1;
nodes = (
"497 568 LINE",
"427 568 LINE",
"427 497 LINE",
"497 497 LINE"
);
},
{
closed = 1;
nodes = (
"356 568 LINE",
"427 568 LINE",
"427 639 LINE",
"356 639 LINE",
"285 639 LINE",
"213 639 LINE",
"142 639 LINE",
"142 568 LINE",
"213 568 LINE",
"285 568 LINE"
);
}
);
width = 710;
},
{
layerId = "D02270D2-0C41-4FF9-8B26-5AFAC61A3F8E";
paths = (
{
closed = 1;
nodes = (
"213 142 LINE",
"213 71 LINE",
"356 71 LINE",
"356 142 LINE"
);
},
{
closed = 1;
nodes = (
"427 0 LINE",
"427 71 LINE",
"356 71 LINE",
"356 0 LINE"
);
},
{
closed = 1;
nodes = (
"497 71 LINE",
"497 142 LINE",
"427 142 LINE",
"427 71 LINE"
);
},
{
closed = 1;
nodes = (
"568 142 LINE",
"568 283 LINE",
"497 283 LINE",
"497 142 LINE"
);
},
{
closed = 1;
nodes = (
"497 283 LINE",
"497 354 LINE",
"427 354 LINE",
"427 283 LINE"
);
},
{
closed = 1;
nodes = (
"568 354 LINE",
"568 497 LINE",
"497 497 LINE",
"497 354 LINE"
);
},
{
closed = 1;
nodes = (
"497 568 LINE",
"427 568 LINE",
"427 497 LINE",
"497 497 LINE"
);
},
{
closed = 1;
nodes = (
"285 639 LINE",
"142 639 LINE",
"142 568 LINE",
"285 568 LINE"
);
},
{
closed = 1;
nodes = (
"356 568 LINE",
"285 568 LINE",
"285 497 LINE",
"356 497 LINE"
);
},
{
closed = 1;
nodes = (
"356 639 LINE",
"356 568 LINE",
"427 568 LINE",
"427 639 LINE"
);
},
{
closed = 1;
nodes = (
"71 497 LINE",
"142 497 LINE",
"142 568 LINE",
"71 568 LINE",
"71 639 LINE",
"0 639 LINE",
"0 283 LINE",
"71 283 LINE"
);
},
{
closed = 1;
nodes = (
"71 283 LINE",
"71 212 LINE",
"142 212 LINE",
"142 283 LINE"
);
},
{
closed = 1;
nodes = (
"71 0 LINE",
"213 0 LINE",
"213 71 LINE",
"71 71 LINE",
"71 212 LINE",
"0 212 LINE",
"0 -285 LINE",
"71 -285 LINE"
);
}
);
width = 710;
}
);
unicode = 0070;
},
{
glyphname = q;
lastChange = "2021-11-04 14:30:16 +0000";
layers = (
{
layerId = "2B49945B-6CA5-4A57-AEE9-C94C760A1D53";
paths = (
{
closed = 1;
nodes = (
"142 71 LINE",
"142 0 LINE",
"426 0 LINE",
"426 71 LINE"
);
},
{
closed = 1;
nodes = (
"71 71 LINE",
"142 71 LINE",
"142 142 LINE",
"71 142 LINE"
);
},
{
closed = 1;
nodes = (
"71 497 LINE",
"0 497 LINE",
"0 142 LINE",
"71 142 LINE"
);
},
{
closed = 1;
nodes = (
"71 568 LINE",
"71 497 LINE",
"142 497 LINE",
"142 568 LINE"
);
},
{
closed = 1;
nodes = (
"426 568 LINE",
"426 639 LINE",
"142 639 LINE",
"142 568 LINE"
);
},
{
closed = 1;
nodes = (
"497 142 LINE",
"426 142 LINE",
"426 71 LINE",
"497 71 LINE",
"497 -285 LINE",
"568 -285 LINE",
"568 639 LINE",
"497 639 LINE",
"497 568 LINE",
"426 568 LINE",
"426 497 LINE",
"497 497 LINE"
);
}
);
width = 710;
},
{
layerId = "D02270D2-0C41-4FF9-8B26-5AFAC61A3F8E";
paths = (
{
closed = 1;
nodes = (
"356 142 LINE",
"356 71 LINE",
"497 71 LINE",
"497 -285 LINE",
"568 -285 LINE",
"568 212 LINE",
"497 212 LINE",
"497 142 LINE"
);
},
{
closed = 1;
nodes = (
"142 71 LINE",
"142 0 LINE",
"356 0 LINE",
"356 71 LINE"
);
},
{
closed = 1;
nodes = (
"71 71 LINE",
"142 71 LINE",
"142 142 LINE",
"71 142 LINE"
);
},
{
closed = 1;
nodes = (
"71 354 LINE",
"0 354 LINE",
"0 142 LINE",
"71 142 LINE"
);
},
{
closed = 1;
nodes = (
"71 426 LINE",
"71 354 LINE",
"142 354 LINE",
"142 426 LINE"
);
},
{
closed = 1;
nodes = (
"0 426 LINE",
"71 426 LINE",
"71 497 LINE",
"0 497 LINE"
);
},
{
closed = 1;
nodes = (
"427 568 LINE",
"427 639 LINE",
"213 639 LINE",
"213 568 LINE"
);
},
{
closed = 1;
nodes = (
"213 568 LINE",
"71 568 LINE",
"71 497 LINE",
"213 497 LINE"
);
},
{
closed = 1;
nodes = (
"497 426 LINE",
"568 426 LINE",
"568 639 LINE",
"497 639 LINE",
"497 568 LINE",
"427 568 LINE",
"427 497 LINE",
"497 497 LINE"
);
},
{
closed = 1;
nodes = (
"497 354 LINE",
"497 426 LINE",
"427 426 LINE",
"427 354 LINE"
);
},
{
closed = 1;
nodes = (
"568 354 LINE",
"497 354 LINE",
"497 283 LINE",
"568 283 LINE"
);
},
{
closed = 1;
nodes = (
"497 212 LINE",
"497 283 LINE",
"427 283 LINE",
"427 212 LINE"
);
}
);
width = 710;
}
);
unicode = 0071;
},
{
glyphname = r;
lastChange = "2021-11-04 14:30:18 +0000";
layers = (
{
layerId = "2B49945B-6CA5-4A57-AEE9-C94C760A1D53";
paths = (
{
closed = 1;
nodes = (
"355 568 LINE",
"355 639 LINE",
"142 639 LINE",
"142 568 LINE"
);
},
{
closed = 1;
nodes = (
"426 568 LINE",
"355 568 LINE",
"355 497 LINE",
"426 497 LINE"
);
},
{
closed = 1;
nodes = (
"71 497 LINE",
"142 497 LINE",
"142 568 LINE",
"71 568 LINE",
"71 639 LINE",
"0 639 LINE",
"0 0 LINE",
"71 0 LINE"
);
}
);
width = 568;
},
{
layerId = "D02270D2-0C41-4FF9-8B26-5AFAC61A3F8E";
paths = (
{
closed = 1;
nodes = (
"142 568 LINE",
"71 568 LINE",
"71 639 LINE",
"0 639 LINE",
"0 426 LINE",
"71 426 LINE",
"71 497 LINE",
"142 497 LINE"
);
},
{
closed = 1;
nodes = (
"142 639 LINE",
"142 568 LINE",
"213 568 LINE",
"213 639 LINE"
);
},
{
closed = 1;
nodes = (
"284 568 LINE",
"213 568 LINE",
"213 497 LINE",
"284 497 LINE"
);
},
{
closed = 1;
nodes = (
"284 639 LINE",
"284 568 LINE",
"355 568 LINE",
"355 639 LINE"
);
},
{
closed = 1;
nodes = (
"426 568 LINE",
"355 568 LINE",
"355 497 LINE",
"426 497 LINE"
);
},
{
closed = 1;
nodes = (
"71 213 LINE",
"0 213 LINE",
"0 0 LINE",
"71 0 LINE"
);
},
{
closed = 1;
nodes = (
"71 284 LINE",
"71 213 LINE",
"142 213 LINE",
"142 284 LINE"
);
},
{
closed = 1;
nodes = (
"0 284 LINE",
"71 284 LINE",
"71 355 LINE",
"0 355 LINE"
);
},
{
closed = 1;
nodes = (
"71 426 LINE",
"71 355 LINE",
"142 355 LINE",
"142 426 LINE"
);
}
);
width = 568;
}
);
unicode = 0072;
},
{
glyphname = s;
lastChange = "2021-11-04 14:30:21 +0000";
layers = (
{
layerId = "2B49945B-6CA5-4A57-AEE9-C94C760A1D53";
paths = (
{
closed = 1;
nodes = (
"568 497 LINE",
"497 497 LINE",
"497 426 LINE",
"568 426 LINE"
);
},
{
closed = 1;
nodes = (
"497 568 LINE",
"426 568 LINE",
"426 497 LINE",
"497 497 LINE"
);
},
{
closed = 1;
nodes = (
"426 568 LINE",
"426 639 LINE",
"142 639 LINE",
"142 568 LINE"
);
},
{
closed = 1;
nodes = (
"0 426 LINE",
"71 426 LINE",
"71 497 LINE",
"0 497 LINE"
);
},
{
closed = 1;
nodes = (
"71 355 LINE",
"142 355 LINE",
"142 426 LINE",
"71 426 LINE"
);
},
{
closed = 1;
nodes = (
"71 568 LINE",
"71 497 LINE",
"142 497 LINE",
"142 568 LINE"
);
},
{
closed = 1;
nodes = (
"0 213 LINE",
"0 142 LINE",
"71 142 LINE",
"71 213 LINE"
);
},
{
closed = 1;
nodes = (
"426 142 LINE",
"426 71 LINE",
"497 71 LINE",
"497 142 LINE"
);
},
{
closed = 1;
nodes = (
"497 213 LINE",
"497 142 LINE",
"568 142 LINE",
"568 213 LINE"
);
},
{
closed = 1;
nodes = (
"426 213 LINE",
"497 213 LINE",
"497 284 LINE",
"426 284 LINE"
);
},
{
closed = 1;
nodes = (
"142 355 LINE",
"142 284 LINE",
"426 284 LINE",
"426 355 LINE"
);
},
{
closed = 1;
nodes = (
"426 0 LINE",
"426 71 LINE",
"142 71 LINE",
"142 0 LINE"
);
},
{
closed = 1;
nodes = (
"142 142 LINE",
"71 142 LINE",
"71 71 LINE",
"142 71 LINE"
);
}
);
width = 639;
},
{
layerId = "D02270D2-0C41-4FF9-8B26-5AFAC61A3F8E";
paths = (
{
closed = 1;
nodes = (
"511 447 LINE",
"447 447 LINE",
"447 383 LINE",
"511 383 LINE"
);
},
{
closed = 1;
nodes = (
"447 511 LINE",
"383 511 LINE",
"383 447 LINE",
"447 447 LINE"
);
},
{
closed = 1;
nodes = (
"192 639 LINE",
"192 575 LINE",
"256 575 LINE",
"256 639 LINE"
);
},
{
closed = 1;
nodes = (
"128 575 LINE",
"128 511 LINE",
"192 511 LINE",
"192 575 LINE"
);
},
{
closed = 1;
nodes = (
"383 511 LINE",
"383 575 LINE",
"256 575 LINE",
"256 511 LINE"
);
},
{
closed = 1;
nodes = (
"0 383 LINE",
"64 383 LINE",
"64 447 LINE",
"0 447 LINE"
);
},
{
closed = 1;
nodes = (
"64 320 LINE",
"128 320 LINE",
"128 383 LINE",
"64 383 LINE"
);
},
{
closed = 1;
nodes = (
"64 511 LINE",
"64 447 LINE",
"128 447 LINE",
"128 511 LINE"
);
},
{
closed = 1;
nodes = (
"0 192 LINE",
"0 128 LINE",
"64 128 LINE",
"64 192 LINE"
);
},
{
closed = 1;
nodes = (
"447 128 LINE",
"320 128 LINE",
"320 64 LINE",
"447 64 LINE"
);
},
{
closed = 1;
nodes = (
"447 192 LINE",
"447 128 LINE",
"511 128 LINE",
"511 192 LINE"
);
},
{
closed = 1;
nodes = (
"383 192 LINE",
"447 192 LINE",
"447 256 LINE",
"383 256 LINE"
);
},
{
closed = 1;
nodes = (
"256 320 LINE",
"256 256 LINE",
"383 256 LINE",
"383 320 LINE"
);
},
{
closed = 1;
nodes = (
"192 320 LINE",
"256 320 LINE",
"256 383 LINE",
"192 383 LINE"
);
},
{
closed = 1;
nodes = (
"192 256 LINE",
"192 320 LINE",
"128 320 LINE",
"128 256 LINE"
);
},
{
closed = 1;
nodes = (
"320 0 LINE",
"320 64 LINE",
"128 64 LINE",
"128 0 LINE"
);
},
{
closed = 1;
nodes = (
"128 128 LINE",
"64 128 LINE",
"64 64 LINE",
"128 64 LINE"
);
}
);
width = 653;
}
);
unicode = 0073;
},
{
glyphname = t;
lastChange = "2021-11-04 14:30:24 +0000";
layers = (
{
layerId = "2B49945B-6CA5-4A57-AEE9-C94C760A1D53";
paths = (
{
closed = 1;
nodes = (
"71 71 LINE",
"142 71 LINE",
"142 568 LINE",
"283 568 LINE",
"283 639 LINE",
"142 639 LINE",
"142 781 LINE",
"71 781 LINE",
"71 639 LINE",
"-71 639 LINE",
"-71 568 LINE",
"71 568 LINE"
);
},
{
closed = 1;
nodes = (
"356 0 LINE",
"356 71 LINE",
"142 71 LINE",
"142 0 LINE"
);
}
);
width = 498;
},
{
layerId = "D02270D2-0C41-4FF9-8B26-5AFAC61A3F8E";
paths = (
{
closed = 1;
nodes = (
"0 710 LINE",
"71 710 LINE",
"71 781 LINE",
"0 781 LINE"
);
},
{
closed = 1;
nodes = (
"71 355 LINE",
"142 355 LINE",
"142 568 LINE",
"284 568 LINE",
"284 639 LINE",
"142 639 LINE",
"142 710 LINE",
"71 710 LINE",
"71 639 LINE",
"0 639 LINE",
"0 568 LINE",
"71 568 LINE"
);
},
{
closed = 1;
nodes = (
"213 355 LINE",
"142 355 LINE",
"142 284 LINE",
"213 284 LINE"
);
},
{
closed = 1;
nodes = (
"71 142 LINE",
"142 142 LINE",
"142 284 LINE",
"71 284 LINE"
);
},
{
closed = 1;
nodes = (
"213 142 LINE",
"142 142 LINE",
"142 71 LINE",
"213 71 LINE"
);
},
{
closed = 1;
nodes = (
"355 0 LINE",
"355 71 LINE",
"213 71 LINE",
"213 0 LINE"
);
}
);
width = 497;
}
);
unicode = 0074;
},
{
glyphname = u;
lastChange = "2021-11-04 14:30:26 +0000";
layers = (
{
layerId = "2B49945B-6CA5-4A57-AEE9-C94C760A1D53";
paths = (
{
closed = 1;
nodes = (
"355 0 LINE",
"355 71 LINE",
"142 71 LINE",
"142 0 LINE"
);
},
{
closed = 1;
nodes = (
"142 142 LINE",
"71 142 LINE",
"71 71 LINE",
"142 71 LINE"
);
},
{
closed = 1;
nodes = (
"71 639 LINE",
"0 639 LINE",
"0 142 LINE",
"71 142 LINE"
);
},
{
closed = 1;
nodes = (
"497 0 LINE",
"497 639 LINE",
"426 639 LINE",
"426 142 LINE",
"355 142 LINE",
"355 71 LINE",
"426 71 LINE",
"426 0 LINE"
);
}
);
width = 639;
},
{
layerId = "D02270D2-0C41-4FF9-8B26-5AFAC61A3F8E";
paths = (
{
closed = 1;
nodes = (
"355 0 LINE",
"355 71 LINE",
"142 71 LINE",
"142 0 LINE"
);
},
{
closed = 1;
nodes = (
"142 142 LINE",
"71 142 LINE",
"71 71 LINE",
"142 71 LINE"
);
},
{
closed = 1;
nodes = (
"71 284 LINE",
"0 284 LINE",
"0 142 LINE",
"71 142 LINE"
);
},
{
closed = 1;
nodes = (
"71 355 LINE",
"71 284 LINE",
"142 284 LINE",
"142 355 LINE"
);
},
{
closed = 1;
nodes = (
"0 355 LINE",
"71 355 LINE",
"71 426 LINE",
"0 426 LINE"
);
},
{
closed = 1;
nodes = (
"71 497 LINE",
"71 426 LINE",
"142 426 LINE",
"142 497 LINE"
);
},
{
closed = 1;
nodes = (
"0 639 LINE",
"0 497 LINE",
"71 497 LINE",
"71 639 LINE"
);
},
{
closed = 1;
nodes = (
"355 568 LINE",
"426 568 LINE",
"426 639 LINE",
"355 639 LINE"
);
},
{
closed = 1;
nodes = (
"497 568 LINE",
"426 568 LINE",
"426 213 LINE",
"497 213 LINE"
);
},
{
closed = 1;
nodes = (
"497 0 LINE",
"497 142 LINE",
"426 142 LINE",
"426 213 LINE",
"355 213 LINE",
"355 71 LINE",
"426 71 LINE",
"426 0 LINE"
);
}
);
width = 639;
}
);
unicode = 0075;
},
